SplineFontDB: 3.2
FontName: Catamaran-Regular
FullName: Catamaran Regular
FamilyName: Catamaran
Weight: Book
Copyright: Copyright 2020 The Catamaran Project Authors (https://github.com/VanillaandCream/Catamaran-Tamil)
Version: 2.000
ItalicAngle: 0
UnderlinePosition: -150
UnderlineWidth: 50
Ascent: 800
Descent: 200
InvalidEm: 0
sfntRevision: 0x00020000
LayerCount: 2
Layer: 0 1 "Back" 1
Layer: 1 1 "Fore" 0
XUID: [1021 467 -1121320856 1507561]
StyleMap: 0x0040
FSType: 0
OS2Version: 4
OS2_WeightWidthSlopeOnly: 0
OS2_UseTypoMetrics: 1
CreationTime: 1427313689
ModificationTime: 1594773050
PfmFamily: 81
TTFWeight: 400
TTFWidth: 5
LineGap: 0
VLineGap: 0
Panose: 0 0 0 0 0 0 0 0 0 0
OS2TypoAscent: 1100
OS2TypoAOffset: 0
OS2TypoDescent: -540
OS2TypoDOffset: 0
OS2TypoLinegap: 0
OS2WinAscent: 1100
OS2WinAOffset: 0
OS2WinDescent: 540
OS2WinDOffset: 0
HheadAscent: 1100
HheadAOffset: 0
HheadDescent: -540
HheadDOffset: 0
OS2SubXSize: 650
OS2SubYSize: 600
OS2SubXOff: 0
OS2SubYOff: 75
OS2SupXSize: 650
OS2SupYSize: 600
OS2SupXOff: 0
OS2SupYOff: 350
OS2StrikeYSize: 50
OS2StrikeYPos: 291
OS2CapHeight: 680
OS2XHeight: 485
OS2Vendor: 'PYRS'
OS2CodePages: 20000093.00000000
OS2UnicodeRanges: 801000af.5000204b.00000000.00000000
Lookup: 4 0 0 "'psts' Post Base Substitutions lookup 0" { "'psts' Post Base Substitutions lookup 0 subtable"  } ['akhn' ('taml' <'dflt' > 'tml2' <'dflt' > ) 'psts' ('taml' <'dflt' > 'tml2' <'dflt' > ) ]
Lookup: 4 0 0 "'abvs' Above Base Substitutions lookup 1" { "'abvs' Above Base Substitutions lookup 1 subtable"  } ['abvs' ('taml' <'dflt' > 'tml2' <'dflt' > ) ]
Lookup: 4 0 0 "'psts' Post Base Substitutions lookup 2" { "'psts' Post Base Substitutions lookup 2 subtable"  } ['psts' ('taml' <'dflt' > 'tml2' <'dflt' > ) ]
Lookup: 4 0 0 "'psts' Post Base Substitutions lookup 3" { "'psts' Post Base Substitutions lookup 3 subtable"  } ['psts' ('taml' <'dflt' > 'tml2' <'dflt' > ) ]

StartChar: .notdef
Encoding: 65536 -1 0
Width: 658
Flags: W
LayerCount: 2
Fore
SplineSet
94 696 m 1,0,-1
 94 0 l 1,1,-1
 563 0 l 1,2,-1
 563 696 l 1,3,-1
 94 696 l 1,0,-1
482 632 m 1,4,-1
 483 63 l 1,5,-1
 174 63 l 1,6,-1
 174 632 l 1,7,-1
 482 632 l 1,4,-1
EndSplineSet
EndChar

StartChar: uni200C
Encoding: 8204 8204 5
Width: 0
Flags: W
LayerCount: 2
Fore
SplineSet
-30 -68 m 1,0,-1
 30 -68 l 1,1,-1
 30 1100 l 1,2,-1
 -30 1100 l 1,3,-1
 -30 -68 l 1,0,-1
EndSplineSet
EndChar

StartChar: uni200D
Encoding: 8205 8205 6
Width: 0
Flags: W
LayerCount: 2
Fore
SplineSet
0 1026 m 1,0,-1
 -73 1100 l 1,1,-1
 -113 1060 l 1,2,-1
 -39 986 l 1,3,-1
 -113 912 l 1,4,-1
 -74 873 l 1,5,-1
 -30 916 l 1,6,-1
 -30 -68 l 1,7,-1
 30 -68 l 1,8,-1
 30 917 l 1,9,-1
 75 873 l 1,10,-1
 114 912 l 1,11,-1
 40 986 l 1,12,-1
 114 1060 l 1,13,-1
 74 1100 l 1,14,-1
 0 1026 l 1,0,-1
EndSplineSet
EndChar

StartChar: uni25CC
Encoding: 9676 9676 7
Width: 610
Flags: W
LayerCount: 2
Fore
SplineSet
304 459 m 256,0,1
 317 459 317 459 325 467 c 128,-1,2
 333 475 333 475 333 488 c 256,3,4
 333 501 333 501 325 509.5 c 128,-1,5
 317 518 317 518 304 518 c 256,6,7
 291 518 291 518 283 509.5 c 128,-1,8
 275 501 275 501 275 488 c 256,9,10
 275 475 275 475 283 467 c 128,-1,11
 291 459 291 459 304 459 c 256,0,1
394 444 m 0,12,13
 407 444 407 444 415 452 c 128,-1,14
 423 460 423 460 423 473 c 256,15,16
 423 486 423 486 415 494 c 128,-1,17
 407 502 407 502 394 502 c 256,18,19
 381 502 381 502 373 494 c 128,-1,20
 365 486 365 486 365 473 c 0,21,22
 365 444 365 444 394 444 c 0,12,13
215 502 m 256,23,24
 202 502 202 502 194 494 c 128,-1,25
 186 486 186 486 186 473 c 256,26,27
 186 460 186 460 194 452 c 128,-1,28
 202 444 202 444 215 444 c 256,29,30
 228 444 228 444 236 452 c 128,-1,31
 244 460 244 460 244 473 c 256,32,33
 244 486 244 486 236 494 c 128,-1,34
 228 502 228 502 215 502 c 256,23,24
470 393 m 256,35,36
 483 393 483 393 491.5 401 c 128,-1,37
 500 409 500 409 500 422 c 256,38,39
 500 435 500 435 491.5 443.5 c 128,-1,40
 483 452 483 452 470 452 c 256,41,42
 457 452 457 452 449 443.5 c 128,-1,43
 441 435 441 435 441 422 c 256,44,45
 441 409 441 409 449 401 c 128,-1,46
 457 393 457 393 470 393 c 256,35,36
139 452 m 256,47,48
 126 452 126 452 117.5 443.5 c 128,-1,49
 109 435 109 435 109 422 c 256,50,51
 109 409 109 409 117.5 401 c 128,-1,52
 126 393 126 393 139 393 c 256,53,54
 152 393 152 393 160 401 c 128,-1,55
 168 409 168 409 168 422 c 256,56,57
 168 435 168 435 160 443.5 c 128,-1,58
 152 452 152 452 139 452 c 256,47,48
518 314 m 256,59,60
 531 314 531 314 539 322 c 128,-1,61
 547 330 547 330 547 343 c 256,62,63
 547 356 547 356 539 364.5 c 128,-1,64
 531 373 531 373 518 373 c 256,65,66
 505 373 505 373 497 364.5 c 128,-1,67
 489 356 489 356 489 343 c 256,68,69
 489 330 489 330 497 322 c 128,-1,70
 505 314 505 314 518 314 c 256,59,60
91 373 m 256,71,72
 78 373 78 373 69.5 364.5 c 128,-1,73
 61 356 61 356 61 343 c 256,74,75
 61 330 61 330 69.5 322 c 128,-1,76
 78 314 78 314 91 314 c 256,77,78
 104 314 104 314 112 322 c 128,-1,79
 120 330 120 330 120 343 c 256,80,81
 120 356 120 356 112 364.5 c 128,-1,82
 104 373 104 373 91 373 c 256,71,72
532 229 m 256,83,84
 545 229 545 229 553.5 236.5 c 128,-1,85
 562 244 562 244 562 257 c 0,86,87
 562 271 562 271 553.5 279 c 128,-1,88
 545 287 545 287 532 287 c 256,89,90
 519 287 519 287 511 279 c 128,-1,91
 503 271 503 271 503 257 c 0,92,93
 503 244 503 244 511 236.5 c 128,-1,94
 519 229 519 229 532 229 c 256,83,84
77 287 m 256,95,96
 64 287 64 287 55.5 279 c 128,-1,97
 47 271 47 271 47 257 c 0,98,99
 47 244 47 244 55.5 236.5 c 128,-1,100
 64 229 64 229 77 229 c 256,101,102
 90 229 90 229 98 236.5 c 128,-1,103
 106 244 106 244 106 257 c 0,104,105
 106 271 106 271 98 279 c 128,-1,106
 90 287 90 287 77 287 c 256,95,96
518 145 m 256,107,108
 531 145 531 145 539 153 c 128,-1,109
 547 161 547 161 547 174 c 256,110,111
 547 187 547 187 539 195 c 128,-1,112
 531 203 531 203 518 203 c 256,113,114
 505 203 505 203 497 195 c 128,-1,115
 489 187 489 187 489 174 c 256,116,117
 489 161 489 161 497 153 c 128,-1,118
 505 145 505 145 518 145 c 256,107,108
91 203 m 256,119,120
 78 203 78 203 69.5 195 c 128,-1,121
 61 187 61 187 61 174 c 256,122,123
 61 161 61 161 69.5 153 c 128,-1,124
 78 145 78 145 91 145 c 256,125,126
 104 145 104 145 112 153 c 128,-1,127
 120 161 120 161 120 174 c 256,128,129
 120 187 120 187 112 195 c 128,-1,130
 104 203 104 203 91 203 c 256,119,120
471 65 m 256,131,132
 484 65 484 65 492.5 73 c 128,-1,133
 501 81 501 81 501 94 c 256,134,135
 501 107 501 107 492.5 115 c 128,-1,136
 484 123 484 123 471 123 c 256,137,138
 458 123 458 123 450 115 c 128,-1,139
 442 107 442 107 442 94 c 256,140,141
 442 81 442 81 450 73 c 128,-1,142
 458 65 458 65 471 65 c 256,131,132
138 123 m 256,143,144
 125 123 125 123 116.5 115 c 128,-1,145
 108 107 108 107 108 94 c 256,146,147
 108 81 108 81 116.5 73 c 128,-1,148
 125 65 125 65 138 65 c 256,149,150
 151 65 151 65 159 73 c 128,-1,151
 167 81 167 81 167 94 c 256,152,153
 167 107 167 107 159 115 c 128,-1,154
 151 123 151 123 138 123 c 256,143,144
215 74 m 256,155,156
 202 74 202 74 194 65.5 c 128,-1,157
 186 57 186 57 186 44 c 256,158,159
 186 31 186 31 194 23 c 128,-1,160
 202 15 202 15 215 15 c 256,161,162
 228 15 228 15 236 23 c 128,-1,163
 244 31 244 31 244 44 c 256,164,165
 244 57 244 57 236 65.5 c 128,-1,166
 228 74 228 74 215 74 c 256,155,156
394 15 m 256,167,168
 407 15 407 15 415 23 c 128,-1,169
 423 31 423 31 423 44 c 256,170,171
 423 57 423 57 415 65.5 c 128,-1,172
 407 74 407 74 394 74 c 256,173,174
 381 74 381 74 373 65.5 c 128,-1,175
 365 57 365 57 365 44 c 256,176,177
 365 31 365 31 373 23 c 128,-1,178
 381 15 381 15 394 15 c 256,167,168
304 0 m 256,179,180
 317 0 317 0 325 8 c 128,-1,181
 333 16 333 16 333 29 c 256,182,183
 333 42 333 42 325 50.5 c 128,-1,184
 317 59 317 59 304 59 c 256,185,186
 291 59 291 59 283 50.5 c 128,-1,187
 275 42 275 42 275 29 c 256,188,189
 275 16 275 16 283 8 c 128,-1,190
 291 0 291 0 304 0 c 256,179,180
EndSplineSet
EndChar

StartChar: A
Encoding: 65 65 8
Width: 609
GlyphClass: 2
Flags: W
LayerCount: 2
Fore
SplineSet
422 257 m 1,0,-1
 180 257 l 1,1,-1
 299 575 l 1,2,-1
 422 257 l 1,0,-1
262 680 m 1,3,-1
 10 0 l 1,4,-1
 87 0 l 1,5,-1
 158 193 l 1,6,-1
 445 193 l 1,7,-1
 521 -7 l 1,8,-1
 599 6 l 1,9,-1
 337 680 l 1,10,-1
 262 680 l 1,3,-1
EndSplineSet
EndChar

StartChar: B
Encoding: 66 66 9
Width: 590
Flags: W
LayerCount: 2
Fore
SplineSet
306 0 m 2,0,1
 359 0 359 0 404.5 10.5 c 128,-1,2
 450 21 450 21 484.5 43.5 c 128,-1,3
 519 66 519 66 538.5 102.5 c 128,-1,4
 558 139 558 139 558 191 c 0,5,6
 558 260 558 260 521.5 302 c 128,-1,7
 485 344 485 344 427 364 c 1,8,9
 465 385 465 385 493 418.5 c 128,-1,10
 521 452 521 452 521 499 c 0,11,12
 521 568 521 568 490.5 607 c 128,-1,13
 460 646 460 646 406 663 c 128,-1,14
 352 680 352 680 282 680 c 2,15,-1
 93 680 l 1,16,-1
 93 0 l 1,17,-1
 306 0 l 2,0,1
279 613 m 2,18,19
 328 613 328 613 364.5 604 c 128,-1,20
 401 595 401 595 421 570 c 128,-1,21
 441 545 441 545 441 498 c 0,22,23
 441 456 441 456 416.5 431 c 128,-1,24
 392 406 392 406 352 395.5 c 128,-1,25
 312 385 312 385 264 384 c 2,26,-1
 172 384 l 1,27,-1
 172 613 l 1,28,-1
 279 613 l 2,18,19
315 319 m 2,29,30
 389 319 389 319 433.5 288.5 c 128,-1,31
 478 258 478 258 478 189 c 0,32,33
 478 143 478 143 455 116 c 128,-1,34
 432 89 432 89 393 77.5 c 128,-1,35
 354 66 354 66 305 66 c 2,36,-1
 172 66 l 1,37,-1
 172 319 l 1,38,-1
 315 319 l 2,29,30
EndSplineSet
EndChar

StartChar: C
Encoding: 67 67 10
Width: 556
GlyphClass: 2
Flags: W
LayerCount: 2
Fore
SplineSet
533 655 m 1,0,1
 510 669 510 669 478.5 677.5 c 128,-1,2
 447 686 447 686 415.5 690 c 128,-1,3
 384 694 384 694 363 694 c 0,4,5
 289 694 289 694 229.5 667 c 128,-1,6
 170 640 170 640 128.5 591 c 128,-1,7
 87 542 87 542 65 477 c 128,-1,8
 43 412 43 412 43 336 c 0,9,10
 43 265 43 265 62.5 202 c 128,-1,11
 82 139 82 139 121.5 90.5 c 128,-1,12
 161 42 161 42 220 14 c 128,-1,13
 279 -14 279 -14 357 -14 c 0,14,15
 386 -14 386 -14 419 -9 c 128,-1,16
 452 -4 452 -4 482.5 5 c 128,-1,17
 513 14 513 14 534 25 c 1,18,-1
 504 84 l 1,19,20
 476 72 476 72 441 63 c 128,-1,21
 406 54 406 54 354 54 c 0,22,23
 300 54 300 54 257.5 76 c 128,-1,24
 215 98 215 98 185.5 137.5 c 128,-1,25
 156 177 156 177 141 228 c 128,-1,26
 126 279 126 279 126 337 c 0,27,28
 126 422 126 422 157.5 487 c 128,-1,29
 189 552 189 552 242.5 589 c 128,-1,30
 296 626 296 626 363 626 c 0,31,32
 397 626 397 626 421 622.5 c 128,-1,33
 445 619 445 619 465.5 612.5 c 128,-1,34
 486 606 486 606 508 597 c 1,35,-1
 533 655 l 1,0,1
EndSplineSet
EndChar

StartChar: D
Encoding: 68 68 11
Width: 671
GlyphClass: 2
Flags: W
LayerCount: 2
Fore
SplineSet
324 0 m 2,0,1
 424 0 424 0 491.5 45.5 c 128,-1,2
 559 91 559 91 594 169 c 128,-1,3
 629 247 629 247 629 344 c 0,4,5
 629 439 629 439 598 515 c 128,-1,6
 567 591 567 591 502 635.5 c 128,-1,7
 437 680 437 680 331 680 c 2,8,-1
 93 680 l 1,9,-1
 93 0 l 1,10,-1
 324 0 l 2,0,1
334 612 m 2,11,12
 408 612 408 612 455.5 577 c 128,-1,13
 503 542 503 542 526.5 481.5 c 128,-1,14
 550 421 550 421 550 343 c 0,15,16
 550 257 550 257 521.5 195 c 128,-1,17
 493 133 493 133 443 99.5 c 128,-1,18
 393 66 393 66 325 66 c 2,19,-1
 171 66 l 1,20,-1
 171 612 l 1,21,-1
 334 612 l 2,11,12
EndSplineSet
EndChar

StartChar: E
Encoding: 69 69 12
Width: 522
GlyphClass: 2
Flags: W
LayerCount: 2
Fore
SplineSet
502 0 m 1,0,-1
 493 62 l 1,1,-1
 171 62 l 1,2,-1
 171 317 l 1,3,-1
 416 317 l 1,4,-1
 407 377 l 1,5,-1
 171 377 l 1,6,-1
 171 620 l 1,7,-1
 473 620 l 1,8,-1
 464 680 l 1,9,-1
 93 680 l 1,10,-1
 93 0 l 1,11,-1
 502 0 l 1,0,-1
EndSplineSet
EndChar

StartChar: F
Encoding: 70 70 13
Width: 481
Flags: W
LayerCount: 2
Fore
SplineSet
396 373 m 1,0,-1
 171 373 l 1,1,-1
 171 620 l 1,2,-1
 461 620 l 1,3,-1
 450 680 l 1,4,-1
 93 680 l 1,5,-1
 93 0 l 1,6,-1
 171 0 l 1,7,-1
 171 313 l 1,8,-1
 405 313 l 1,9,-1
 396 373 l 1,0,-1
EndSplineSet
EndChar

StartChar: G
Encoding: 71 71 14
Width: 627
GlyphClass: 2
Flags: W
LayerCount: 2
Fore
SplineSet
349 290 m 1,0,-1
 499 290 l 1,1,-1
 499 74 l 1,2,3
 476 66 476 66 447 60 c 128,-1,4
 418 54 418 54 383 54 c 0,5,6
 310 54 310 54 251.5 88.5 c 128,-1,7
 193 123 193 123 159.5 187 c 128,-1,8
 126 251 126 251 126 337 c 0,9,10
 126 406 126 406 148 460 c 128,-1,11
 170 514 170 514 208.5 550.5 c 128,-1,12
 247 587 247 587 295 606.5 c 128,-1,13
 343 626 343 626 395 626 c 0,14,15
 429 626 429 626 453 622.5 c 128,-1,16
 477 619 477 619 497 612.5 c 128,-1,17
 517 606 517 606 539 597 c 1,18,-1
 564 655 l 1,19,20
 543 669 543 669 510.5 677.5 c 128,-1,21
 478 686 478 686 446 690 c 128,-1,22
 414 694 414 694 393 694 c 0,23,24
 319 694 319 694 255 668.5 c 128,-1,25
 191 643 191 643 143.5 595 c 128,-1,26
 96 547 96 547 69.5 481.5 c 128,-1,27
 43 416 43 416 43 336 c 0,28,29
 43 237 43 237 84.5 158 c 128,-1,30
 126 79 126 79 203.5 32.5 c 128,-1,31
 281 -14 281 -14 384 -14 c 0,32,33
 418 -14 418 -14 453.5 -8 c 128,-1,34
 489 -2 489 -2 521 9 c 128,-1,35
 553 20 553 20 574 33 c 1,36,-1
 574 350 l 1,37,-1
 356 350 l 1,38,-1
 349 290 l 1,0,-1
EndSplineSet
EndChar

StartChar: H
Encoding: 72 72 15
Width: 663
Flags: W
LayerCount: 2
Fore
SplineSet
570 0 m 1,0,-1
 570 680 l 1,1,-1
 491 680 l 1,2,-1
 491 374 l 1,3,-1
 171 374 l 1,4,-1
 171 685 l 1,5,-1
 93 680 l 1,6,-1
 93 0 l 1,7,-1
 171 0 l 1,8,-1
 171 311 l 1,9,-1
 491 311 l 1,10,-1
 491 0 l 1,11,-1
 570 0 l 1,0,-1
EndSplineSet
EndChar

StartChar: I
Encoding: 73 73 16
Width: 264
GlyphClass: 2
Flags: W
LayerCount: 2
Fore
SplineSet
171 0 m 1,0,-1
 171 680 l 1,1,-1
 93 680 l 1,2,-1
 93 0 l 1,3,-1
 171 0 l 1,0,-1
EndSplineSet
EndChar

StartChar: J
Encoding: 74 74 17
Width: 255
Flags: W
LayerCount: 2
Fore
SplineSet
93 66 m 2,0,1
 94 29 94 29 87 9.5 c 128,-1,2
 80 -10 80 -10 62 -21.5 c 128,-1,3
 44 -33 44 -33 10 -46 c 1,4,-1
 41 -102 l 1,5,6
 92 -86 92 -86 120.5 -67 c 128,-1,7
 149 -48 149 -48 161 -20.5 c 128,-1,8
 173 7 173 7 173 49 c 2,9,-1
 173 680 l 1,10,-1
 93 680 l 1,11,-1
 93 66 l 2,0,1
EndSplineSet
EndChar

StartChar: K
Encoding: 75 75 18
Width: 609
Flags: W
LayerCount: 2
Fore
SplineSet
503 0 m 1,0,-1
 249 327 l 1,1,-1
 171 246 l 1,2,-1
 171 0 l 1,3,-1
 93 0 l 1,4,-1
 93 680 l 1,5,-1
 171 680 l 1,6,-1
 171 350 l 1,7,-1
 499 695 l 1,8,-1
 554 648 l 1,9,-1
 301 382 l 1,10,-1
 599 0 l 1,11,-1
 503 0 l 1,0,-1
EndSplineSet
EndChar

StartChar: L
Encoding: 76 76 19
Width: 506
GlyphClass: 2
Flags: W
LayerCount: 2
Fore
SplineSet
488 62 m 1,0,-1
 171 62 l 1,1,-1
 171 680 l 1,2,-1
 93 680 l 1,3,-1
 93 0 l 1,4,-1
 496 0 l 1,5,-1
 488 62 l 1,0,-1
EndSplineSet
EndChar

StartChar: M
Encoding: 77 77 20
Width: 762
Flags: W
LayerCount: 2
Fore
SplineSet
400 229 m 1,0,-1
 590 512 l 1,1,-1
 590 0 l 1,2,-1
 670 0 l 1,3,-1
 670 680 l 1,4,-1
 620 680 l 1,5,-1
 383 333 l 1,6,-1
 139 680 l 1,7,-1
 93 680 l 1,8,-1
 93 0 l 1,9,-1
 171 0 l 1,10,-1
 171 514 l 1,11,-1
 372 224 l 1,12,-1
 400 229 l 1,0,-1
EndSplineSet
EndChar

StartChar: N
Encoding: 78 78 21
Width: 700
GlyphClass: 2
Flags: W
LayerCount: 2
Fore
SplineSet
171 0 m 1,0,-1
 171 533 l 1,1,-1
 197 489 l 1,2,-1
 544 0 l 1,3,-1
 607 0 l 1,4,-1
 607 680 l 1,5,-1
 527 680 l 1,6,-1
 527 153 l 1,7,-1
 486 220 l 1,8,-1
 155 680 l 1,9,-1
 93 680 l 1,10,-1
 93 0 l 1,11,-1
 171 0 l 1,0,-1
EndSplineSet
EndChar

StartChar: O
Encoding: 79 79 22
Width: 725
GlyphClass: 2
Flags: W
LayerCount: 2
Fore
SplineSet
360 -14 m 0,0,1
 268 -14 268 -14 196 31 c 128,-1,2
 124 76 124 76 83.5 155.5 c 128,-1,3
 43 235 43 235 43 337 c 256,4,5
 43 439 43 439 84.5 519.5 c 128,-1,6
 126 600 126 600 198.5 647 c 128,-1,7
 271 694 271 694 364 696 c 0,8,9
 456 696 456 696 528 650.5 c 128,-1,10
 600 605 600 605 641 526 c 128,-1,11
 682 447 682 447 682 345 c 256,12,13
 682 243 682 243 640.5 162 c 128,-1,14
 599 81 599 81 526.5 34.5 c 128,-1,15
 454 -12 454 -12 360 -14 c 0,0,1
358 55 m 0,16,17
 428 55 428 55 482 92 c 128,-1,18
 536 129 536 129 567 194.5 c 128,-1,19
 598 260 598 260 598 344 c 0,20,21
 598 426 598 426 568 490 c 128,-1,22
 538 554 538 554 485.5 590 c 128,-1,23
 433 626 433 626 366 626 c 0,24,25
 296 626 296 626 242 589 c 128,-1,26
 188 552 188 552 157 487 c 128,-1,27
 126 422 126 422 126 338 c 0,28,29
 126 256 126 256 156 192 c 128,-1,30
 186 128 186 128 238 91.5 c 128,-1,31
 290 55 290 55 358 55 c 0,16,17
EndSplineSet
EndChar

StartChar: P
Encoding: 80 80 23
Width: 562
Flags: W
LayerCount: 2
Fore
SplineSet
171 0 m 1,0,-1
 171 257 l 1,1,-1
 267 257 l 2,2,3
 321 257 321 257 368 269.5 c 128,-1,4
 415 282 415 282 451 308 c 128,-1,5
 487 334 487 334 508 375 c 128,-1,6
 529 416 529 416 529 471 c 0,7,8
 529 546 529 546 496 592 c 128,-1,9
 463 638 463 638 406 659 c 128,-1,10
 349 680 349 680 278 680 c 2,11,-1
 93 680 l 1,12,-1
 93 0 l 1,13,-1
 171 0 l 1,0,-1
278 613 m 2,14,15
 330 613 330 613 367.5 599.5 c 128,-1,16
 405 586 405 586 426.5 555 c 128,-1,17
 448 524 448 524 448 469 c 0,18,19
 447 417 447 417 423.5 385 c 128,-1,20
 400 353 400 353 360 338.5 c 128,-1,21
 320 324 320 324 270 324 c 2,22,-1
 171 324 l 1,23,-1
 171 613 l 1,24,-1
 278 613 l 2,14,15
EndSplineSet
EndChar

StartChar: Q
Encoding: 81 81 24
Width: 725
Flags: W
LayerCount: 2
Fore
SplineSet
435 228 m 1,0,-1
 380 187 l 1,1,-1
 600 -19 l 1,2,-1
 647 21 l 1,3,-1
 435 228 l 1,0,-1
364 696 m 0,4,5
 271 694 271 694 198.5 647 c 128,-1,6
 126 600 126 600 84.5 519.5 c 128,-1,7
 43 439 43 439 43 337 c 256,8,9
 43 235 43 235 83.5 155.5 c 128,-1,10
 124 76 124 76 196 31 c 128,-1,11
 268 -14 268 -14 360 -14 c 0,12,13
 454 -12 454 -12 526.5 34.5 c 128,-1,14
 599 81 599 81 640.5 162 c 128,-1,15
 682 243 682 243 682 345 c 0,16,17
 682 446 682 446 641 525.5 c 128,-1,18
 600 605 600 605 528 650.5 c 128,-1,19
 456 696 456 696 364 696 c 0,4,5
126 338 m 0,20,21
 126 422 126 422 157 487 c 128,-1,22
 188 552 188 552 242 589 c 128,-1,23
 296 626 296 626 366 626 c 0,24,25
 433 626 433 626 485.5 590 c 128,-1,26
 538 554 538 554 568 490 c 128,-1,27
 598 426 598 426 598 344 c 0,28,29
 598 260 598 260 567 194.5 c 128,-1,30
 536 129 536 129 482 92 c 128,-1,31
 428 55 428 55 358 55 c 0,32,33
 291 55 291 55 238.5 91.5 c 128,-1,34
 186 128 186 128 156 192 c 128,-1,35
 126 256 126 256 126 338 c 0,20,21
EndSplineSet
EndChar

StartChar: R
Encoding: 82 82 25
Width: 592
GlyphClass: 2
Flags: W
LayerCount: 2
Fore
SplineSet
278 613 m 2,0,1
 328 613 328 613 366 601.5 c 128,-1,2
 404 590 404 590 426 561 c 128,-1,3
 448 532 448 532 448 479 c 0,4,5
 448 428 448 428 423 398.5 c 128,-1,6
 398 369 398 369 358 356 c 128,-1,7
 318 343 318 343 270 343 c 2,8,-1
 171 343 l 1,9,-1
 171 613 l 1,10,-1
 278 613 l 2,0,1
93 680 m 1,11,-1
 93 0 l 1,12,-1
 171 0 l 1,13,-1
 171 279 l 1,14,-1
 267 279 l 2,15,16
 284 279 284 279 304.5 280 c 128,-1,17
 325 281 325 281 339 283 c 1,18,-1
 495 0 l 1,19,-1
 582 0 l 1,20,-1
 409 304 l 1,21,22
 461 326 461 326 494.5 369.5 c 128,-1,23
 528 413 528 413 529 482 c 0,24,25
 529 554 529 554 496 597.5 c 128,-1,26
 463 641 463 641 406 660.5 c 128,-1,27
 349 680 349 680 278 680 c 2,28,-1
 93 680 l 1,11,-1
EndSplineSet
EndChar

StartChar: S
Encoding: 83 83 26
Width: 513
GlyphClass: 2
Flags: W
LayerCount: 2
Fore
SplineSet
54 33 m 1,0,1
 68 24 68 24 90 15.5 c 128,-1,2
 112 7 112 7 139 1 c 128,-1,3
 166 -5 166 -5 192.5 -9 c 128,-1,4
 219 -13 219 -13 240 -13 c 0,5,6
 317 -13 317 -13 370.5 10 c 128,-1,7
 424 33 424 33 452.5 73 c 128,-1,8
 481 113 481 113 481 165 c 0,9,10
 481 202 481 202 469 230.5 c 128,-1,11
 457 259 457 259 434 282 c 128,-1,12
 411 305 411 305 378 325 c 128,-1,13
 345 345 345 345 301 364 c 0,14,15
 242 393 242 393 201 415.5 c 128,-1,16
 160 438 160 438 139.5 464 c 128,-1,17
 119 490 119 490 119 526 c 0,18,19
 119 574 119 574 159.5 601 c 128,-1,20
 200 628 200 628 264 628 c 0,21,22
 298 628 298 628 323.5 622.5 c 128,-1,23
 349 617 349 617 369.5 609 c 128,-1,24
 390 601 390 601 407 593 c 1,25,-1
 434 654 l 1,26,27
 402 670 402 670 356 683 c 128,-1,28
 310 696 310 696 260 696 c 0,29,30
 193 696 193 696 144.5 673 c 128,-1,31
 96 650 96 650 69.5 612 c 128,-1,32
 43 574 43 574 43 525 c 0,33,34
 43 490 43 490 54.5 461 c 128,-1,35
 66 432 66 432 88.5 407.5 c 128,-1,36
 111 383 111 383 144.5 362.5 c 128,-1,37
 178 342 178 342 222 322 c 0,38,39
 281 298 281 298 321 275.5 c 128,-1,40
 361 253 361 253 381.5 227 c 128,-1,41
 402 201 402 201 402 164 c 0,42,43
 402 133 402 133 383.5 107.5 c 128,-1,44
 365 82 365 82 329 68 c 128,-1,45
 293 54 293 54 239 54 c 0,46,47
 208 54 208 54 176 60.5 c 128,-1,48
 144 67 144 67 117.5 77 c 128,-1,49
 91 87 91 87 72 95 c 1,50,-1
 54 33 l 1,0,1
EndSplineSet
EndChar

StartChar: T
Encoding: 84 84 27
Width: 562
GlyphClass: 2
Flags: W
LayerCount: 2
Fore
SplineSet
543 680 m 1,0,-1
 10 680 l 1,1,-1
 10 617 l 1,2,-1
 238 617 l 1,3,-1
 238 0 l 1,4,-1
 318 0 l 1,5,-1
 318 617 l 1,6,-1
 552 617 l 1,7,-1
 543 680 l 1,0,-1
EndSplineSet
EndChar

StartChar: U
Encoding: 85 85 28
Width: 681
GlyphClass: 2
Flags: W
LayerCount: 2
Fore
SplineSet
161 680 m 1,0,-1
 83 680 l 1,1,-1
 83 241 l 2,2,3
 83 169 83 169 114.5 111.5 c 128,-1,4
 146 54 146 54 204 21.5 c 128,-1,5
 262 -11 262 -11 341 -11 c 0,6,7
 421 -11 421 -11 478.5 22 c 128,-1,8
 536 55 536 55 567.5 112 c 128,-1,9
 599 169 599 169 599 241 c 2,10,-1
 599 680 l 1,11,-1
 519 680 l 1,12,-1
 519 250 l 2,13,14
 519 193 519 193 497.5 148.5 c 128,-1,15
 476 104 476 104 436 79 c 128,-1,16
 396 54 396 54 341 54 c 0,17,18
 287 54 287 54 246.5 79 c 128,-1,19
 206 104 206 104 183.5 148 c 128,-1,20
 161 192 161 192 161 250 c 2,21,-1
 161 680 l 1,0,-1
EndSplineSet
EndChar

StartChar: V
Encoding: 86 86 29
Width: 609
Flags: W
LayerCount: 2
Fore
SplineSet
88 687 m 1,0,-1
 10 674 l 1,1,-1
 271 0 l 1,2,-1
 347 0 l 1,3,-1
 599 680 l 1,4,-1
 522 680 l 1,5,-1
 309 104 l 1,6,-1
 88 687 l 1,0,-1
EndSplineSet
EndChar

StartChar: W
Encoding: 87 87 30
Width: 857
Flags: W
LayerCount: 2
Fore
SplineSet
847 680 m 1,0,-1
 661 0 l 1,1,-1
 584 0 l 1,2,-1
 429 562 l 1,3,-1
 282 0 l 1,4,-1
 206 0 l 1,5,-1
 10 674 l 1,6,-1
 88 687 l 1,7,-1
 244 108 l 1,8,-1
 392 680 l 1,9,-1
 469 680 l 1,10,-1
 623 108 l 1,11,-1
 771 680 l 1,12,-1
 847 680 l 1,0,-1
EndSplineSet
EndChar

StartChar: X
Encoding: 88 88 31
Width: 588
Flags: W
LayerCount: 2
Fore
SplineSet
94 0 m 1,0,-1
 296 286 l 1,1,-1
 479 0 l 1,2,-1
 565 0 l 1,3,-1
 349 333 l 1,4,-1
 578 680 l 1,5,-1
 494 680 l 1,6,-1
 309 389 l 1,7,-1
 101 697 l 1,8,-1
 36 664 l 1,9,-1
 254 344 l 1,10,-1
 10 0 l 1,11,-1
 94 0 l 1,0,-1
EndSplineSet
EndChar

StartChar: Y
Encoding: 89 89 32
Width: 563
GlyphClass: 2
Flags: W
LayerCount: 2
Fore
SplineSet
314 0 m 1,0,-1
 315 277 l 1,1,-1
 553 680 l 1,2,-1
 468 680 l 1,3,-1
 275 351 l 1,4,-1
 84 696 l 1,5,-1
 10 664 l 1,6,-1
 235 273 l 1,7,-1
 235 0 l 1,8,-1
 314 0 l 1,0,-1
EndSplineSet
EndChar

StartChar: Z
Encoding: 90 90 33
Width: 562
GlyphClass: 2
Flags: W
LayerCount: 2
Fore
SplineSet
522 62 m 1,0,-1
 109 62 l 1,1,-1
 539 617 l 1,2,-1
 531 680 l 1,3,-1
 50 680 l 1,4,-1
 61 617 l 1,5,-1
 451 617 l 1,6,-1
 23 63 l 1,7,-1
 31 0 l 1,8,-1
 530 0 l 1,9,-1
 522 62 l 1,0,-1
EndSplineSet
EndChar

StartChar: a
Encoding: 97 97 34
Width: 488
Flags: W
LayerCount: 2
Fore
SplineSet
123 138 m 0,0,1
 123 176 123 176 148.5 204.5 c 128,-1,2
 174 233 174 233 223 233 c 2,3,-1
 350 233 l 1,4,-1
 350 122 l 1,5,6
 325 93 325 93 290 72 c 128,-1,7
 255 51 255 51 213 51 c 0,8,9
 182 51 182 51 162 64 c 128,-1,10
 142 77 142 77 132.5 97.5 c 128,-1,11
 123 118 123 118 123 138 c 0,0,1
104 396 m 1,12,13
 131 407 131 407 163.5 418 c 128,-1,14
 196 429 196 429 243 429 c 0,15,16
 301 429 301 429 325.5 396 c 128,-1,17
 350 363 350 363 350 313 c 2,18,-1
 350 286 l 1,19,-1
 225 286 l 2,20,21
 147 286 147 286 98 247.5 c 128,-1,22
 49 209 49 209 49 138 c 0,23,24
 49 74 49 74 90 31 c 128,-1,25
 131 -12 131 -12 216 -12 c 0,26,27
 256 -12 256 -12 296.5 7 c 128,-1,28
 337 26 337 26 360 49 c 1,29,-1
 370 0 l 1,30,-1
 430 0 l 1,31,-1
 430 334 l 2,32,33
 430 382 430 382 406 419 c 128,-1,34
 382 456 382 456 339.5 477 c 128,-1,35
 297 498 297 498 241 498 c 0,36,37
 221 498 221 498 190 492.5 c 128,-1,38
 159 487 159 487 129.5 477.5 c 128,-1,39
 100 468 100 468 81 455 c 1,40,-1
 104 396 l 1,12,13
EndSplineSet
EndChar

StartChar: b
Encoding: 98 98 35
Width: 528
Flags: W
LayerCount: 2
Fore
SplineSet
120 0 m 1,0,-1
 151 65 l 1,1,-1
 151 706 l 1,2,-1
 73 695 l 1,3,-1
 73 0 l 1,4,-1
 120 0 l 1,0,-1
127 359 m 1,5,6
 156 393 156 393 187.5 412 c 128,-1,7
 219 431 219 431 266 431 c 0,8,9
 316 431 316 431 349.5 406.5 c 128,-1,10
 383 382 383 382 399 339 c 128,-1,11
 415 296 415 296 415 240 c 0,12,13
 415 188 415 188 398 146 c 128,-1,14
 381 104 381 104 347.5 79 c 128,-1,15
 314 54 314 54 264 54 c 0,16,17
 217 54 217 54 185 72.5 c 128,-1,18
 153 91 153 91 125 122 c 1,19,-1
 101 68 l 1,20,21
 122 43 122 43 149.5 25 c 128,-1,22
 177 7 177 7 206.5 -3 c 128,-1,23
 236 -13 236 -13 262 -13 c 0,24,25
 335 -13 335 -13 387 19.5 c 128,-1,26
 439 52 439 52 467.5 109.5 c 128,-1,27
 496 167 496 167 496 241 c 0,28,29
 496 318 496 318 469 375.5 c 128,-1,30
 442 433 442 433 390 465.5 c 128,-1,31
 338 498 338 498 265 498 c 0,32,33
 240 498 240 498 210 489 c 128,-1,34
 180 480 180 480 152 461.5 c 128,-1,35
 124 443 124 443 103 416 c 1,36,-1
 127 359 l 1,5,6
EndSplineSet
EndChar

StartChar: c
Encoding: 99 99 36
Width: 458
Flags: W
LayerCount: 2
Fore
SplineSet
401 87 m 1,0,1
 373 73 373 73 343.5 63.5 c 128,-1,2
 314 54 314 54 266 54 c 0,3,4
 216 54 216 54 181.5 79 c 128,-1,5
 147 104 147 104 130 147.5 c 128,-1,6
 113 191 113 191 113 245 c 0,7,8
 114 297 114 297 132.5 339 c 128,-1,9
 151 381 151 381 186 406 c 128,-1,10
 221 431 221 431 270 431 c 0,11,12
 317 431 317 431 347 420.5 c 128,-1,13
 377 410 377 410 405 398 c 1,14,-1
 429 453 l 1,15,16
 409 467 409 467 379.5 477 c 128,-1,17
 350 487 350 487 321 492.5 c 128,-1,18
 292 498 292 498 272 498 c 0,19,20
 199 498 199 498 145 465.5 c 128,-1,21
 91 433 91 433 62.5 376 c 128,-1,22
 34 319 34 319 33 244 c 0,23,24
 33 168 33 168 61 110 c 128,-1,25
 89 52 89 52 141.5 19.5 c 128,-1,26
 194 -13 194 -13 267 -13 c 0,27,28
 288 -13 288 -13 317 -7.5 c 128,-1,29
 346 -2 346 -2 375.5 8 c 128,-1,30
 405 18 405 18 426 31 c 1,31,-1
 401 87 l 1,0,1
EndSplineSet
EndChar

StartChar: d
Encoding: 100 100 37
Width: 530
Flags: W
LayerCount: 2
Fore
SplineSet
378 78 m 1,0,-1
 410 0 l 1,1,-1
 458 0 l 1,2,-1
 458 705 l 1,3,-1
 378 695 l 1,4,-1
 378 78 l 1,0,-1
401 126 m 1,5,6
 373 92 373 92 341 73 c 128,-1,7
 309 54 309 54 263 54 c 0,8,9
 213 54 213 54 179.5 78.5 c 128,-1,10
 146 103 146 103 129.5 146.5 c 128,-1,11
 113 190 113 190 113 245 c 0,12,13
 113 298 113 298 130 339.5 c 128,-1,14
 147 381 147 381 181 406 c 128,-1,15
 215 431 215 431 264 431 c 0,16,17
 312 431 312 431 343.5 412.5 c 128,-1,18
 375 394 375 394 403 363 c 1,19,-1
 427 417 l 1,20,21
 407 442 407 442 379.5 460 c 128,-1,22
 352 478 352 478 322 488 c 128,-1,23
 292 498 292 498 266 498 c 0,24,25
 194 498 194 498 141.5 465.5 c 128,-1,26
 89 433 89 433 61 376 c 128,-1,27
 33 319 33 319 33 244 c 0,28,29
 33 168 33 168 60 110 c 128,-1,30
 87 52 87 52 139 19.5 c 128,-1,31
 191 -13 191 -13 264 -13 c 0,32,33
 289 -13 289 -13 319 -4 c 128,-1,34
 349 5 349 5 377 24 c 128,-1,35
 405 43 405 43 426 69 c 1,36,-1
 401 126 l 1,5,6
EndSplineSet
EndChar

StartChar: e
Encoding: 101 101 38
Width: 499
Flags: W
LayerCount: 2
Fore
SplineSet
466 230 m 1,0,-1
 466 237 l 2,1,2
 466 310 466 310 444.5 369 c 128,-1,3
 423 428 423 428 377.5 463 c 128,-1,4
 332 498 332 498 259 498 c 0,5,6
 187 498 187 498 136.5 465.5 c 128,-1,7
 86 433 86 433 59.5 376 c 128,-1,8
 33 319 33 319 33 244 c 0,9,10
 33 168 33 168 61 110 c 128,-1,11
 89 52 89 52 145.5 20 c 128,-1,12
 202 -12 202 -12 287 -12 c 0,13,14
 323 -12 323 -12 353.5 -5.5 c 128,-1,15
 384 1 384 1 410.5 12.5 c 128,-1,16
 437 24 437 24 460 37 c 1,17,-1
 434 95 l 1,18,19
 396 76 396 76 362 64.5 c 128,-1,20
 328 53 328 53 286 53 c 0,21,22
 226 53 226 53 189 76 c 128,-1,23
 152 99 152 99 134.5 139 c 128,-1,24
 117 179 117 179 114 230 c 1,25,-1
 466 230 l 1,0,-1
116 284 m 1,26,27
 121 328 121 328 137.5 361 c 128,-1,28
 154 394 154 394 183.5 412.5 c 128,-1,29
 213 431 213 431 256 431 c 0,30,31
 298 431 298 431 325.5 412.5 c 128,-1,32
 353 394 353 394 368 361 c 128,-1,33
 383 328 383 328 388 284 c 1,34,-1
 116 284 l 1,26,27
EndSplineSet
EndChar

StartChar: f
Encoding: 102 102 39
Width: 299
Flags: W
LayerCount: 2
Fore
SplineSet
17 417 m 1,0,-1
 89 417 l 1,1,-1
 89 0 l 1,2,-1
 169 0 l 1,3,-1
 169 417 l 1,4,-1
 284 417 l 1,5,-1
 258 477 l 1,6,-1
 169 477 l 1,7,-1
 169 548 l 2,8,9
 169 584 169 584 184.5 607.5 c 128,-1,10
 200 631 200 631 237 631 c 0,11,12
 247 631 247 631 260 627.5 c 128,-1,13
 273 624 273 624 281 621 c 1,14,-1
 299 684 l 1,15,16
 292 689 292 689 280 693 c 128,-1,17
 268 697 268 697 254 699.5 c 128,-1,18
 240 702 240 702 226 702 c 0,19,20
 184 702 184 702 153 683.5 c 128,-1,21
 122 665 122 665 105.5 631.5 c 128,-1,22
 89 598 89 598 89 552 c 2,23,-1
 89 477 l 1,24,-1
 16 477 l 1,25,-1
 17 417 l 1,0,-1
EndSplineSet
EndChar

StartChar: g
Encoding: 103 103 40
Width: 526
Flags: W
LayerCount: 2
Fore
SplineSet
458 485 m 1,0,-1
 410 485 l 1,1,-1
 378 421 l 1,2,-1
 378 -52 l 2,3,4
 378 -109 378 -109 337.5 -137 c 128,-1,5
 297 -165 297 -165 236 -165 c 0,6,7
 188 -165 188 -165 156 -153.5 c 128,-1,8
 124 -142 124 -142 94 -128 c 1,9,-1
 70 -185 l 1,10,11
 86 -196 86 -196 108.5 -204 c 128,-1,12
 131 -212 131 -212 155.5 -218 c 128,-1,13
 180 -224 180 -224 202 -227 c 128,-1,14
 224 -230 224 -230 239 -230 c 0,15,16
 308 -230 308 -230 357 -206.5 c 128,-1,17
 406 -183 406 -183 432 -143 c 128,-1,18
 458 -103 458 -103 458 -52 c 2,19,-1
 458 485 l 1,0,-1
401 126 m 1,20,21
 373 92 373 92 341 73 c 128,-1,22
 309 54 309 54 263 54 c 0,23,24
 213 54 213 54 179.5 78.5 c 128,-1,25
 146 103 146 103 129.5 146.5 c 128,-1,26
 113 190 113 190 113 245 c 0,27,28
 113 298 113 298 130 339.5 c 128,-1,29
 147 381 147 381 181 406 c 128,-1,30
 215 431 215 431 264 431 c 0,31,32
 312 431 312 431 343.5 412.5 c 128,-1,33
 375 394 375 394 403 363 c 1,34,-1
 427 417 l 1,35,36
 407 442 407 442 379.5 460 c 128,-1,37
 352 478 352 478 322 488 c 128,-1,38
 292 498 292 498 266 498 c 0,39,40
 194 498 194 498 141.5 465.5 c 128,-1,41
 89 433 89 433 61 376 c 128,-1,42
 33 319 33 319 33 244 c 0,43,44
 33 168 33 168 60 110 c 128,-1,45
 87 52 87 52 139 19.5 c 128,-1,46
 191 -13 191 -13 264 -13 c 0,47,48
 289 -13 289 -13 319 -4 c 128,-1,49
 349 5 349 5 377 24 c 128,-1,50
 405 43 405 43 426 69 c 1,51,-1
 401 126 l 1,20,21
EndSplineSet
EndChar

StartChar: h
Encoding: 104 104 41
Width: 539
Flags: W
LayerCount: 2
Fore
SplineSet
151 344 m 1,0,1
 175 369 175 369 203 388.5 c 128,-1,2
 231 408 231 408 260.5 420 c 128,-1,3
 290 432 290 432 314 432 c 0,4,5
 364 432 364 432 382.5 400 c 128,-1,6
 401 368 401 368 401 318 c 2,7,-1
 401 0 l 1,8,-1
 480 0 l 1,9,-1
 480 328 l 2,10,11
 480 378 480 378 464 416.5 c 128,-1,12
 448 455 448 455 414.5 477.5 c 128,-1,13
 381 500 381 500 328 500 c 0,14,15
 296 500 296 500 262 489 c 128,-1,16
 228 478 228 478 198 459 c 128,-1,17
 168 440 168 440 145 416 c 1,18,-1
 151 344 l 1,0,1
151 0 m 1,19,-1
 151 706 l 1,20,-1
 73 695 l 1,21,-1
 73 0 l 1,22,-1
 151 0 l 1,19,-1
EndSplineSet
EndChar

StartChar: i
Encoding: 105 105 42
Width: 205
Flags: W
LayerCount: 2
Fore
SplineSet
143 0 m 1,0,-1
 143 485 l 1,1,-1
 63 485 l 1,2,-1
 63 0 l 1,3,-1
 143 0 l 1,0,-1
102 581 m 0,4,5
 124 581 124 581 140 596.5 c 128,-1,6
 156 612 156 612 156 635 c 256,7,8
 156 658 156 658 139.5 673.5 c 128,-1,9
 123 689 123 689 101 689 c 0,10,11
 78 689 78 689 63 673.5 c 128,-1,12
 48 658 48 658 48 635 c 256,13,14
 48 612 48 612 63 596.5 c 128,-1,15
 78 581 78 581 102 581 c 0,4,5
EndSplineSet
EndChar

StartChar: j
Encoding: 106 106 43
Width: 228
Flags: W
LayerCount: 2
Fore
SplineSet
114 581 m 0,0,1
 100 581 100 581 87.5 588 c 128,-1,2
 75 595 75 595 68 607.5 c 128,-1,3
 61 620 61 620 61 635 c 0,4,5
 61 657 61 657 76 673 c 128,-1,6
 91 689 91 689 114 689 c 0,7,8
 136 689 136 689 152.5 673 c 128,-1,9
 169 657 169 657 169 635 c 256,10,11
 169 613 169 613 153 597 c 128,-1,12
 137 581 137 581 114 581 c 0,0,1
155 485 m 1,13,-1
 155 -30 l 2,14,15
 155 -80 155 -80 147 -114 c 128,-1,16
 139 -148 139 -148 113 -171 c 128,-1,17
 87 -194 87 -194 31 -212 c 1,18,-1
 0 -155 l 1,19,20
 35 -142 35 -142 50.5 -127.5 c 128,-1,21
 66 -113 66 -113 71 -90 c 128,-1,22
 76 -67 76 -67 75 -30 c 2,23,-1
 75 485 l 1,24,-1
 155 485 l 1,13,-1
EndSplineSet
EndChar

StartChar: k
Encoding: 107 107 44
Width: 472
Flags: W
LayerCount: 2
Fore
SplineSet
151 0 m 1,0,-1
 151 182 l 1,1,-1
 219 249 l 1,2,-1
 379 0 l 1,3,-1
 472 0 l 1,4,-1
 272 301 l 1,5,-1
 420 447 l 1,6,-1
 372 498 l 1,7,-1
 151 277 l 1,8,-1
 151 706 l 1,9,-1
 73 695 l 1,10,-1
 73 0 l 1,11,-1
 151 0 l 1,0,-1
EndSplineSet
EndChar

StartChar: l
Encoding: 108 108 45
Width: 224
Flags: W
LayerCount: 2
Fore
SplineSet
151 0 m 1,0,-1
 151 706 l 1,1,-1
 73 695 l 1,2,-1
 73 0 l 1,3,-1
 151 0 l 1,0,-1
EndSplineSet
EndChar

StartChar: m
Encoding: 109 109 46
Width: 818
Flags: W
LayerCount: 2
Fore
SplineSet
141 0 m 1,0,-1
 141 344 l 1,1,2
 165 369 165 369 192.5 388.5 c 128,-1,3
 220 408 220 408 247 420 c 128,-1,4
 274 432 274 432 296 432 c 0,5,6
 328 432 328 432 345 417.5 c 128,-1,7
 362 403 362 403 369 377.5 c 128,-1,8
 376 352 376 352 376 318 c 2,9,-1
 376 0 l 1,10,-1
 455 0 l 1,11,-1
 455 329 l 2,12,13
 455 378 455 378 440 416.5 c 128,-1,14
 425 455 425 455 393 477.5 c 128,-1,15
 361 500 361 500 309 500 c 0,16,17
 281 500 281 500 249 489 c 128,-1,18
 217 478 217 478 187.5 459 c 128,-1,19
 158 440 158 440 135 416 c 1,20,-1
 121 485 l 1,21,-1
 63 485 l 1,22,-1
 63 0 l 1,23,-1
 141 0 l 1,0,-1
446 344 m 1,24,25
 470 369 470 369 497 388.5 c 128,-1,26
 524 408 524 408 551 420 c 128,-1,27
 578 432 578 432 601 432 c 0,28,29
 632 432 632 432 649 417.5 c 128,-1,30
 666 403 666 403 673.5 377.5 c 128,-1,31
 681 352 681 352 681 318 c 2,32,-1
 681 0 l 1,33,-1
 760 0 l 1,34,-1
 760 329 l 2,35,36
 760 378 760 378 745 416.5 c 128,-1,37
 730 455 730 455 697.5 477.5 c 128,-1,38
 665 500 665 500 614 500 c 0,39,40
 586 500 586 500 553.5 489 c 128,-1,41
 521 478 521 478 491.5 459 c 128,-1,42
 462 440 462 440 439 416 c 1,43,-1
 446 344 l 1,24,25
EndSplineSet
EndChar

StartChar: n
Encoding: 110 110 47
Width: 529
Flags: W
LayerCount: 2
Fore
SplineSet
141 0 m 1,0,-1
 141 344 l 1,1,2
 165 369 165 369 193 388.5 c 128,-1,3
 221 408 221 408 250.5 420 c 128,-1,4
 280 432 280 432 304 432 c 0,5,6
 354 432 354 432 372.5 400 c 128,-1,7
 391 368 391 368 391 318 c 2,8,-1
 391 0 l 1,9,-1
 470 0 l 1,10,-1
 470 328 l 2,11,12
 470 378 470 378 454 416.5 c 128,-1,13
 438 455 438 455 404.5 477.5 c 128,-1,14
 371 500 371 500 318 500 c 0,15,16
 286 500 286 500 252 489 c 128,-1,17
 218 478 218 478 188 459 c 128,-1,18
 158 440 158 440 135 416 c 1,19,-1
 121 485 l 1,20,-1
 63 485 l 1,21,-1
 63 0 l 1,22,-1
 141 0 l 1,0,-1
EndSplineSet
EndChar

StartChar: o
Encoding: 111 111 48
Width: 536
Flags: W
LayerCount: 2
Fore
SplineSet
264 -13 m 0,0,1
 192 -14 192 -14 140 19.5 c 128,-1,2
 88 53 88 53 60.5 110.5 c 128,-1,3
 33 168 33 168 33 244 c 0,4,5
 34 318 34 318 62.5 375 c 128,-1,6
 91 432 91 432 144.5 465 c 128,-1,7
 198 498 198 498 271 498 c 256,8,9
 344 498 344 498 396 466 c 128,-1,10
 448 434 448 434 476 377 c 128,-1,11
 504 320 504 320 504 241 c 0,12,13
 504 167 504 167 474.5 110 c 128,-1,14
 445 53 445 53 391.5 20 c 128,-1,15
 338 -13 338 -13 264 -13 c 0,0,1
266 54 m 256,16,17
 316 54 316 54 351 79 c 128,-1,18
 386 104 386 104 404.5 146 c 128,-1,19
 423 188 423 188 423 240 c 0,20,21
 423 295 423 295 405.5 338 c 128,-1,22
 388 381 388 381 354.5 406 c 128,-1,23
 321 431 321 431 270 431 c 0,24,25
 221 431 221 431 186 406 c 128,-1,26
 151 381 151 381 132.5 339 c 128,-1,27
 114 297 114 297 113 245 c 0,28,29
 113 191 113 191 130 147.5 c 128,-1,30
 147 104 147 104 181.5 79 c 128,-1,31
 216 54 216 54 266 54 c 256,16,17
EndSplineSet
EndChar

StartChar: p
Encoding: 112 112 49
Width: 524
Flags: W
LayerCount: 2
Fore
SplineSet
147 -208 m 1,0,-1
 147 422 l 1,1,-1
 116 485 l 1,2,-1
 69 485 l 1,3,-1
 69 -219 l 1,4,-1
 147 -208 l 1,0,-1
123 359 m 1,5,6
 152 393 152 393 183.5 412 c 128,-1,7
 215 431 215 431 262 431 c 0,8,9
 312 431 312 431 345.5 406.5 c 128,-1,10
 379 382 379 382 395 339 c 128,-1,11
 411 296 411 296 411 240 c 0,12,13
 411 188 411 188 394 146 c 128,-1,14
 377 104 377 104 343.5 79 c 128,-1,15
 310 54 310 54 260 54 c 0,16,17
 213 54 213 54 181 72.5 c 128,-1,18
 149 91 149 91 121 122 c 1,19,-1
 97 68 l 1,20,21
 118 43 118 43 145.5 25 c 128,-1,22
 173 7 173 7 202.5 -3 c 128,-1,23
 232 -13 232 -13 258 -13 c 0,24,25
 331 -13 331 -13 383 19.5 c 128,-1,26
 435 52 435 52 463.5 109.5 c 128,-1,27
 492 167 492 167 492 241 c 0,28,29
 492 318 492 318 465 375.5 c 128,-1,30
 438 433 438 433 386 465.5 c 128,-1,31
 334 498 334 498 261 498 c 0,32,33
 236 498 236 498 206 489 c 128,-1,34
 176 480 176 480 148 461.5 c 128,-1,35
 120 443 120 443 99 416 c 1,36,-1
 123 359 l 1,5,6
EndSplineSet
EndChar

StartChar: q
Encoding: 113 113 50
Width: 526
Flags: W
LayerCount: 2
Fore
SplineSet
410 485 m 1,0,-1
 378 424 l 1,1,-1
 378 -219 l 1,2,-1
 458 -209 l 1,3,-1
 458 485 l 1,4,-1
 410 485 l 1,0,-1
401 126 m 1,5,6
 373 92 373 92 341 73 c 128,-1,7
 309 54 309 54 263 54 c 0,8,9
 213 54 213 54 179.5 78.5 c 128,-1,10
 146 103 146 103 129.5 146.5 c 128,-1,11
 113 190 113 190 113 245 c 0,12,13
 113 298 113 298 130 339.5 c 128,-1,14
 147 381 147 381 181 406 c 128,-1,15
 215 431 215 431 264 431 c 0,16,17
 312 431 312 431 343.5 412.5 c 128,-1,18
 375 394 375 394 403 363 c 1,19,-1
 427 417 l 1,20,21
 407 442 407 442 379.5 460 c 128,-1,22
 352 478 352 478 322 488 c 128,-1,23
 292 498 292 498 266 498 c 0,24,25
 194 498 194 498 141.5 465.5 c 128,-1,26
 89 433 89 433 61 376 c 128,-1,27
 33 319 33 319 33 244 c 0,28,29
 33 168 33 168 60 110 c 128,-1,30
 87 52 87 52 139 19.5 c 128,-1,31
 191 -13 191 -13 264 -13 c 0,32,33
 289 -13 289 -13 319 -4 c 128,-1,34
 349 5 349 5 377 24 c 128,-1,35
 405 43 405 43 426 69 c 1,36,-1
 401 126 l 1,5,6
EndSplineSet
EndChar

StartChar: r
Encoding: 114 114 51
Width: 324
Flags: W
LayerCount: 2
Fore
SplineSet
141 0 m 1,0,-1
 141 334 l 1,1,2
 163 356 163 356 192 376 c 128,-1,3
 221 396 221 396 253.5 409 c 128,-1,4
 286 422 286 422 314 422 c 1,5,-1
 295 485 l 1,6,7
 269 485 269 485 238.5 472 c 128,-1,8
 208 459 208 459 180.5 440.5 c 128,-1,9
 153 422 153 422 134 407 c 1,10,-1
 110 485 l 1,11,-1
 63 485 l 1,12,-1
 63 0 l 1,13,-1
 141 0 l 1,0,-1
EndSplineSet
EndChar

StartChar: s
Encoding: 115 115 52
Width: 420
Flags: W
LayerCount: 2
Fore
SplineSet
38 28 m 1,0,1
 58 15 58 15 86 6 c 128,-1,2
 114 -3 114 -3 143.5 -8 c 128,-1,3
 173 -13 173 -13 193 -13 c 0,4,5
 288 -13 288 -13 337.5 24.5 c 128,-1,6
 387 62 387 62 387 128 c 0,7,8
 387 168 387 168 363 197 c 128,-1,9
 339 226 339 226 302 247 c 128,-1,10
 265 268 265 268 225 281 c 0,11,12
 177 297 177 297 145 316.5 c 128,-1,13
 113 336 113 336 112 363 c 0,14,15
 112 394 112 394 140.5 414 c 128,-1,16
 169 434 169 434 214 434 c 0,17,18
 256 434 256 434 287 423 c 128,-1,19
 318 412 318 412 342 400 c 1,20,-1
 367 455 l 1,21,22
 349 468 349 468 321 477.5 c 128,-1,23
 293 487 293 487 264.5 492.5 c 128,-1,24
 236 498 236 498 215 498 c 0,25,26
 132 498 132 498 83 461.5 c 128,-1,27
 34 425 34 425 34 360 c 0,28,29
 34 322 34 322 58 294.5 c 128,-1,30
 82 267 82 267 118.5 248.5 c 128,-1,31
 155 230 155 230 193 217 c 0,32,33
 226 206 226 206 253 192.5 c 128,-1,34
 280 179 280 179 296.5 162 c 128,-1,35
 313 145 313 145 313 123 c 256,36,37
 313 101 313 101 298 84.5 c 128,-1,38
 283 68 283 68 256.5 59.5 c 128,-1,39
 230 51 230 51 194 51 c 0,40,41
 171 51 171 51 148 55.5 c 128,-1,42
 125 60 125 60 103.5 67.5 c 128,-1,43
 82 75 82 75 62 84 c 1,44,-1
 38 28 l 1,0,1
EndSplineSet
EndChar

StartChar: t
Encoding: 116 116 53
Width: 320
Flags: W
LayerCount: 2
Fore
SplineSet
254 477 m 1,0,-1
 166 477 l 1,1,-1
 166 622 l 1,2,-1
 86 600 l 1,3,-1
 86 477 l 1,4,-1
 16 477 l 1,5,-1
 17 417 l 1,6,-1
 86 417 l 1,7,-1
 86 126 l 2,8,9
 86 80 86 80 103 49 c 128,-1,10
 120 18 120 18 151 1.5 c 128,-1,11
 182 -15 182 -15 223 -15 c 0,12,13
 237 -15 237 -15 251 -12.5 c 128,-1,14
 265 -10 265 -10 277 -6 c 128,-1,15
 289 -2 289 -2 297 2 c 1,16,-1
 278 64 l 1,17,18
 271 61 271 61 258.5 57.5 c 128,-1,19
 246 54 246 54 234 54 c 0,20,21
 198 54 198 54 182 77 c 128,-1,22
 166 100 166 100 166 137 c 2,23,-1
 166 417 l 1,24,-1
 279 417 l 1,25,-1
 254 477 l 1,0,-1
EndSplineSet
EndChar

StartChar: u
Encoding: 117 117 54
Width: 529
Flags: W
LayerCount: 2
Fore
SplineSet
387 485 m 1,0,-1
 387 142 l 1,1,2
 365 118 365 118 336 97.5 c 128,-1,3
 307 77 307 77 278.5 65.5 c 128,-1,4
 250 54 250 54 224 54 c 0,5,6
 175 54 175 54 156 86 c 128,-1,7
 137 118 137 118 137 168 c 2,8,-1
 137 485 l 1,9,-1
 59 485 l 1,10,-1
 59 157 l 2,11,12
 59 108 59 108 74.5 69 c 128,-1,13
 90 30 90 30 124 8 c 128,-1,14
 158 -14 158 -14 211 -14 c 0,15,16
 243 -14 243 -14 276.5 -3 c 128,-1,17
 310 8 310 8 340.5 27.5 c 128,-1,18
 371 47 371 47 393 70 c 1,19,-1
 407 0 l 1,20,-1
 466 0 l 1,21,-1
 466 485 l 1,22,-1
 387 485 l 1,0,-1
EndSplineSet
EndChar

StartChar: v
Encoding: 118 118 55
Width: 455
Flags: W
LayerCount: 2
Fore
SplineSet
265 0 m 1,0,-1
 445 485 l 1,1,-1
 366 485 l 1,2,-1
 227 107 l 1,3,-1
 82 501 l 1,4,-1
 10 470 l 1,5,-1
 188 0 l 1,6,-1
 265 0 l 1,0,-1
EndSplineSet
EndChar

StartChar: w
Encoding: 119 119 56
Width: 672
Flags: W
LayerCount: 2
Fore
SplineSet
518 0 m 1,0,-1
 662 485 l 1,1,-1
 582 485 l 1,2,-1
 480 113 l 1,3,-1
 372 485 l 1,4,-1
 292 485 l 1,5,-1
 190 113 l 1,6,-1
 82 500 l 1,7,-1
 10 469 l 1,8,-1
 150 0 l 1,9,-1
 228 0 l 1,10,-1
 331 369 l 1,11,-1
 441 0 l 1,12,-1
 518 0 l 1,0,-1
EndSplineSet
EndChar

StartChar: x
Encoding: 120 120 57
Width: 450
Flags: W
LayerCount: 2
Fore
SplineSet
99 0 m 1,0,-1
 217 187 l 1,1,-1
 338 0 l 1,2,-1
 425 0 l 1,3,-1
 273 232 l 1,4,-1
 440 485 l 1,5,-1
 353 485 l 1,6,-1
 229 292 l 1,7,-1
 97 498 l 1,8,-1
 27 469 l 1,9,-1
 173 246 l 1,10,-1
 10 0 l 1,11,-1
 99 0 l 1,0,-1
EndSplineSet
EndChar

StartChar: y
Encoding: 121 121 58
Width: 455
Flags: W
LayerCount: 2
Fore
SplineSet
159 -79 m 2,0,1
 151 -101 151 -101 136 -116 c 128,-1,2
 121 -131 121 -131 101 -141.5 c 128,-1,3
 81 -152 81 -152 57 -163 c 1,4,-1
 81 -220 l 1,5,6
 116 -212 116 -212 146 -195.5 c 128,-1,7
 176 -179 176 -179 198.5 -154.5 c 128,-1,8
 221 -130 221 -130 232 -100 c 2,9,-1
 445 485 l 1,10,-1
 366 485 l 1,11,-1
 227 110 l 1,12,-1
 80 500 l 1,13,-1
 10 470 l 1,14,-1
 190 3 l 1,15,-1
 159 -79 l 2,0,1
EndSplineSet
EndChar

StartChar: z
Encoding: 122 122 59
Width: 433
Flags: W
LayerCount: 2
Fore
SplineSet
407 485 m 1,0,-1
 45 485 l 1,1,-1
 64 422 l 1,2,-1
 310 422 l 1,3,-1
 21 41 l 1,4,-1
 31 0 l 1,5,-1
 409 0 l 1,6,-1
 399 62 l 1,7,-1
 118 62 l 1,8,-1
 411 442 l 1,9,-1
 407 485 l 1,0,-1
EndSplineSet
EndChar

StartChar: zero
Encoding: 48 48 62
Width: 592
Flags: W
LayerCount: 2
Fore
SplineSet
33 287 m 0,0,1
 33 200 33 200 67 132 c 128,-1,2
 101 64 101 64 160.5 25.5 c 128,-1,3
 220 -13 220 -13 297 -13 c 0,4,5
 373 -13 373 -13 433 26 c 128,-1,6
 493 65 493 65 526.5 133 c 128,-1,7
 560 201 560 201 560 289 c 0,8,9
 560 373 560 373 526.5 438.5 c 128,-1,10
 493 504 493 504 433.5 541.5 c 128,-1,11
 374 579 374 579 297 579 c 256,12,13
 220 579 220 579 160.5 541 c 128,-1,14
 101 503 101 503 67 437.5 c 128,-1,15
 33 372 33 372 33 287 c 0,0,1
111 290 m 0,16,17
 111 355 111 355 135 404.5 c 128,-1,18
 159 454 159 454 201 483 c 128,-1,19
 243 512 243 512 297 512 c 256,20,21
 351 512 351 512 392.5 482.5 c 128,-1,22
 434 453 434 453 458 402 c 128,-1,23
 482 351 482 351 482 285 c 0,24,25
 482 218 482 218 458 166 c 128,-1,26
 434 114 434 114 392.5 84.5 c 128,-1,27
 351 55 351 55 297 55 c 256,28,29
 243 55 243 55 201 85.5 c 128,-1,30
 159 116 159 116 135 169 c 128,-1,31
 111 222 111 222 111 290 c 0,16,17
EndSplineSet
EndChar

StartChar: one
Encoding: 49 49 63
Width: 312
Flags: W
LayerCount: 2
Fore
SplineSet
239 0 m 1,0,-1
 239 566 l 1,1,-1
 186 566 l 1,2,-1
 10 483 l 1,3,-1
 45 420 l 1,4,-1
 160 474 l 1,5,-1
 160 0 l 1,6,-1
 239 0 l 1,0,-1
EndSplineSet
EndChar

StartChar: two
Encoding: 50 50 64
Width: 479
Flags: W
LayerCount: 2
Fore
SplineSet
219 579 m 0,0,1
 153 579 153 579 109.5 561.5 c 128,-1,2
 66 544 66 544 38 527 c 1,3,-1
 61 463 l 1,4,5
 79 473 79 473 101.5 485 c 128,-1,6
 124 497 124 497 153 505.5 c 128,-1,7
 182 514 182 514 218 514 c 0,8,9
 278 514 278 514 314.5 487.5 c 128,-1,10
 351 461 351 461 351 410 c 0,11,12
 351 381 351 381 338.5 355 c 128,-1,13
 326 329 326 329 301 302 c 128,-1,14
 276 275 276 275 236 241 c 2,15,-1
 25 57 l 1,16,-1
 25 0 l 1,17,-1
 459 0 l 1,18,-1
 446 62 l 1,19,-1
 130 62 l 1,20,-1
 279 187 l 2,21,22
 333 233 333 233 365.5 271 c 128,-1,23
 398 309 398 309 413 345 c 128,-1,24
 428 381 428 381 428 418 c 0,25,26
 428 468 428 468 402 504 c 128,-1,27
 376 540 376 540 329.5 559.5 c 128,-1,28
 283 579 283 579 219 579 c 0,0,1
EndSplineSet
EndChar

StartChar: three
Encoding: 51 51 65
Width: 463
Flags: W
LayerCount: 2
Fore
SplineSet
212 579 m 0,0,1
 152 579 152 579 103 561 c 128,-1,2
 54 543 54 543 13 517 c 1,3,-1
 52 464 l 1,4,5
 76 481 76 481 116.5 497.5 c 128,-1,6
 157 514 157 514 209 514 c 0,7,8
 248 514 248 514 276 500 c 128,-1,9
 304 486 304 486 319.5 463 c 128,-1,10
 335 440 335 440 335 412 c 0,11,12
 335 361 335 361 290.5 329 c 128,-1,13
 246 297 246 297 168 297 c 2,14,-1
 125 297 l 1,15,-1
 138 238 l 1,16,-1
 162 238 l 2,17,18
 260 238 260 238 303.5 202.5 c 128,-1,19
 347 167 347 167 347 108 c 0,20,21
 347 71 347 71 325.5 44 c 128,-1,22
 304 17 304 17 270.5 3 c 128,-1,23
 237 -11 237 -11 200 -11 c 0,24,25
 148 -11 148 -11 112.5 0.5 c 128,-1,26
 77 12 77 12 41 34 c 1,27,-1
 0 -21 l 1,28,29
 37 -41 37 -41 89 -58.5 c 128,-1,30
 141 -76 141 -76 197 -76 c 0,31,32
 267 -76 267 -76 318 -51.5 c 128,-1,33
 369 -27 369 -27 397.5 15 c 128,-1,34
 426 57 426 57 426 110 c 0,35,36
 426 151 426 151 410 184.5 c 128,-1,37
 394 218 394 218 367.5 240 c 128,-1,38
 341 262 341 262 308 269 c 1,39,40
 337 279 337 279 360.5 300 c 128,-1,41
 384 321 384 321 399 350 c 128,-1,42
 414 379 414 379 414 414 c 0,43,44
 414 457 414 457 391.5 494.5 c 128,-1,45
 369 532 369 532 324 555.5 c 128,-1,46
 279 579 279 579 212 579 c 0,0,1
EndSplineSet
EndChar

StartChar: four
Encoding: 52 52 66
Width: 524
Flags: W
LayerCount: 2
Fore
SplineSet
504 135 m 1,0,-1
 400 135 l 1,1,-1
 400 571 l 1,2,-1
 344 571 l 1,3,-1
 10 135 l 1,4,-1
 21 70 l 1,5,-1
 320 70 l 1,6,-1
 320 -69 l 1,7,-1
 400 -69 l 1,8,-1
 400 70 l 1,9,-1
 495 70 l 1,10,-1
 504 135 l 1,0,-1
320 432 m 1,11,-1
 320 135 l 1,12,-1
 95 135 l 1,13,-1
 320 432 l 1,11,-1
EndSplineSet
EndChar

StartChar: five
Encoding: 53 53 67
Width: 496
Flags: W
LayerCount: 2
Fore
SplineSet
144 224 m 1,0,1
 157 237 157 237 186.5 254.5 c 128,-1,2
 216 272 216 272 255 272 c 0,3,4
 312 272 312 272 348 236 c 128,-1,5
 384 200 384 200 384 134 c 0,6,7
 384 67 384 67 342 28.5 c 128,-1,8
 300 -10 300 -10 232 -10 c 0,9,10
 180 -10 180 -10 144.5 1.5 c 128,-1,11
 109 13 109 13 73 34 c 1,12,-1
 33 -21 l 1,13,14
 58 -34 58 -34 89.5 -47 c 128,-1,15
 121 -60 121 -60 156.5 -68 c 128,-1,16
 192 -76 192 -76 228 -76 c 0,17,18
 304 -76 304 -76 356 -47.5 c 128,-1,19
 408 -19 408 -19 435.5 29 c 128,-1,20
 463 77 463 77 463 134 c 0,21,22
 463 189 463 189 440.5 235 c 128,-1,23
 418 281 418 281 371.5 309 c 128,-1,24
 325 337 325 337 251 337 c 0,25,26
 225 337 225 337 198 328.5 c 128,-1,27
 171 320 171 320 147 305 c 1,28,-1
 156 500 l 1,29,-1
 416 500 l 1,30,-1
 425 566 l 1,31,-1
 84 566 l 1,32,-1
 68 224 l 1,33,-1
 144 224 l 1,0,1
EndSplineSet
EndChar

StartChar: six
Encoding: 54 54 68
Width: 511
Flags: W
LayerCount: 2
Fore
SplineSet
69 285 m 1,0,-1
 90 228 l 1,1,2
 110 252 110 252 136.5 274 c 128,-1,3
 163 296 163 296 195.5 309.5 c 128,-1,4
 228 323 228 323 263 323 c 0,5,6
 307 323 307 323 338 306 c 128,-1,7
 369 289 369 289 386 257.5 c 128,-1,8
 403 226 403 226 403 185 c 0,9,10
 403 149 403 149 386 119.5 c 128,-1,11
 369 90 369 90 338 71.5 c 128,-1,12
 307 53 307 53 263 53 c 0,13,14
 217 53 217 53 182.5 77 c 128,-1,15
 148 101 148 101 129 148 c 128,-1,16
 110 195 110 195 110 265 c 0,17,18
 110 323 110 323 128.5 369 c 128,-1,19
 147 415 147 415 178 451.5 c 128,-1,20
 209 488 209 488 248.5 512.5 c 128,-1,21
 288 537 288 537 329.5 552.5 c 128,-1,22
 371 568 371 568 410 572 c 1,23,-1
 392 634 l 1,24,25
 344 628 344 628 293.5 609 c 128,-1,26
 243 590 243 590 196.5 558 c 128,-1,27
 150 526 150 526 112.5 482 c 128,-1,28
 75 438 75 438 54 381.5 c 128,-1,29
 33 325 33 325 33 256 c 0,30,31
 33 169 33 169 63.5 109 c 128,-1,32
 94 49 94 49 147 18 c 128,-1,33
 200 -13 200 -13 266 -13 c 0,34,35
 327 -13 327 -13 375.5 13.5 c 128,-1,36
 424 40 424 40 451 86 c 128,-1,37
 478 132 478 132 478 190 c 0,38,39
 478 245 478 245 453 289.5 c 128,-1,40
 428 334 428 334 380 360.5 c 128,-1,41
 332 387 332 387 264 387 c 0,42,43
 218 387 218 387 182.5 371 c 128,-1,44
 147 355 147 355 119 332 c 128,-1,45
 91 309 91 309 69 285 c 1,0,-1
EndSplineSet
EndChar

StartChar: seven
Encoding: 55 55 69
Width: 440
Flags: W
LayerCount: 2
Fore
SplineSet
199 -69 m 1,0,-1
 420 531 l 1,1,-1
 394 566 l 1,2,-1
 10 566 l 1,3,-1
 20 500 l 1,4,-1
 332 500 l 1,5,-1
 124 -45 l 1,6,-1
 199 -69 l 1,0,-1
EndSplineSet
EndChar

StartChar: eight
Encoding: 56 56 70
Width: 516
Flags: W
LayerCount: 2
Fore
SplineSet
258 643 m 0,0,1
 194 643 194 643 150 619.5 c 128,-1,2
 106 596 106 596 83 558.5 c 128,-1,3
 60 521 60 521 60 477 c 0,4,5
 60 429 60 429 89.5 393 c 128,-1,6
 119 357 119 357 163 339 c 1,7,8
 128 331 128 331 98.5 305 c 128,-1,9
 69 279 69 279 51 244 c 128,-1,10
 33 209 33 209 33 173 c 0,11,12
 33 122 33 122 58.5 80 c 128,-1,13
 84 38 84 38 135 12.5 c 128,-1,14
 186 -13 186 -13 258 -13 c 0,15,16
 332 -13 332 -13 382 13 c 128,-1,17
 432 39 432 39 458 81 c 128,-1,18
 484 123 484 123 484 173 c 0,19,20
 484 213 484 213 465.5 248 c 128,-1,21
 447 283 447 283 417.5 307 c 128,-1,22
 388 331 388 331 354 339 c 1,23,24
 380 351 380 351 403.5 371 c 128,-1,25
 427 391 427 391 442 418 c 128,-1,26
 457 445 457 445 457 477 c 0,27,28
 457 521 457 521 434 559 c 128,-1,29
 411 597 411 597 367 620 c 128,-1,30
 323 643 323 643 258 643 c 0,0,1
256 579 m 0,31,32
 318 579 318 579 349 548.5 c 128,-1,33
 380 518 380 518 380 476 c 0,34,35
 380 451 380 451 366 427.5 c 128,-1,36
 352 404 352 404 324.5 388 c 128,-1,37
 297 372 297 372 258 366 c 1,38,39
 199 375 199 375 167.5 406 c 128,-1,40
 136 437 136 437 136 476 c 0,41,42
 136 503 136 503 149.5 526.5 c 128,-1,43
 163 550 163 550 190 564.5 c 128,-1,44
 217 579 217 579 256 579 c 0,31,32
258 309 m 1,45,46
 332 299 332 299 369 260.5 c 128,-1,47
 406 222 406 222 406 171 c 0,48,49
 406 135 406 135 386 108 c 128,-1,50
 366 81 366 81 332 66.5 c 128,-1,51
 298 52 298 52 258 52 c 0,52,53
 217 52 217 52 183 67 c 128,-1,54
 149 82 149 82 129 108.5 c 128,-1,55
 109 135 109 135 109 171 c 0,56,57
 109 222 109 222 146.5 260.5 c 128,-1,58
 184 299 184 299 258 309 c 1,45,46
EndSplineSet
EndChar

StartChar: nine
Encoding: 57 57 71
Width: 511
Flags: W
LayerCount: 2
Fore
SplineSet
441 281 m 1,0,-1
 420 338 l 1,1,2
 402 314 402 314 375 292 c 128,-1,3
 348 270 348 270 315.5 256.5 c 128,-1,4
 283 243 283 243 248 243 c 0,5,6
 205 243 205 243 173 260.5 c 128,-1,7
 141 278 141 278 124 309 c 128,-1,8
 107 340 107 340 107 381 c 0,9,10
 107 417 107 417 124 447 c 128,-1,11
 141 477 141 477 173 495 c 128,-1,12
 205 513 205 513 247 513 c 0,13,14
 294 513 294 513 329 489 c 128,-1,15
 364 465 364 465 382.5 418 c 128,-1,16
 401 371 401 371 401 300 c 0,17,18
 401 243 401 243 382.5 197 c 128,-1,19
 364 151 364 151 333 114.5 c 128,-1,20
 302 78 302 78 262.5 53 c 128,-1,21
 223 28 223 28 181 13.5 c 128,-1,22
 139 -1 139 -1 100 -6 c 1,23,-1
 118 -68 l 1,24,25
 166 -62 166 -62 217 -43 c 128,-1,26
 268 -24 268 -24 314.5 7.5 c 128,-1,27
 361 39 361 39 398.5 83.5 c 128,-1,28
 436 128 436 128 457 184.5 c 128,-1,29
 478 241 478 241 478 310 c 0,30,31
 478 398 478 398 447.5 457.5 c 128,-1,32
 417 517 417 517 364 548 c 128,-1,33
 311 579 311 579 244 579 c 0,34,35
 184 579 184 579 136 552.5 c 128,-1,36
 88 526 88 526 60.5 480.5 c 128,-1,37
 33 435 33 435 33 376 c 0,38,39
 33 322 33 322 58.5 277 c 128,-1,40
 84 232 84 232 132 205.5 c 128,-1,41
 180 179 180 179 246 179 c 0,42,43
 294 179 294 179 329.5 195 c 128,-1,44
 365 211 365 211 392 234.5 c 128,-1,45
 419 258 419 258 441 281 c 1,0,-1
EndSplineSet
EndChar

StartChar: grave
Encoding: 96 96 72
Width: 160
Flags: W
LayerCount: 2
Fore
SplineSet
98 589 m 1,0,-1
 150 604 l 1,1,-1
 97 745 l 1,2,-1
 10 745 l 1,3,-1
 98 589 l 1,0,-1
EndSplineSet
EndChar

StartChar: dieresis
Encoding: 168 168 73
Width: 283
Flags: W
LayerCount: 2
Fore
SplineSet
59 614 m 0,0,1
 80 614 80 614 94 628 c 128,-1,2
 108 642 108 642 108 663 c 0,3,4
 108 682 108 682 94 696.5 c 128,-1,5
 80 711 80 711 59 711 c 0,6,7
 39 711 39 711 24.5 696.5 c 128,-1,8
 10 682 10 682 10 663 c 0,9,10
 10 642 10 642 24.5 628 c 128,-1,11
 39 614 39 614 59 614 c 0,0,1
224 614 m 0,12,13
 245 614 245 614 259 628 c 128,-1,14
 273 642 273 642 273 663 c 0,15,16
 273 682 273 682 259 696.5 c 128,-1,17
 245 711 245 711 224 711 c 0,18,19
 204 711 204 711 189.5 696.5 c 128,-1,20
 175 682 175 682 175 663 c 0,21,22
 175 642 175 642 189.5 628 c 128,-1,23
 204 614 204 614 224 614 c 0,12,13
EndSplineSet
EndChar

StartChar: macron
Encoding: 175 175 74
Width: 266
Flags: W
LayerCount: 2
Fore
SplineSet
10 633 m 1,0,-1
 256 633 l 1,1,-1
 249 695 l 1,2,-1
 10 695 l 1,3,-1
 10 633 l 1,0,-1
EndSplineSet
EndChar

StartChar: acute
Encoding: 180 180 75
Width: 160
Flags: W
LayerCount: 2
Fore
SplineSet
63 589 m 1,0,-1
 150 745 l 1,1,-1
 64 745 l 1,2,-1
 10 604 l 1,3,-1
 63 589 l 1,0,-1
EndSplineSet
EndChar

StartChar: circumflex
Encoding: 710 710 76
Width: 312
Flags: W
LayerCount: 2
Fore
SplineSet
156 687 m 1,0,-1
 230 589 l 1,1,-1
 302 599 l 1,2,-1
 187 745 l 1,3,-1
 124 745 l 1,4,-1
 10 599 l 1,5,-1
 81 589 l 1,6,-1
 156 687 l 1,0,-1
EndSplineSet
EndChar

StartChar: caron
Encoding: 711 711 77
Width: 312
Flags: W
LayerCount: 2
Fore
SplineSet
156 647 m 1,0,-1
 82 745 l 1,1,-1
 10 735 l 1,2,-1
 126 589 l 1,3,-1
 189 589 l 1,4,-1
 302 734 l 1,5,-1
 231 745 l 1,6,-1
 156 647 l 1,0,-1
EndSplineSet
EndChar

StartChar: breve
Encoding: 728 728 78
Width: 289
Flags: W
LayerCount: 2
Fore
SplineSet
221 737 m 1,0,1
 221 709 221 709 201.5 683 c 128,-1,2
 182 657 182 657 144 657 c 0,3,4
 105 657 105 657 85.5 683 c 128,-1,5
 66 709 66 709 66 737 c 1,6,-1
 10 737 l 1,7,8
 10 701 10 701 24 669.5 c 128,-1,9
 38 638 38 638 67.5 618.5 c 128,-1,10
 97 599 97 599 144 598 c 0,11,12
 191 599 191 599 221 618.5 c 128,-1,13
 251 638 251 638 265 669.5 c 128,-1,14
 279 701 279 701 279 737 c 1,15,-1
 221 737 l 1,0,1
EndSplineSet
EndChar

StartChar: dotaccent
Encoding: 729 729 79
Width: 127
Flags: W
LayerCount: 2
Fore
SplineSet
65 612 m 0,0,1
 87 612 87 612 102 627.5 c 128,-1,2
 117 643 117 643 117 666 c 0,3,4
 117 688 117 688 102 704.5 c 128,-1,5
 87 721 87 721 65 721 c 0,6,7
 42 721 42 721 26 704.5 c 128,-1,8
 10 688 10 688 10 666 c 256,9,10
 10 644 10 644 26 628 c 128,-1,11
 42 612 42 612 65 612 c 0,0,1
EndSplineSet
EndChar

StartChar: ring
Encoding: 730 730 80
Width: 206
Flags: W
LayerCount: 2
Fore
SplineSet
104 768 m 256,0,1
 79 768 79 768 57.5 756.5 c 128,-1,2
 36 745 36 745 23 724.5 c 128,-1,3
 10 704 10 704 10 679 c 0,4,5
 10 642 10 642 38 618 c 128,-1,6
 66 594 66 594 103 594 c 0,7,8
 129 594 129 594 150 605 c 128,-1,9
 171 616 171 616 183.5 635.5 c 128,-1,10
 196 655 196 655 196 679 c 0,11,12
 196 704 196 704 183.5 724.5 c 128,-1,13
 171 745 171 745 150 756.5 c 128,-1,14
 129 768 129 768 104 768 c 256,0,1
104 638 m 0,15,16
 86 638 86 638 73.5 650 c 128,-1,17
 61 662 61 662 61 679 c 0,18,19
 61 697 61 697 73.5 709.5 c 128,-1,20
 86 722 86 722 104 722 c 0,21,22
 121 722 121 722 133.5 710 c 128,-1,23
 146 698 146 698 146 679 c 0,24,25
 146 662 146 662 133.5 650 c 128,-1,26
 121 638 121 638 104 638 c 0,15,16
EndSplineSet
EndChar

StartChar: tilde
Encoding: 732 732 81
Width: 314
Flags: W
LayerCount: 2
Fore
SplineSet
247 703 m 1,0,1
 245 683 245 683 235 673 c 128,-1,2
 225 663 225 663 212 663 c 256,3,4
 199 663 199 663 186.5 669 c 128,-1,5
 174 675 174 675 163 685 c 0,6,7
 152 697 152 697 136 702 c 128,-1,8
 120 707 120 707 99 707 c 0,9,10
 75 707 75 707 55 698.5 c 128,-1,11
 35 690 35 690 22.5 668.5 c 128,-1,12
 10 647 10 647 10 609 c 1,13,-1
 65 609 l 1,14,15
 67 628 67 628 78 638.5 c 128,-1,16
 89 649 89 649 102 649 c 256,17,18
 115 649 115 649 127.5 643.5 c 128,-1,19
 140 638 140 638 153 627 c 0,20,21
 165 616 165 616 180 610 c 128,-1,22
 195 604 195 604 212 604 c 0,23,24
 237 604 237 604 257.5 613.5 c 128,-1,25
 278 623 278 623 289.5 644.5 c 128,-1,26
 301 666 301 666 301 703 c 1,27,-1
 247 703 l 1,0,1
EndSplineSet
EndChar

StartChar: hungarumlaut
Encoding: 733 733 82
Width: 314
Flags: W
LayerCount: 2
Fore
SplineSet
63 589 m 1,0,-1
 150 745 l 1,1,-1
 64 745 l 1,2,-1
 10 604 l 1,3,-1
 63 589 l 1,0,-1
216 589 m 1,4,-1
 304 745 l 1,5,-1
 217 745 l 1,6,-1
 163 604 l 1,7,-1
 216 589 l 1,4,-1
EndSplineSet
EndChar

StartChar: ogonek
Encoding: 731 731 83
Width: 213
Flags: W
LayerCount: 2
Fore
SplineSet
67 4 m 1,0,1
 51 -9 51 -9 38 -28.5 c 128,-1,2
 25 -48 25 -48 17.5 -68 c 128,-1,3
 10 -88 10 -88 10 -107 c 0,4,5
 10 -136 10 -136 24 -158.5 c 128,-1,6
 38 -181 38 -181 62 -194 c 128,-1,7
 86 -207 86 -207 117 -207 c 0,8,9
 143 -207 143 -207 165 -199 c 128,-1,10
 187 -191 187 -191 203 -176 c 1,11,-1
 177 -128 l 1,12,13
 165 -138 165 -138 152 -143 c 128,-1,14
 139 -148 139 -148 125 -148 c 0,15,16
 107 -148 107 -148 93 -137.5 c 128,-1,17
 79 -127 79 -127 79 -101 c 0,18,19
 79 -84 79 -84 87.5 -64.5 c 128,-1,20
 96 -45 96 -45 109.5 -27 c 128,-1,21
 123 -9 123 -9 138 2 c 1,22,-1
 67 4 l 1,0,1
EndSplineSet
EndChar

StartChar: cedilla
Encoding: 184 184 84
Width: 215
Flags: W
LayerCount: 2
Fore
SplineSet
51 -79 m 1,0,1
 77 -82 77 -82 97 -89.5 c 128,-1,2
 117 -97 117 -97 129 -107.5 c 128,-1,3
 141 -118 141 -118 141 -131 c 0,4,5
 141 -148 141 -148 124 -156.5 c 128,-1,6
 107 -165 107 -165 89 -165 c 0,7,8
 74 -165 74 -165 56.5 -159.5 c 128,-1,9
 39 -154 39 -154 29 -150 c 1,10,-1
 10 -200 l 1,11,12
 24 -209 24 -209 47 -215 c 128,-1,13
 70 -221 70 -221 89 -221 c 0,14,15
 119 -221 119 -221 145.5 -211 c 128,-1,16
 172 -201 172 -201 188.5 -180 c 128,-1,17
 205 -159 205 -159 205 -129 c 0,18,19
 205 -111 205 -111 194.5 -93.5 c 128,-1,20
 184 -76 184 -76 166.5 -63.5 c 128,-1,21
 149 -51 149 -51 127 -48 c 1,22,-1
 151 13 l 1,23,-1
 88 13 l 1,24,-1
 51 -79 l 1,0,1
EndSplineSet
EndChar

StartChar: commaaccent
Encoding: 63171 63171 85
Width: 0
Flags: W
LayerCount: 2
Fore
SplineSet
74 -21 m 0,0,1
 60 -21 60 -21 47.5 -29 c 128,-1,2
 35 -37 35 -37 27.5 -48.5 c 128,-1,3
 20 -60 20 -60 20 -76 c 0,4,5
 20 -95 20 -95 33.5 -111.5 c 128,-1,6
 47 -128 47 -128 66 -129 c 1,7,8
 63 -154 63 -154 47 -171.5 c 128,-1,9
 31 -189 31 -189 10 -202 c 1,10,-1
 31 -240 l 1,11,12
 58 -227 58 -227 80 -202.5 c 128,-1,13
 102 -178 102 -178 115 -147 c 128,-1,14
 128 -116 128 -116 128 -84 c 0,15,16
 128 -55 128 -55 112 -38 c 128,-1,17
 96 -21 96 -21 74 -21 c 0,0,1
EndSplineSet
EndChar

StartChar: grave.case
Encoding: 65537 -1 86
Width: 160
Flags: W
LayerCount: 2
Fore
SplineSet
98 739 m 1,0,-1
 150 754 l 1,1,-1
 97 895 l 1,2,-1
 10 895 l 1,3,-1
 98 739 l 1,0,-1
EndSplineSet
EndChar

StartChar: dieresis.case
Encoding: 65538 -1 87
Width: 283
Flags: W
LayerCount: 2
Fore
SplineSet
59 764 m 0,0,1
 80 764 80 764 94 778 c 128,-1,2
 108 792 108 792 108 813 c 0,3,4
 108 832 108 832 94 846.5 c 128,-1,5
 80 861 80 861 59 861 c 0,6,7
 39 861 39 861 24.5 846.5 c 128,-1,8
 10 832 10 832 10 813 c 0,9,10
 10 792 10 792 24.5 778 c 128,-1,11
 39 764 39 764 59 764 c 0,0,1
224 764 m 0,12,13
 245 764 245 764 259 778 c 128,-1,14
 273 792 273 792 273 813 c 0,15,16
 273 832 273 832 259 846.5 c 128,-1,17
 245 861 245 861 224 861 c 0,18,19
 204 861 204 861 189.5 846.5 c 128,-1,20
 175 832 175 832 175 813 c 0,21,22
 175 792 175 792 189.5 778 c 128,-1,23
 204 764 204 764 224 764 c 0,12,13
EndSplineSet
EndChar

StartChar: macron.case
Encoding: 65539 -1 88
Width: 266
Flags: W
LayerCount: 2
Fore
SplineSet
10 783 m 1,0,-1
 256 783 l 1,1,-1
 248 845 l 1,2,-1
 10 845 l 1,3,-1
 10 783 l 1,0,-1
EndSplineSet
EndChar

StartChar: acute.case
Encoding: 65540 -1 89
Width: 160
Flags: W
LayerCount: 2
Fore
SplineSet
63 739 m 1,0,-1
 150 895 l 1,1,-1
 64 895 l 1,2,-1
 10 754 l 1,3,-1
 63 739 l 1,0,-1
EndSplineSet
EndChar

StartChar: circumflex.case
Encoding: 65541 -1 90
Width: 312
Flags: W
LayerCount: 2
Fore
SplineSet
156 837 m 1,0,-1
 230 739 l 1,1,-1
 302 749 l 1,2,-1
 187 895 l 1,3,-1
 124 895 l 1,4,-1
 10 749 l 1,5,-1
 81 739 l 1,6,-1
 156 837 l 1,0,-1
EndSplineSet
EndChar

StartChar: caron.case
Encoding: 65542 -1 91
Width: 312
Flags: W
LayerCount: 2
Fore
SplineSet
156 797 m 1,0,-1
 82 895 l 1,1,-1
 10 885 l 1,2,-1
 126 739 l 1,3,-1
 189 739 l 1,4,-1
 302 884 l 1,5,-1
 231 895 l 1,6,-1
 156 797 l 1,0,-1
EndSplineSet
EndChar

StartChar: breve.case
Encoding: 65543 -1 92
Width: 289
Flags: W
LayerCount: 2
Fore
SplineSet
221 887 m 1,0,1
 221 859 221 859 201.5 833 c 128,-1,2
 182 807 182 807 144 807 c 0,3,4
 105 807 105 807 85.5 833 c 128,-1,5
 66 859 66 859 66 887 c 1,6,-1
 10 887 l 1,7,8
 10 851 10 851 24 819.5 c 128,-1,9
 38 788 38 788 67.5 768.5 c 128,-1,10
 97 749 97 749 144 748 c 0,11,12
 191 749 191 749 221 768.5 c 128,-1,13
 251 788 251 788 265 819.5 c 128,-1,14
 279 851 279 851 279 887 c 1,15,-1
 221 887 l 1,0,1
EndSplineSet
EndChar

StartChar: dotaccent.case
Encoding: 65544 -1 93
Width: 127
Flags: W
LayerCount: 2
Fore
SplineSet
65 762 m 0,0,1
 87 762 87 762 102 777.5 c 128,-1,2
 117 793 117 793 117 816 c 0,3,4
 117 838 117 838 102 854.5 c 128,-1,5
 87 871 87 871 65 871 c 0,6,7
 42 871 42 871 26 854.5 c 128,-1,8
 10 838 10 838 10 816 c 256,9,10
 10 794 10 794 26 778 c 128,-1,11
 42 762 42 762 65 762 c 0,0,1
EndSplineSet
EndChar

StartChar: ring.case
Encoding: 65545 -1 94
Width: 206
Flags: W
LayerCount: 2
Fore
SplineSet
104 918 m 256,0,1
 79 918 79 918 57.5 906.5 c 128,-1,2
 36 895 36 895 23 874.5 c 128,-1,3
 10 854 10 854 10 829 c 0,4,5
 10 792 10 792 38 768 c 128,-1,6
 66 744 66 744 103 744 c 0,7,8
 129 744 129 744 150 755 c 128,-1,9
 171 766 171 766 183.5 785.5 c 128,-1,10
 196 805 196 805 196 829 c 0,11,12
 196 854 196 854 183.5 874.5 c 128,-1,13
 171 895 171 895 150 906.5 c 128,-1,14
 129 918 129 918 104 918 c 256,0,1
104 788 m 0,15,16
 86 788 86 788 73.5 800 c 128,-1,17
 61 812 61 812 61 829 c 0,18,19
 61 847 61 847 73.5 859.5 c 128,-1,20
 86 872 86 872 104 872 c 0,21,22
 121 872 121 872 133.5 860 c 128,-1,23
 146 848 146 848 146 829 c 0,24,25
 146 812 146 812 133.5 800 c 128,-1,26
 121 788 121 788 104 788 c 0,15,16
EndSplineSet
EndChar

StartChar: tilde.case
Encoding: 65546 -1 95
Width: 311
Flags: W
LayerCount: 2
Fore
SplineSet
247 853 m 1,0,1
 245 833 245 833 235 823 c 128,-1,2
 225 813 225 813 212 813 c 256,3,4
 199 813 199 813 186.5 819 c 128,-1,5
 174 825 174 825 163 835 c 0,6,7
 152 847 152 847 136 852 c 128,-1,8
 120 857 120 857 99 857 c 0,9,10
 75 857 75 857 55 848.5 c 128,-1,11
 35 840 35 840 22.5 818.5 c 128,-1,12
 10 797 10 797 10 759 c 1,13,-1
 65 759 l 1,14,15
 67 778 67 778 78 788.5 c 128,-1,16
 89 799 89 799 102 799 c 256,17,18
 115 799 115 799 127.5 793.5 c 128,-1,19
 140 788 140 788 153 777 c 0,20,21
 165 766 165 766 180 760 c 128,-1,22
 195 754 195 754 212 754 c 0,23,24
 237 754 237 754 257.5 763.5 c 128,-1,25
 278 773 278 773 289.5 794.5 c 128,-1,26
 301 816 301 816 301 853 c 1,27,-1
 247 853 l 1,0,1
EndSplineSet
EndChar

StartChar: hungarumlaut.case
Encoding: 65547 -1 96
Width: 314
Flags: W
LayerCount: 2
Fore
SplineSet
63 739 m 1,0,-1
 150 895 l 1,1,-1
 64 895 l 1,2,-1
 10 754 l 1,3,-1
 63 739 l 1,0,-1
216 739 m 1,4,-1
 304 895 l 1,5,-1
 217 895 l 1,6,-1
 163 754 l 1,7,-1
 216 739 l 1,4,-1
EndSplineSet
EndChar

StartChar: Thorn
Encoding: 222 222 97
Width: 562
Flags: W
LayerCount: 2
Fore
SplineSet
278 600 m 2,0,1
 349 600 349 600 406 579 c 128,-1,2
 463 558 463 558 496 512 c 128,-1,3
 529 466 529 466 529 391 c 0,4,5
 529 336 529 336 508 295 c 128,-1,6
 487 254 487 254 451 228 c 128,-1,7
 415 202 415 202 368 189.5 c 128,-1,8
 321 177 321 177 267 177 c 2,9,-1
 171 177 l 1,10,-1
 171 0 l 1,11,-1
 93 0 l 1,12,-1
 93 680 l 1,13,-1
 171 680 l 1,14,-1
 171 600 l 1,15,-1
 278 600 l 2,0,1
270 244 m 2,16,17
 320 244 320 244 360 258.5 c 128,-1,18
 400 273 400 273 423.5 305 c 128,-1,19
 447 337 447 337 448 389 c 0,20,21
 448 444 448 444 426.5 475 c 128,-1,22
 405 506 405 506 367.5 519.5 c 128,-1,23
 330 533 330 533 278 533 c 2,24,-1
 171 533 l 1,25,-1
 171 244 l 1,26,-1
 270 244 l 2,16,17
EndSplineSet
EndChar

StartChar: Eth
Encoding: 208 208 98
Width: 671
Flags: W
LayerCount: 2
Fore
SplineSet
282 305 m 1,0,-1
 273 367 l 1,1,-1
 20 367 l 1,2,-1
 29 305 l 1,3,-1
 282 305 l 1,0,-1
324 0 m 2,4,5
 424 0 424 0 491.5 45.5 c 128,-1,6
 559 91 559 91 594 169 c 128,-1,7
 629 247 629 247 629 344 c 0,8,9
 629 439 629 439 598 515 c 128,-1,10
 567 591 567 591 502 635.5 c 128,-1,11
 437 680 437 680 331 680 c 2,12,-1
 93 680 l 1,13,-1
 93 0 l 1,14,-1
 324 0 l 2,4,5
334 612 m 2,15,16
 408 612 408 612 455.5 577 c 128,-1,17
 503 542 503 542 526.5 481.5 c 128,-1,18
 550 421 550 421 550 343 c 0,19,20
 550 257 550 257 521.5 195 c 128,-1,21
 493 133 493 133 443 99.5 c 128,-1,22
 393 66 393 66 325 66 c 2,23,-1
 171 66 l 1,24,-1
 171 612 l 1,25,-1
 334 612 l 2,15,16
EndSplineSet
EndChar

StartChar: AE
Encoding: 198 198 99
Width: 875
Flags: W
LayerCount: 2
Fore
SplineSet
445 0 m 1,0,-1
 855 0 l 1,1,-1
 846 62 l 1,2,-1
 525 62 l 1,3,-1
 525 317 l 1,4,-1
 769 317 l 1,5,-1
 760 377 l 1,6,-1
 525 377 l 1,7,-1
 525 620 l 1,8,-1
 827 620 l 1,9,-1
 818 680 l 1,10,-1
 435 680 l 1,11,-1
 10 4 l 1,12,-1
 84 -8 l 1,13,-1
 206 193 l 1,14,-1
 445 193 l 1,15,-1
 445 0 l 1,0,-1
445 571 m 1,16,-1
 445 257 l 1,17,-1
 247 257 l 1,18,-1
 445 571 l 1,16,-1
EndSplineSet
EndChar

StartChar: Dcroat
Encoding: 272 272 100
Width: 671
Flags: W
LayerCount: 2
Fore
SplineSet
282 305 m 1,0,-1
 273 367 l 1,1,-1
 20 367 l 1,2,-1
 29 305 l 1,3,-1
 282 305 l 1,0,-1
324 0 m 2,4,5
 424 0 424 0 491.5 45.5 c 128,-1,6
 559 91 559 91 594 169 c 128,-1,7
 629 247 629 247 629 344 c 0,8,9
 629 439 629 439 598 515 c 128,-1,10
 567 591 567 591 502 635.5 c 128,-1,11
 437 680 437 680 331 680 c 2,12,-1
 93 680 l 1,13,-1
 93 0 l 1,14,-1
 324 0 l 2,4,5
334 612 m 2,15,16
 408 612 408 612 455.5 577 c 128,-1,17
 503 542 503 542 526.5 481.5 c 128,-1,18
 550 421 550 421 550 343 c 0,19,20
 550 257 550 257 521.5 195 c 128,-1,21
 493 133 493 133 443 99.5 c 128,-1,22
 393 66 393 66 325 66 c 2,23,-1
 171 66 l 1,24,-1
 171 612 l 1,25,-1
 334 612 l 2,15,16
EndSplineSet
EndChar

StartChar: Lslash
Encoding: 321 321 101
Width: 501
Flags: W
LayerCount: 2
Fore
SplineSet
88 0 m 1,0,-1
 88 239 l 1,1,-1
 50 208 l 1,2,-1
 15 260 l 1,3,-1
 88 321 l 1,4,-1
 88 680 l 1,5,-1
 166 680 l 1,6,-1
 166 386 l 1,7,-1
 280 483 l 1,8,-1
 316 432 l 1,9,-1
 166 306 l 1,10,-1
 166 62 l 1,11,-1
 483 62 l 1,12,-1
 491 0 l 1,13,-1
 88 0 l 1,0,-1
EndSplineSet
EndChar

StartChar: OE
Encoding: 338 338 102
Width: 931
Flags: W
LayerCount: 2
Fore
SplineSet
533 655 m 1,0,1
 510 669 510 669 478.5 677.5 c 128,-1,2
 447 686 447 686 415.5 690 c 128,-1,3
 384 694 384 694 363 694 c 0,4,5
 289 694 289 694 229.5 667 c 128,-1,6
 170 640 170 640 128.5 591 c 128,-1,7
 87 542 87 542 65 477 c 128,-1,8
 43 412 43 412 43 336 c 0,9,10
 43 265 43 265 62.5 202 c 128,-1,11
 82 139 82 139 121.5 90.5 c 128,-1,12
 161 42 161 42 220 14 c 128,-1,13
 279 -14 279 -14 357 -14 c 0,14,15
 386 -14 386 -14 419 -9 c 128,-1,16
 452 -4 452 -4 482.5 5 c 128,-1,17
 513 14 513 14 534 25 c 1,18,-1
 504 84 l 1,19,20
 476 72 476 72 441 63 c 128,-1,21
 406 54 406 54 354 54 c 0,22,23
 300 54 300 54 257.5 76 c 128,-1,24
 215 98 215 98 185.5 137.5 c 128,-1,25
 156 177 156 177 141 228 c 128,-1,26
 126 279 126 279 126 337 c 0,27,28
 126 422 126 422 157.5 487 c 128,-1,29
 189 552 189 552 242.5 589 c 128,-1,30
 296 626 296 626 363 626 c 0,31,32
 397 626 397 626 421 622.5 c 128,-1,33
 445 619 445 619 465.5 612.5 c 128,-1,34
 486 606 486 606 508 597 c 1,35,-1
 533 655 l 1,0,1
911 0 m 1,36,-1
 902 62 l 1,37,-1
 580 62 l 1,38,-1
 580 317 l 1,39,-1
 825 317 l 1,40,-1
 816 377 l 1,41,-1
 580 377 l 1,42,-1
 580 620 l 1,43,-1
 882 620 l 1,44,-1
 873 680 l 1,45,-1
 502 680 l 1,46,-1
 502 0 l 1,47,-1
 911 0 l 1,36,-1
EndSplineSet
EndChar

StartChar: Oslash
Encoding: 216 216 103
Width: 725
Flags: W
LayerCount: 2
Fore
SplineSet
360 -14 m 0,0,1
 268 -14 268 -14 196 31 c 128,-1,2
 124 76 124 76 83.5 155.5 c 128,-1,3
 43 235 43 235 43 337 c 256,4,5
 43 439 43 439 84.5 519.5 c 128,-1,6
 126 600 126 600 198.5 647 c 128,-1,7
 271 694 271 694 364 696 c 0,8,9
 456 696 456 696 528 650.5 c 128,-1,10
 600 605 600 605 641 526 c 128,-1,11
 682 447 682 447 682 345 c 256,12,13
 682 243 682 243 640.5 162 c 128,-1,14
 599 81 599 81 526.5 34.5 c 128,-1,15
 454 -12 454 -12 360 -14 c 0,0,1
358 55 m 0,16,17
 428 55 428 55 482 92 c 128,-1,18
 536 129 536 129 567 194.5 c 128,-1,19
 598 260 598 260 598 344 c 0,20,21
 598 426 598 426 568 490 c 128,-1,22
 538 554 538 554 485.5 590 c 128,-1,23
 433 626 433 626 366 626 c 0,24,25
 296 626 296 626 242 589 c 128,-1,26
 188 552 188 552 157 487 c 128,-1,27
 126 422 126 422 126 338 c 0,28,29
 126 256 126 256 156 192 c 128,-1,30
 186 128 186 128 238 91.5 c 128,-1,31
 290 55 290 55 358 55 c 0,16,17
273 39 m 1,32,-1
 209 70 l 1,33,-1
 449 628 l 1,34,-1
 513 588 l 1,35,-1
 273 39 l 1,32,-1
EndSplineSet
EndChar

StartChar: germandbls
Encoding: 223 223 104
Width: 575
Flags: W
LayerCount: 2
Fore
SplineSet
73 0 m 1,0,-1
 152 0 l 1,1,-1
 152 472 l 2,2,3
 152 516 152 516 168 548.5 c 128,-1,4
 184 581 184 581 215.5 599.5 c 128,-1,5
 247 618 247 618 291 618 c 0,6,7
 343 618 343 618 380.5 589.5 c 128,-1,8
 418 561 418 561 418 501 c 0,9,10
 418 444 418 444 382 414 c 128,-1,11
 346 384 346 384 265 384 c 2,12,-1
 236 384 l 1,13,-1
 236 320 l 1,14,-1
 294 320 l 2,15,16
 366 320 366 320 411 288.5 c 128,-1,17
 456 257 456 257 456 189 c 0,18,19
 456 143 456 143 433 116 c 128,-1,20
 410 89 410 89 371 77.5 c 128,-1,21
 332 66 332 66 284 66 c 2,22,-1
 223 66 l 1,23,-1
 223 0 l 1,24,-1
 284 0 l 2,25,26
 356 0 356 0 413 19 c 128,-1,27
 470 38 470 38 503.5 79.5 c 128,-1,28
 537 121 537 121 537 190 c 0,29,30
 537 234 537 234 521 267.5 c 128,-1,31
 505 301 505 301 477.5 324.5 c 128,-1,32
 450 348 450 348 415 360 c 1,33,34
 441 373 441 373 460 394.5 c 128,-1,35
 479 416 479 416 489 444 c 128,-1,36
 499 472 499 472 499 504 c 0,37,38
 499 565 499 565 470.5 605 c 128,-1,39
 442 645 442 645 395 665.5 c 128,-1,40
 348 686 348 686 291 686 c 0,41,42
 226 686 226 686 176.5 661 c 128,-1,43
 127 636 127 636 100 588.5 c 128,-1,44
 73 541 73 541 73 473 c 2,45,-1
 73 0 l 1,0,-1
EndSplineSet
EndChar

StartChar: eth
Encoding: 240 240 105
Width: 536
Flags: W
LayerCount: 2
Fore
SplineSet
504 246 m 0,0,1
 504 330 504 330 481 406 c 128,-1,2
 458 482 458 482 410.5 546.5 c 128,-1,3
 363 611 363 611 289.5 662.5 c 128,-1,4
 216 714 216 714 115 750 c 1,5,-1
 91 694 l 1,6,7
 193 654 193 654 257.5 604 c 128,-1,8
 322 554 322 554 358 496 c 128,-1,9
 394 438 394 438 408.5 373.5 c 128,-1,10
 423 309 423 309 423 240 c 0,11,12
 423 188 423 188 404.5 146 c 128,-1,13
 386 104 386 104 351 79 c 128,-1,14
 316 54 316 54 266 54 c 256,15,16
 216 54 216 54 181.5 79 c 128,-1,17
 147 104 147 104 130 147.5 c 128,-1,18
 113 191 113 191 113 245 c 0,19,20
 114 297 114 297 132.5 339 c 128,-1,21
 151 381 151 381 186 406 c 128,-1,22
 221 431 221 431 270 431 c 0,23,24
 305 431 305 431 334 421.5 c 128,-1,25
 363 412 363 412 385 395 c 128,-1,26
 407 378 407 378 425 355 c 1,27,-1
 464 386 l 1,28,29
 443 419 443 419 413 444 c 128,-1,30
 383 469 383 469 346.5 483.5 c 128,-1,31
 310 498 310 498 271 498 c 0,32,33
 198 498 198 498 144.5 465 c 128,-1,34
 91 432 91 432 62.5 375 c 128,-1,35
 34 318 34 318 33 244 c 0,36,37
 33 168 33 168 60.5 110.5 c 128,-1,38
 88 53 88 53 140 19.5 c 128,-1,39
 192 -14 192 -14 264 -13 c 0,40,41
 341 -13 341 -13 394 21 c 128,-1,42
 447 55 447 55 475.5 113.5 c 128,-1,43
 504 172 504 172 504 246 c 0,0,1
114 554 m 1,44,-1
 387 693 l 1,45,-1
 358 742 l 1,46,-1
 83 606 l 1,47,-1
 114 554 l 1,44,-1
EndSplineSet
EndChar

StartChar: thorn
Encoding: 254 254 106
Width: 524
Flags: W
LayerCount: 2
Fore
SplineSet
261 498 m 0,0,1
 334 498 334 498 386 465.5 c 128,-1,2
 438 433 438 433 465 375.5 c 128,-1,3
 492 318 492 318 492 241 c 0,4,5
 492 167 492 167 463.5 109.5 c 128,-1,6
 435 52 435 52 383 19.5 c 128,-1,7
 331 -13 331 -13 258 -13 c 0,8,9
 231 -13 231 -13 202 -2.5 c 128,-1,10
 173 8 173 8 147 25 c 1,11,-1
 147 -208 l 1,12,-1
 69 -219 l 1,13,-1
 69 695 l 1,14,-1
 147 706 l 1,15,-1
 147 460 l 1,16,17
 174 478 174 478 204.5 488 c 128,-1,18
 235 498 235 498 261 498 c 0,0,1
260 54 m 0,19,20
 310 54 310 54 343.5 79 c 128,-1,21
 377 104 377 104 394 146 c 128,-1,22
 411 188 411 188 411 240 c 0,23,24
 411 296 411 296 395 339 c 128,-1,25
 379 382 379 382 345.5 406.5 c 128,-1,26
 312 431 312 431 262 431 c 0,27,28
 225 431 225 431 197.5 419 c 128,-1,29
 170 407 170 407 147 385 c 1,30,-1
 147 96 l 1,31,32
 170 78 170 78 196.5 66 c 128,-1,33
 223 54 223 54 260 54 c 0,19,20
EndSplineSet
EndChar

StartChar: florin
Encoding: 402 402 107
Width: 339
Flags: W
LayerCount: 2
Fore
SplineSet
57 475 m 1,0,-1
 58 415 l 1,1,-1
 130 415 l 1,2,-1
 130 73 l 2,3,4
 130 36 130 36 114.5 13 c 128,-1,5
 99 -10 99 -10 61 -10 c 0,6,7
 52 -10 52 -10 39 -6.5 c 128,-1,8
 26 -3 26 -3 18 0 c 1,9,-1
 0 -63 l 1,10,11
 8 -67 8 -67 20 -71 c 128,-1,12
 32 -75 32 -75 46.5 -77.5 c 128,-1,13
 61 -80 61 -80 74 -80 c 0,14,15
 117 -80 117 -80 147 -61.5 c 128,-1,16
 177 -43 177 -43 193 -9.5 c 128,-1,17
 209 24 209 24 209 69 c 2,18,-1
 209 415 l 1,19,-1
 324 415 l 1,20,-1
 298 475 l 1,21,-1
 209 475 l 1,22,-1
 209 548 l 2,23,24
 209 584 209 584 224.5 607.5 c 128,-1,25
 240 631 240 631 277 631 c 0,26,27
 287 631 287 631 300 627.5 c 128,-1,28
 313 624 313 624 321 621 c 1,29,-1
 339 684 l 1,30,31
 332 689 332 689 320 693 c 128,-1,32
 308 697 308 697 294 699.5 c 128,-1,33
 280 702 280 702 266 702 c 0,34,35
 224 702 224 702 193.5 683.5 c 128,-1,36
 163 665 163 665 146.5 631.5 c 128,-1,37
 130 598 130 598 130 552 c 2,38,-1
 130 475 l 1,39,-1
 57 475 l 1,0,-1
EndSplineSet
EndChar

StartChar: ae
Encoding: 230 230 108
Width: 814
Flags: W
LayerCount: 2
Fore
SplineSet
782 230 m 1,0,-1
 430 230 l 1,1,2
 433 179 433 179 450.5 139 c 128,-1,3
 468 99 468 99 505 76 c 128,-1,4
 542 53 542 53 601 53 c 0,5,6
 644 53 644 53 678 64.5 c 128,-1,7
 712 76 712 76 751 95 c 1,8,-1
 776 38 l 1,9,10
 752 25 752 25 725.5 13 c 128,-1,11
 699 1 699 1 669 -5.5 c 128,-1,12
 639 -12 639 -12 603 -12 c 0,13,14
 533 -12 533 -12 481.5 11 c 128,-1,15
 430 34 430 34 400 75 c 1,16,17
 383 56 383 56 357.5 35.5 c 128,-1,18
 332 15 332 15 297.5 1.5 c 128,-1,19
 263 -12 263 -12 216 -12 c 0,20,21
 131 -12 131 -12 90 31 c 128,-1,22
 49 74 49 74 49 138 c 0,23,24
 49 209 49 209 98 247.5 c 128,-1,25
 147 286 147 286 225 286 c 2,26,-1
 350 286 l 1,27,-1
 350 312 l 2,28,29
 350 362 350 362 325.5 395.5 c 128,-1,30
 301 429 301 429 243 429 c 0,31,32
 196 429 196 429 163.5 418 c 128,-1,33
 131 407 131 407 104 396 c 1,34,-1
 81 455 l 1,35,36
 100 468 100 468 129.5 477.5 c 128,-1,37
 159 487 159 487 190 492.5 c 128,-1,38
 221 498 221 498 241 498 c 0,39,40
 295 498 295 498 337 477.5 c 128,-1,41
 379 457 379 457 403 421 c 1,42,43
 431 457 431 457 475 477.5 c 128,-1,44
 519 498 519 498 574 498 c 0,45,46
 648 498 648 498 694 463.5 c 128,-1,47
 740 429 740 429 761 370 c 128,-1,48
 782 311 782 311 782 239 c 2,49,-1
 782 230 l 1,0,-1
432 284 m 1,50,-1
 704 284 l 1,51,52
 699 328 699 328 684 361 c 128,-1,53
 669 394 669 394 641.5 412.5 c 128,-1,54
 614 431 614 431 572 431 c 0,55,56
 529 431 529 431 499.5 412.5 c 128,-1,57
 470 394 470 394 453.5 361 c 128,-1,58
 437 328 437 328 432 284 c 1,50,-1
349 233 m 1,59,-1
 223 233 l 2,60,61
 191 233 191 233 168.5 219.5 c 128,-1,62
 146 206 146 206 134.5 184.5 c 128,-1,63
 123 163 123 163 123 138 c 0,64,65
 123 118 123 118 132.5 97.5 c 128,-1,66
 142 77 142 77 162 64 c 128,-1,67
 182 51 182 51 213 51 c 0,68,69
 258 51 258 51 286.5 63 c 128,-1,70
 315 75 315 75 334 94 c 128,-1,71
 353 113 353 113 367 132 c 1,72,73
 359 155 359 155 354.5 180 c 128,-1,74
 350 205 350 205 349 233 c 1,59,-1
EndSplineSet
EndChar

StartChar: dcroat
Encoding: 273 273 109
Width: 530
Flags: W
LayerCount: 2
Fore
SplineSet
401 126 m 1,0,-1
 426 69 l 1,1,2
 405 43 405 43 377 24 c 128,-1,3
 349 5 349 5 319 -4 c 128,-1,4
 289 -13 289 -13 264 -13 c 0,5,6
 191 -13 191 -13 139 19.5 c 128,-1,7
 87 52 87 52 60 110 c 128,-1,8
 33 168 33 168 33 244 c 0,9,10
 33 319 33 319 61 376 c 128,-1,11
 89 433 89 433 141.5 465.5 c 128,-1,12
 194 498 194 498 266 498 c 0,13,14
 292 498 292 498 322 488 c 128,-1,15
 352 478 352 478 379.5 460 c 128,-1,16
 407 442 407 442 427 417 c 1,17,-1
 403 363 l 1,18,19
 375 394 375 394 343.5 412.5 c 128,-1,20
 312 431 312 431 264 431 c 0,21,22
 215 431 215 431 181 406 c 128,-1,23
 147 381 147 381 130 339.5 c 128,-1,24
 113 298 113 298 113 245 c 0,25,26
 113 190 113 190 129.5 146.5 c 128,-1,27
 146 103 146 103 179.5 78.5 c 128,-1,28
 213 54 213 54 263 54 c 0,29,30
 309 54 309 54 341 73 c 128,-1,31
 373 92 373 92 401 126 c 1,0,-1
458 560 m 1,32,-1
 458 0 l 1,33,-1
 410 0 l 1,34,-1
 378 78 l 1,35,-1
 378 560 l 1,36,-1
 284 560 l 1,37,-1
 276 618 l 1,38,-1
 378 618 l 1,39,-1
 378 695 l 1,40,-1
 458 705 l 1,41,-1
 458 618 l 1,42,-1
 527 618 l 1,43,-1
 535 560 l 1,44,-1
 458 560 l 1,32,-1
EndSplineSet
EndChar

StartChar: oe
Encoding: 339 339 110
Width: 793
Flags: W
LayerCount: 2
Fore
SplineSet
761 230 m 1,0,-1
 409 230 l 1,1,2
 411 179 411 179 428.5 139 c 128,-1,3
 446 99 446 99 483.5 76 c 128,-1,4
 521 53 521 53 581 53 c 0,5,6
 623 53 623 53 657 64.5 c 128,-1,7
 691 76 691 76 730 95 c 1,8,-1
 755 37 l 1,9,10
 732 24 732 24 705 12.5 c 128,-1,11
 678 1 678 1 648 -5.5 c 128,-1,12
 618 -12 618 -12 582 -12 c 0,13,14
 534 -12 534 -12 494.5 -1 c 128,-1,15
 455 10 455 10 425 30 c 1,16,17
 404 17 404 17 374.5 7.5 c 128,-1,18
 345 -2 345 -2 316.5 -7.5 c 128,-1,19
 288 -13 288 -13 267 -13 c 0,20,21
 194 -13 194 -13 141.5 19.5 c 128,-1,22
 89 52 89 52 61 110 c 128,-1,23
 33 168 33 168 33 244 c 0,24,25
 34 319 34 319 62.5 376 c 128,-1,26
 91 433 91 433 145 465.5 c 128,-1,27
 199 498 199 498 272 498 c 0,28,29
 290 498 290 498 317.5 493 c 128,-1,30
 345 488 345 488 372.5 479 c 128,-1,31
 400 470 400 470 421 458 c 1,32,33
 448 477 448 477 481.5 487.5 c 128,-1,34
 515 498 515 498 553 498 c 0,35,36
 627 498 627 498 673 463 c 128,-1,37
 719 428 719 428 740 368.5 c 128,-1,38
 761 309 761 309 761 237 c 2,39,-1
 761 230 l 1,0,-1
411 284 m 1,40,-1
 683 284 l 1,41,42
 678 328 678 328 662.5 361 c 128,-1,43
 647 394 647 394 620 412.5 c 128,-1,44
 593 431 593 431 550 431 c 0,45,46
 508 431 508 431 478.5 412.5 c 128,-1,47
 449 394 449 394 432.5 361 c 128,-1,48
 416 328 416 328 411 284 c 1,40,-1
113 245 m 0,49,50
 113 191 113 191 130 147.5 c 128,-1,51
 147 104 147 104 181.5 79 c 128,-1,52
 216 54 216 54 266 54 c 0,53,54
 304 54 304 54 329.5 60 c 128,-1,55
 355 66 355 66 377 76 c 1,56,57
 352 109 352 109 340 151.5 c 128,-1,58
 328 194 328 194 328 244 c 0,59,60
 328 293 328 293 340 335.5 c 128,-1,61
 352 378 352 378 375 411 c 1,62,63
 354 419 354 419 329.5 425 c 128,-1,64
 305 431 305 431 270 431 c 0,65,66
 221 431 221 431 186 406 c 128,-1,67
 151 381 151 381 132.5 339 c 128,-1,68
 114 297 114 297 113 245 c 0,49,50
EndSplineSet
EndChar

StartChar: lacute
Encoding: 314 314 111
Width: 224
Flags: W
LayerCount: 2
Fore
SplineSet
151 0 m 1,0,-1
 151 685 l 1,1,-1
 73 673 l 1,2,-1
 73 0 l 1,3,-1
 151 0 l 1,0,-1
139 739 m 1,4,-1
 226 895 l 1,5,-1
 139 895 l 1,6,-1
 86 754 l 1,7,-1
 139 739 l 1,4,-1
EndSplineSet
EndChar

StartChar: lslash
Encoding: 322 322 112
Width: 299
Flags: W
LayerCount: 2
Fore
SplineSet
265 504 m 1,0,-1
 190 439 l 1,1,-1
 190 706 l 1,2,-1
 110 695 l 1,3,-1
 110 374 l 1,4,-1
 0 281 l 1,5,-1
 35 229 l 1,6,-1
 110 294 l 1,7,-1
 110 0 l 1,8,-1
 190 0 l 1,9,-1
 190 359 l 1,10,-1
 299 453 l 1,11,-1
 265 504 l 1,0,-1
EndSplineSet
EndChar

StartChar: dotlessi
Encoding: 305 305 113
Width: 205
Flags: W
LayerCount: 2
Fore
SplineSet
143 0 m 1,0,-1
 143 485 l 1,1,-1
 63 485 l 1,2,-1
 63 0 l 1,3,-1
 143 0 l 1,0,-1
EndSplineSet
EndChar

StartChar: oslash
Encoding: 248 248 114
Width: 543
Flags: W
LayerCount: 2
Fore
SplineSet
264 -13 m 0,0,1
 192 -14 192 -14 140 19.5 c 128,-1,2
 88 53 88 53 60.5 110.5 c 128,-1,3
 33 168 33 168 33 244 c 0,4,5
 34 318 34 318 62.5 375 c 128,-1,6
 91 432 91 432 144.5 465 c 128,-1,7
 198 498 198 498 271 498 c 256,8,9
 344 498 344 498 396 466 c 128,-1,10
 448 434 448 434 476 377 c 128,-1,11
 504 320 504 320 504 241 c 0,12,13
 504 167 504 167 474.5 110 c 128,-1,14
 445 53 445 53 391.5 20 c 128,-1,15
 338 -13 338 -13 264 -13 c 0,0,1
266 54 m 256,16,17
 316 54 316 54 351 79 c 128,-1,18
 386 104 386 104 404.5 146 c 128,-1,19
 423 188 423 188 423 240 c 0,20,21
 423 295 423 295 405.5 338 c 128,-1,22
 388 381 388 381 354.5 406 c 128,-1,23
 321 431 321 431 270 431 c 0,24,25
 221 431 221 431 186 406 c 128,-1,26
 151 381 151 381 132.5 339 c 128,-1,27
 114 297 114 297 113 245 c 0,28,29
 113 191 113 191 130 147.5 c 128,-1,30
 147 104 147 104 181.5 79 c 128,-1,31
 216 54 216 54 266 54 c 256,16,17
205 29 m 1,32,-1
 143 62 l 1,33,-1
 347 449 l 1,34,-1
 404 409 l 1,35,-1
 205 29 l 1,32,-1
EndSplineSet
EndChar

StartChar: Aogonek
Encoding: 260 260 122
Width: 609
GlyphClass: 2
Flags: W
LayerCount: 2
Fore
SplineSet
527 7 m 1,0,1
 512 -6 512 -6 499 -25 c 128,-1,2
 486 -44 486 -44 478.5 -64.5 c 128,-1,3
 471 -85 471 -85 471 -103 c 0,4,5
 471 -132 471 -132 484.5 -155 c 128,-1,6
 498 -178 498 -178 522 -191 c 128,-1,7
 546 -204 546 -204 577 -204 c 0,8,9
 595 -204 595 -204 610.5 -200 c 128,-1,10
 626 -196 626 -196 639.5 -189 c 128,-1,11
 653 -182 653 -182 663 -173 c 1,12,-1
 637 -125 l 1,13,14
 625 -134 625 -134 612 -139.5 c 128,-1,15
 599 -145 599 -145 585 -145 c 0,16,17
 567 -145 567 -145 553 -134 c 128,-1,18
 539 -123 539 -123 539 -98 c 0,19,20
 539 -80 539 -80 547.5 -60.5 c 128,-1,21
 556 -41 556 -41 570 -23.5 c 128,-1,22
 584 -6 584 -6 599 6 c 1,23,-1
 527 7 l 1,0,1
422 257 m 1,24,-1
 180 257 l 1,25,-1
 299 575 l 1,26,-1
 422 257 l 1,24,-1
262 680 m 1,27,-1
 10 0 l 1,28,-1
 87 0 l 1,29,-1
 158 193 l 1,30,-1
 445 193 l 1,31,-1
 521 -7 l 1,32,-1
 599 6 l 1,33,-1
 337 680 l 1,34,-1
 262 680 l 1,27,-1
EndSplineSet
EndChar

StartChar: Iogonek
Encoding: 302 302 142
Width: 264
GlyphClass: 2
Flags: W
LayerCount: 2
Fore
SplineSet
94 2 m 1,0,1
 70 -18 70 -18 56.5 -50.5 c 128,-1,2
 43 -83 43 -83 43 -109 c 0,3,4
 43 -138 43 -138 56.5 -161 c 128,-1,5
 70 -184 70 -184 94.5 -196.5 c 128,-1,6
 119 -209 119 -209 150 -209 c 0,7,8
 176 -209 176 -209 197.5 -201 c 128,-1,9
 219 -193 219 -193 235 -179 c 1,10,-1
 209 -130 l 1,11,12
 198 -140 198 -140 184.5 -145 c 128,-1,13
 171 -150 171 -150 158 -150 c 0,14,15
 139 -150 139 -150 125.5 -139.5 c 128,-1,16
 112 -129 112 -129 112 -103 c 0,17,18
 112 -86 112 -86 120 -66.5 c 128,-1,19
 128 -47 128 -47 142.5 -29 c 128,-1,20
 157 -11 157 -11 171 0 c 1,21,-1
 94 2 l 1,0,1
171 0 m 1,22,-1
 171 680 l 1,23,-1
 93 680 l 1,24,-1
 93 0 l 1,25,-1
 171 0 l 1,22,-1
EndSplineSet
EndChar

StartChar: aogonek
Encoding: 261 261 185
Width: 488
Flags: W
LayerCount: 2
Fore
SplineSet
372 17 m 1,0,1
 352 1 352 1 336 -20 c 128,-1,2
 320 -41 320 -41 311 -64 c 128,-1,3
 302 -87 302 -87 302 -109 c 0,4,5
 302 -138 302 -138 315.5 -161 c 128,-1,6
 329 -184 329 -184 353.5 -196.5 c 128,-1,7
 378 -209 378 -209 409 -209 c 0,8,9
 435 -209 435 -209 456.5 -201 c 128,-1,10
 478 -193 478 -193 494 -179 c 1,11,-1
 468 -130 l 1,12,13
 457 -140 457 -140 443.5 -145 c 128,-1,14
 430 -150 430 -150 417 -150 c 0,15,16
 398 -150 398 -150 384 -139.5 c 128,-1,17
 370 -129 370 -129 370 -103 c 0,18,19
 370 -86 370 -86 378.5 -66.5 c 128,-1,20
 387 -47 387 -47 401 -29 c 128,-1,21
 415 -11 415 -11 430 0 c 1,22,-1
 372 17 l 1,0,1
123 138 m 0,23,24
 123 176 123 176 148.5 204.5 c 128,-1,25
 174 233 174 233 223 233 c 2,26,-1
 350 233 l 1,27,-1
 350 122 l 1,28,29
 325 93 325 93 290 72 c 128,-1,30
 255 51 255 51 213 51 c 0,31,32
 182 51 182 51 162 64 c 128,-1,33
 142 77 142 77 132.5 97.5 c 128,-1,34
 123 118 123 118 123 138 c 0,23,24
104 396 m 1,35,36
 131 407 131 407 163.5 418 c 128,-1,37
 196 429 196 429 243 429 c 0,38,39
 301 429 301 429 325.5 396 c 128,-1,40
 350 363 350 363 350 313 c 2,41,-1
 350 286 l 1,42,-1
 225 286 l 2,43,44
 147 286 147 286 98 247.5 c 128,-1,45
 49 209 49 209 49 138 c 0,46,47
 49 74 49 74 90 31 c 128,-1,48
 131 -12 131 -12 216 -12 c 0,49,50
 256 -12 256 -12 296.5 7 c 128,-1,51
 337 26 337 26 360 49 c 1,52,-1
 370 0 l 1,53,-1
 430 0 l 1,54,-1
 430 334 l 2,55,56
 430 382 430 382 406 419 c 128,-1,57
 382 456 382 456 339.5 477 c 128,-1,58
 297 498 297 498 241 498 c 0,59,60
 221 498 221 498 190 492.5 c 128,-1,61
 159 487 159 487 129.5 477.5 c 128,-1,62
 100 468 100 468 81 455 c 1,63,-1
 104 396 l 1,35,36
EndSplineSet
EndChar

StartChar: dcaron
Encoding: 271 271 189
Width: 676
Flags: W
LayerCount: 2
Fore
SplineSet
592 712 m 0,0,1
 577 712 577 712 564.5 704 c 128,-1,2
 552 696 552 696 544.5 683.5 c 128,-1,3
 537 671 537 671 537 657 c 0,4,5
 537 645 537 645 543.5 632.5 c 128,-1,6
 550 620 550 620 560 612.5 c 128,-1,7
 570 605 570 605 582 604 c 1,8,9
 579 576 579 576 563.5 557 c 128,-1,10
 548 538 548 538 524 521 c 1,11,-1
 544 484 l 1,12,13
 573 499 573 499 595.5 525 c 128,-1,14
 618 551 618 551 632 584 c 128,-1,15
 646 617 646 617 646 649 c 0,16,17
 646 677 646 677 630 694.5 c 128,-1,18
 614 712 614 712 592 712 c 0,0,1
378 78 m 1,19,-1
 410 0 l 1,20,-1
 458 0 l 1,21,-1
 458 705 l 1,22,-1
 378 695 l 1,23,-1
 378 78 l 1,19,-1
401 126 m 1,24,25
 373 92 373 92 341 73 c 128,-1,26
 309 54 309 54 263 54 c 0,27,28
 213 54 213 54 179.5 78.5 c 128,-1,29
 146 103 146 103 129.5 146.5 c 128,-1,30
 113 190 113 190 113 245 c 0,31,32
 113 298 113 298 130 339.5 c 128,-1,33
 147 381 147 381 181 406 c 128,-1,34
 215 431 215 431 264 431 c 0,35,36
 312 431 312 431 343.5 412.5 c 128,-1,37
 375 394 375 394 403 363 c 1,38,-1
 427 417 l 1,39,40
 407 442 407 442 379.5 460 c 128,-1,41
 352 478 352 478 322 488 c 128,-1,42
 292 498 292 498 266 498 c 0,43,44
 194 498 194 498 141.5 465.5 c 128,-1,45
 89 433 89 433 61 376 c 128,-1,46
 33 319 33 319 33 244 c 0,47,48
 33 168 33 168 60 110 c 128,-1,49
 87 52 87 52 139 19.5 c 128,-1,50
 191 -13 191 -13 264 -13 c 0,51,52
 289 -13 289 -13 319 -4 c 128,-1,53
 349 5 349 5 377 24 c 128,-1,54
 405 43 405 43 426 69 c 1,55,-1
 401 126 l 1,24,25
EndSplineSet
EndChar

StartChar: iogonek
Encoding: 303 303 204
Width: 205
Flags: W
LayerCount: 2
Fore
SplineSet
64 2 m 1,0,1
 40 -18 40 -18 27 -50.5 c 128,-1,2
 14 -83 14 -83 14 -109 c 0,3,4
 14 -138 14 -138 27.5 -161 c 128,-1,5
 41 -184 41 -184 65.5 -196.5 c 128,-1,6
 90 -209 90 -209 121 -209 c 0,7,8
 147 -209 147 -209 168.5 -201 c 128,-1,9
 190 -193 190 -193 206 -179 c 1,10,-1
 180 -130 l 1,11,12
 169 -140 169 -140 155.5 -145 c 128,-1,13
 142 -150 142 -150 129 -150 c 0,14,15
 110 -150 110 -150 96 -139.5 c 128,-1,16
 82 -129 82 -129 82 -103 c 0,17,18
 82 -86 82 -86 90.5 -66.5 c 128,-1,19
 99 -47 99 -47 113.5 -29 c 128,-1,20
 128 -11 128 -11 143 0 c 1,21,-1
 64 2 l 1,0,1
143 0 m 1,22,-1
 143 485 l 1,23,-1
 63 485 l 1,24,-1
 63 0 l 1,25,-1
 143 0 l 1,22,-1
103 612 m 0,26,27
 125 612 125 612 140 627.5 c 128,-1,28
 155 643 155 643 155 666 c 0,29,30
 155 688 155 688 140 704.5 c 128,-1,31
 125 721 125 721 103 721 c 0,32,33
 80 721 80 721 64 704.5 c 128,-1,34
 48 688 48 688 48 666 c 256,35,36
 48 644 48 644 64 628 c 128,-1,37
 80 612 80 612 103 612 c 0,26,27
EndSplineSet
EndChar

StartChar: lcaron
Encoding: 318 318 205
Width: 371
Flags: W
LayerCount: 2
Fore
SplineSet
286 712 m 0,0,1
 271 712 271 712 258.5 704 c 128,-1,2
 246 696 246 696 238.5 683.5 c 128,-1,3
 231 671 231 671 231 657 c 0,4,5
 231 645 231 645 237.5 632.5 c 128,-1,6
 244 620 244 620 254 612.5 c 128,-1,7
 264 605 264 605 276 604 c 1,8,9
 274 576 274 576 258 557 c 128,-1,10
 242 538 242 538 218 521 c 1,11,-1
 238 484 l 1,12,13
 267 499 267 499 289.5 525 c 128,-1,14
 312 551 312 551 326.5 584 c 128,-1,15
 341 617 341 617 341 649 c 0,16,17
 341 677 341 677 324.5 694.5 c 128,-1,18
 308 712 308 712 286 712 c 0,0,1
151 0 m 1,19,-1
 151 706 l 1,20,-1
 73 695 l 1,21,-1
 73 0 l 1,22,-1
 151 0 l 1,19,-1
EndSplineSet
EndChar

StartChar: tcaron
Encoding: 357 357 220
Width: 439
Flags: W
LayerCount: 2
Fore
SplineSet
355 712 m 0,0,1
 340 712 340 712 327.5 704 c 128,-1,2
 315 696 315 696 307.5 683.5 c 128,-1,3
 300 671 300 671 300 657 c 0,4,5
 300 645 300 645 306.5 632.5 c 128,-1,6
 313 620 313 620 323.5 612.5 c 128,-1,7
 334 605 334 605 346 604 c 1,8,9
 342 576 342 576 326 557 c 128,-1,10
 310 538 310 538 287 521 c 1,11,-1
 308 484 l 1,12,13
 336 499 336 499 359 525 c 128,-1,14
 382 551 382 551 395.5 584 c 128,-1,15
 409 617 409 617 409 649 c 0,16,17
 409 677 409 677 393 694.5 c 128,-1,18
 377 712 377 712 355 712 c 0,0,1
254 477 m 1,19,-1
 166 477 l 1,20,-1
 166 622 l 1,21,-1
 86 600 l 1,22,-1
 86 477 l 1,23,-1
 16 477 l 1,24,-1
 17 417 l 1,25,-1
 86 417 l 1,26,-1
 86 126 l 2,27,28
 86 80 86 80 103 49 c 128,-1,29
 120 18 120 18 151 1.5 c 128,-1,30
 182 -15 182 -15 223 -15 c 0,31,32
 237 -15 237 -15 251 -12.5 c 128,-1,33
 265 -10 265 -10 277 -6 c 128,-1,34
 289 -2 289 -2 297 2 c 1,35,-1
 278 64 l 1,36,37
 271 61 271 61 258.5 57.5 c 128,-1,38
 246 54 246 54 234 54 c 0,39,40
 198 54 198 54 182 77 c 128,-1,41
 166 100 166 100 166 137 c 2,42,-1
 166 417 l 1,43,-1
 279 417 l 1,44,-1
 254 477 l 1,19,-1
EndSplineSet
EndChar

StartChar: uogonek
Encoding: 371 371 228
Width: 529
Flags: W
LayerCount: 2
Fore
SplineSet
409 17 m 1,0,1
 389 1 389 1 372.5 -20 c 128,-1,2
 356 -41 356 -41 347 -64 c 128,-1,3
 338 -87 338 -87 338 -109 c 0,4,5
 338 -138 338 -138 352 -161 c 128,-1,6
 366 -184 366 -184 390 -196.5 c 128,-1,7
 414 -209 414 -209 445 -209 c 0,8,9
 471 -209 471 -209 493 -201 c 128,-1,10
 515 -193 515 -193 531 -179 c 1,11,-1
 505 -130 l 1,12,13
 493 -140 493 -140 480 -145 c 128,-1,14
 467 -150 467 -150 453 -150 c 0,15,16
 435 -150 435 -150 421 -139.5 c 128,-1,17
 407 -129 407 -129 407 -103 c 0,18,19
 407 -86 407 -86 415.5 -66.5 c 128,-1,20
 424 -47 424 -47 437.5 -29 c 128,-1,21
 451 -11 451 -11 466 0 c 1,22,-1
 409 17 l 1,0,1
387 485 m 1,23,-1
 387 142 l 1,24,25
 365 118 365 118 336 97.5 c 128,-1,26
 307 77 307 77 278.5 65.5 c 128,-1,27
 250 54 250 54 224 54 c 0,28,29
 175 54 175 54 156 86 c 128,-1,30
 137 118 137 118 137 168 c 2,31,-1
 137 485 l 1,32,-1
 59 485 l 1,33,-1
 59 157 l 2,34,35
 59 108 59 108 74.5 69 c 128,-1,36
 90 30 90 30 123.5 8 c 128,-1,37
 157 -14 157 -14 211 -14 c 0,38,39
 243 -14 243 -14 276.5 -3 c 128,-1,40
 310 8 310 8 340.5 27.5 c 128,-1,41
 371 47 371 47 393 70 c 1,42,-1
 407 0 l 1,43,-1
 466 0 l 1,44,-1
 466 485 l 1,45,-1
 387 485 l 1,23,-1
EndSplineSet
EndChar

StartChar: mu
Encoding: 181 181 238
Width: 539
Flags: W
LayerCount: 2
Fore
SplineSet
147 -208 m 1,0,-1
 147 340 l 1,1,-1
 69 341 l 1,2,-1
 69 -219 l 1,3,-1
 147 -208 l 1,0,-1
397 485 m 1,4,-1
 397 142 l 1,5,6
 375 118 375 118 346 97.5 c 128,-1,7
 317 77 317 77 288.5 65.5 c 128,-1,8
 260 54 260 54 234 54 c 0,9,10
 185 54 185 54 166 86 c 128,-1,11
 147 118 147 118 147 168 c 2,12,-1
 147 485 l 1,13,-1
 69 485 l 1,14,-1
 69 157 l 2,15,16
 69 108 69 108 84.5 69 c 128,-1,17
 100 30 100 30 133.5 8 c 128,-1,18
 167 -14 167 -14 221 -14 c 0,19,20
 253 -14 253 -14 286.5 -3 c 128,-1,21
 320 8 320 8 350.5 27.5 c 128,-1,22
 381 47 381 47 403 70 c 1,23,-1
 417 0 l 1,24,-1
 476 0 l 1,25,-1
 476 485 l 1,26,-1
 397 485 l 1,4,-1
EndSplineSet
EndChar

StartChar: uni02C9
Encoding: 713 713 239
Width: 266
Flags: W
LayerCount: 2
Fore
SplineSet
10 633 m 1,0,-1
 256 633 l 1,1,-1
 248 696 l 1,2,-1
 10 696 l 1,3,-1
 10 633 l 1,0,-1
EndSplineSet
EndChar

StartChar: litre
Encoding: 8467 8467 240
Width: 366
Flags: W
LayerCount: 2
Fore
SplineSet
29 177 m 1,0,1
 37 181 37 181 45.5 186.5 c 128,-1,2
 54 192 54 192 62.5 198 c 128,-1,3
 71 204 71 204 78 211 c 1,4,-1
 78 154 l 2,5,6
 78 105 78 105 90.5 67.5 c 128,-1,7
 103 30 103 30 133 9.5 c 128,-1,8
 163 -11 163 -11 218 -11 c 0,9,10
 236 -11 236 -11 254 -7.5 c 128,-1,11
 272 -4 272 -4 288.5 4.5 c 128,-1,12
 305 13 305 13 319 26 c 1,13,-1
 292 74 l 1,14,15
 271 64 271 64 254.5 60 c 128,-1,16
 238 56 238 56 226 56 c 0,17,18
 195 56 195 56 181 70.5 c 128,-1,19
 167 85 167 85 162.5 109.5 c 128,-1,20
 158 134 158 134 158 164 c 2,21,-1
 158 273 l 1,22,23
 207 318 207 318 247 369 c 128,-1,24
 287 420 287 420 311.5 471.5 c 128,-1,25
 336 523 336 523 336 569 c 0,26,27
 336 610 336 610 320 639.5 c 128,-1,28
 304 669 304 669 275.5 685.5 c 128,-1,29
 247 702 247 702 211 702 c 0,30,31
 173 702 173 702 143 685.5 c 128,-1,32
 113 669 113 669 95.5 637.5 c 128,-1,33
 78 606 78 606 78 561 c 2,34,-1
 78 295 l 1,35,36
 69 287 69 287 56.5 277 c 128,-1,37
 44 267 44 267 32 257.5 c 128,-1,38
 20 248 20 248 10 241 c 1,39,-1
 29 177 l 1,0,1
158 371 m 1,40,-1
 158 560 l 2,41,42
 158 603 158 603 174.5 618.5 c 128,-1,43
 191 634 191 634 211 635 c 0,44,45
 229 635 229 635 243 620 c 128,-1,46
 257 605 257 605 257 566 c 0,47,48
 257 518 257 518 227.5 467 c 128,-1,49
 198 416 198 416 158 371 c 1,40,-1
EndSplineSet
EndChar

StartChar: Ohm
Encoding: 8486 8486 241
Width: 716
Flags: W
LayerCount: 2
Fore
SplineSet
588 340 m 0,0,1
 588 300 588 300 579 257 c 128,-1,2
 570 214 570 214 553.5 176 c 128,-1,3
 537 138 537 138 514 109 c 128,-1,4
 491 80 491 80 463 64 c 1,5,-1
 460 0 l 1,6,-1
 667 0 l 1,7,-1
 673 63 l 1,8,-1
 562 63 l 1,9,10
 597 91 597 91 621 135.5 c 128,-1,11
 645 180 645 180 658.5 233.5 c 128,-1,12
 672 287 672 287 672 340 c 0,13,14
 672 441 672 441 634.5 521 c 128,-1,15
 597 601 597 601 526.5 647.5 c 128,-1,16
 456 694 456 694 358 696 c 0,17,18
 260 694 260 694 189 647.5 c 128,-1,19
 118 601 118 601 81 521 c 128,-1,20
 44 441 44 441 44 340 c 0,21,22
 44 287 44 287 57 233.5 c 128,-1,23
 70 180 70 180 94.5 135.5 c 128,-1,24
 119 91 119 91 153 63 c 1,25,-1
 42 63 l 1,26,-1
 49 0 l 1,27,-1
 256 0 l 1,28,-1
 252 64 l 1,29,30
 224 80 224 80 201 109 c 128,-1,31
 178 138 178 138 161.5 176 c 128,-1,32
 145 214 145 214 136 257 c 128,-1,33
 127 300 127 300 127 340 c 0,34,35
 127 424 127 424 157 488.5 c 128,-1,36
 187 553 187 553 239 590 c 128,-1,37
 291 627 291 627 358 627 c 256,38,39
 425 627 425 627 477 590 c 128,-1,40
 529 553 529 553 558.5 488.5 c 128,-1,41
 588 424 588 424 588 340 c 0,0,1
EndSplineSet
EndChar

StartChar: Delta
Encoding: 8710 8710 242
Width: 609
Flags: W
LayerCount: 2
Fore
SplineSet
262 680 m 1,0,-1
 10 0 l 1,1,-1
 599 0 l 1,2,-1
 599 12 l 1,3,-1
 337 680 l 1,4,-1
 262 680 l 1,0,-1
496 63 m 1,5,-1
 110 63 l 1,6,-1
 299 575 l 1,7,-1
 496 63 l 1,5,-1
EndSplineSet
EndChar

StartChar: divisionslash
Encoding: 8725 8725 243
Width: 402
Flags: W
LayerCount: 2
Fore
SplineSet
315 710 m 1,0,-1
 10 0 l 1,1,-1
 86 -4 l 1,2,-1
 392 706 l 1,3,-1
 315 710 l 1,0,-1
EndSplineSet
EndChar

StartChar: bulletmath
Encoding: 8729 8729 244
Width: 237
Flags: W
LayerCount: 2
Fore
SplineSet
119 239 m 0,0,1
 144 239 144 239 163.5 251 c 128,-1,2
 183 263 183 263 195 283 c 128,-1,3
 207 303 207 303 207 327 c 0,4,5
 207 352 207 352 195 372 c 128,-1,6
 183 392 183 392 163.5 404 c 128,-1,7
 144 416 144 416 118 416 c 0,8,9
 94 416 94 416 73.5 403.5 c 128,-1,10
 53 391 53 391 41.5 371.5 c 128,-1,11
 30 352 30 352 30 327 c 0,12,13
 30 303 30 303 42 283 c 128,-1,14
 54 263 54 263 74.5 251 c 128,-1,15
 95 239 95 239 119 239 c 0,0,1
EndSplineSet
EndChar

StartChar: Turkishlira
Encoding: 8378 8378 245
Width: 497
Flags: W
LayerCount: 2
Fore
SplineSet
86 0 m 1,0,-1
 154 0 l 2,1,2
 216 0 216 0 274 24 c 128,-1,3
 332 48 332 48 377.5 92 c 128,-1,4
 423 136 423 136 450 196 c 128,-1,5
 477 256 477 256 477 327 c 1,6,-1
 396 327 l 1,7,8
 396 275 396 275 376.5 228 c 128,-1,9
 357 181 357 181 323.5 145 c 128,-1,10
 290 109 290 109 249 89 c 128,-1,11
 208 69 208 69 165 69 c 1,12,-1
 165 377 l 1,13,-1
 356 445 l 1,14,-1
 344 503 l 1,15,-1
 165 440 l 1,16,-1
 165 491 l 1,17,-1
 356 558 l 1,18,-1
 344 617 l 1,19,-1
 165 553 l 1,20,-1
 165 706 l 1,21,-1
 86 695 l 1,22,-1
 86 525 l 1,23,-1
 0 495 l 1,24,-1
 11 436 l 1,25,-1
 86 462 l 1,26,-1
 86 412 l 1,27,-1
 0 382 l 1,28,-1
 11 323 l 1,29,-1
 86 349 l 1,30,-1
 86 0 l 1,0,-1
EndSplineSet
EndChar

StartChar: Ruble
Encoding: 8381 8381 246
Width: 562
Flags: W
LayerCount: 2
Fore
SplineSet
462 202 m 1,0,-1
 33 202 l 1,1,-1
 39 142 l 1,2,-1
 468 142 l 1,3,-1
 462 202 l 1,0,-1
171 0 m 1,4,-1
 171 257 l 1,5,-1
 267 257 l 2,6,7
 321 257 321 257 368 269.5 c 128,-1,8
 415 282 415 282 451 308 c 128,-1,9
 487 334 487 334 508 374.5 c 128,-1,10
 529 415 529 415 529 471 c 0,11,12
 529 546 529 546 496 592 c 128,-1,13
 463 638 463 638 406 659 c 128,-1,14
 349 680 349 680 278 680 c 2,15,-1
 93 680 l 1,16,-1
 93 0 l 1,17,-1
 171 0 l 1,4,-1
278 613 m 2,18,19
 330 613 330 613 368 599.5 c 128,-1,20
 406 586 406 586 427 555 c 128,-1,21
 448 524 448 524 448 469 c 0,22,23
 447 417 447 417 423.5 385 c 128,-1,24
 400 353 400 353 360 338.5 c 128,-1,25
 320 324 320 324 270 324 c 2,26,-1
 171 324 l 1,27,-1
 171 613 l 1,28,-1
 278 613 l 2,18,19
139 320 m 1,29,-1
 33 320 l 1,30,-1
 39 260 l 1,31,-1
 146 260 l 1,32,-1
 139 320 l 1,29,-1
EndSplineSet
EndChar

StartChar: cent
Encoding: 162 162 247
Width: 458
Flags: W
LayerCount: 2
Fore
SplineSet
312 471 m 1,0,-1
 312 607 l 1,1,-1
 243 597 l 1,2,-1
 243 473 l 1,3,-1
 312 471 l 1,0,-1
313 13 m 1,4,-1
 243 10 l 1,5,-1
 243 -112 l 1,6,-1
 313 -112 l 1,7,-1
 313 13 l 1,4,-1
401 87 m 1,8,9
 373 73 373 73 343.5 63.5 c 128,-1,10
 314 54 314 54 266 54 c 0,11,12
 216 54 216 54 181.5 79 c 128,-1,13
 147 104 147 104 130 147.5 c 128,-1,14
 113 191 113 191 113 245 c 0,15,16
 114 297 114 297 132.5 339 c 128,-1,17
 151 381 151 381 186 406 c 128,-1,18
 221 431 221 431 270 431 c 0,19,20
 317 431 317 431 347 420.5 c 128,-1,21
 377 410 377 410 405 398 c 1,22,-1
 429 453 l 1,23,24
 409 467 409 467 379.5 477 c 128,-1,25
 350 487 350 487 321 492.5 c 128,-1,26
 292 498 292 498 272 498 c 0,27,28
 199 498 199 498 145 465.5 c 128,-1,29
 91 433 91 433 62.5 376 c 128,-1,30
 34 319 34 319 33 244 c 0,31,32
 33 168 33 168 61 110 c 128,-1,33
 89 52 89 52 141.5 19.5 c 128,-1,34
 194 -13 194 -13 267 -13 c 0,35,36
 288 -13 288 -13 317 -7.5 c 128,-1,37
 346 -2 346 -2 375.5 8 c 128,-1,38
 405 18 405 18 426 31 c 1,39,-1
 401 87 l 1,8,9
EndSplineSet
EndChar

StartChar: sterling
Encoding: 163 163 248
Width: 449
Flags: W
LayerCount: 2
Fore
SplineSet
63 0 m 1,0,-1
 439 0 l 1,1,-1
 430 62 l 1,2,-1
 175 62 l 1,3,4
 192 83 192 83 199 114.5 c 128,-1,5
 206 146 206 146 206 183 c 2,6,-1
 206 320 l 1,7,-1
 364 320 l 1,8,-1
 337 379 l 1,9,-1
 206 379 l 1,10,-1
 206 530 l 2,11,12
 206 567 206 567 221.5 590.5 c 128,-1,13
 237 614 237 614 274 614 c 0,14,15
 284 614 284 614 297 610.5 c 128,-1,16
 310 607 310 607 317 603 c 1,17,-1
 336 666 l 1,18,19
 329 670 329 670 316.5 674.5 c 128,-1,20
 304 679 304 679 290 681.5 c 128,-1,21
 276 684 276 684 262 684 c 0,22,23
 219 684 219 684 188 664.5 c 128,-1,24
 157 645 157 645 141.5 609.5 c 128,-1,25
 126 574 126 574 126 526 c 2,26,-1
 126 379 l 1,27,-1
 53 379 l 1,28,-1
 54 320 l 1,29,-1
 126 320 l 1,30,-1
 126 146 l 2,31,32
 126 109 126 109 110 86 c 128,-1,33
 94 63 94 63 56 62 c 1,34,-1
 63 0 l 1,0,-1
EndSplineSet
EndChar

StartChar: currency
Encoding: 164 164 249
Width: 673
Flags: W
LayerCount: 2
Fore
SplineSet
75 -65 m 1,0,-1
 180 41 l 1,1,2
 210 16 210 16 248.5 2 c 128,-1,3
 287 -12 287 -12 331 -13 c 0,4,5
 377 -13 377 -13 418.5 1 c 128,-1,6
 460 15 460 15 491 42 c 1,7,-1
 597 -65 l 1,8,-1
 643 -11 l 1,9,-1
 541 95 l 1,10,11
 561 124 561 124 572.5 161 c 128,-1,12
 584 198 584 198 585 240 c 0,13,14
 585 283 585 283 573.5 321.5 c 128,-1,15
 562 360 562 360 542 390 c 1,16,-1
 643 494 l 1,17,-1
 597 550 l 1,18,-1
 493 444 l 1,19,20
 462 468 462 468 424 482.5 c 128,-1,21
 386 497 386 497 340 498 c 0,22,23
 294 497 294 497 254.5 482 c 128,-1,24
 215 467 215 467 183 441 c 1,25,-1
 75 550 l 1,26,-1
 30 494 l 1,27,-1
 134 388 l 1,28,29
 114 359 114 359 102 322 c 128,-1,30
 90 285 90 285 90 244 c 0,31,32
 90 201 90 201 101 162.5 c 128,-1,33
 112 124 112 124 131 93 c 1,34,-1
 30 -11 l 1,35,-1
 75 -65 l 1,0,-1
504 240 m 256,36,37
 504 188 504 188 481.5 146.5 c 128,-1,38
 459 105 459 105 420.5 81 c 128,-1,39
 382 57 382 57 333 57 c 0,40,41
 284 58 284 58 247.5 82 c 128,-1,42
 211 106 211 106 191 149 c 128,-1,43
 171 192 171 192 171 245 c 0,44,45
 172 296 172 296 193.5 337 c 128,-1,46
 215 378 215 378 254 402.5 c 128,-1,47
 293 427 293 427 341 427 c 0,48,49
 390 427 390 427 427 402 c 128,-1,50
 464 377 464 377 484 334.5 c 128,-1,51
 504 292 504 292 504 240 c 256,36,37
EndSplineSet
EndChar

StartChar: yen
Encoding: 165 165 250
Width: 563
Flags: W
LayerCount: 2
Fore
SplineSet
60 310 m 1,0,-1
 69 248 l 1,1,-1
 503 248 l 1,2,-1
 494 310 l 1,3,-1
 60 310 l 1,0,-1
60 135 m 1,4,-1
 69 75 l 1,5,-1
 503 75 l 1,6,-1
 494 135 l 1,7,-1
 60 135 l 1,4,-1
314 0 m 1,8,-1
 315 277 l 1,9,-1
 553 680 l 1,10,-1
 468 680 l 1,11,-1
 275 351 l 1,12,-1
 84 696 l 1,13,-1
 10 664 l 1,14,-1
 235 273 l 1,15,-1
 235 0 l 1,16,-1
 314 0 l 1,8,-1
EndSplineSet
EndChar

StartChar: Euro
Encoding: 8364 8364 251
Width: 598
Flags: W
LayerCount: 2
Fore
SplineSet
0 459 m 1,0,-1
 10 398 l 1,1,-1
 442 398 l 1,2,-1
 434 459 l 1,3,-1
 0 459 l 1,0,-1
0 279 m 1,4,-1
 10 217 l 1,5,-1
 442 217 l 1,6,-1
 434 279 l 1,7,-1
 0 279 l 1,4,-1
574 655 m 1,8,9
 553 669 553 669 520.5 677.5 c 128,-1,10
 488 686 488 686 457 690 c 128,-1,11
 426 694 426 694 405 694 c 0,12,13
 331 694 331 694 271.5 667 c 128,-1,14
 212 640 212 640 170.5 591 c 128,-1,15
 129 542 129 542 106.5 477 c 128,-1,16
 84 412 84 412 84 336 c 0,17,18
 84 265 84 265 104 202 c 128,-1,19
 124 139 124 139 163.5 90.5 c 128,-1,20
 203 42 203 42 262 14 c 128,-1,21
 321 -14 321 -14 399 -14 c 0,22,23
 428 -14 428 -14 461 -9 c 128,-1,24
 494 -4 494 -4 524.5 5 c 128,-1,25
 555 14 555 14 575 25 c 1,26,-1
 545 84 l 1,27,28
 517 72 517 72 482 63 c 128,-1,29
 447 54 447 54 395 54 c 0,30,31
 341 54 341 54 298.5 76 c 128,-1,32
 256 98 256 98 226.5 137.5 c 128,-1,33
 197 177 197 177 182 228 c 128,-1,34
 167 279 167 279 167 337 c 0,35,36
 167 422 167 422 198.5 487 c 128,-1,37
 230 552 230 552 283.5 589 c 128,-1,38
 337 626 337 626 404 626 c 0,39,40
 438 626 438 626 462 622.5 c 128,-1,41
 486 619 486 619 506.5 612.5 c 128,-1,42
 527 606 527 606 549 597 c 1,43,-1
 574 655 l 1,8,9
EndSplineSet
EndChar

StartChar: dollar
Encoding: 36 36 252
Width: 513
Flags: W
LayerCount: 2
Fore
SplineSet
173 -115 m 1,0,-1
 173 -6 l 1,1,2
 149 -1 149 -1 126.5 4.5 c 128,-1,3
 104 10 104 10 85 17.5 c 128,-1,4
 66 25 66 25 54 33 c 1,5,-1
 72 95 l 1,6,7
 91 87 91 87 117.5 77 c 128,-1,8
 144 67 144 67 176 60.5 c 128,-1,9
 208 54 208 54 239 54 c 0,10,11
 293 54 293 54 329 68 c 128,-1,12
 365 82 365 82 383.5 107.5 c 128,-1,13
 402 133 402 133 402 164 c 0,14,15
 402 201 402 201 381.5 227 c 128,-1,16
 361 253 361 253 321 275.5 c 128,-1,17
 281 298 281 298 222 322 c 0,18,19
 178 342 178 342 144.5 362.5 c 128,-1,20
 111 383 111 383 88.5 407.5 c 128,-1,21
 66 432 66 432 54.5 461 c 128,-1,22
 43 490 43 490 43 525 c 0,23,24
 43 580 43 580 77 622.5 c 128,-1,25
 111 665 111 665 173 684 c 1,26,-1
 173 791 l 1,27,-1
 229 801 l 1,28,-1
 229 695 l 1,29,30
 237 695 237 695 244.5 695.5 c 128,-1,31
 252 696 252 696 260 696 c 0,32,33
 269 696 269 696 277 695.5 c 128,-1,34
 285 695 285 695 294 694 c 1,35,-1
 294 792 l 1,36,-1
 352 802 l 1,37,-1
 352 684 l 1,38,39
 376 678 376 678 396.5 670 c 128,-1,40
 417 662 417 662 434 654 c 1,41,-1
 407 593 l 1,42,43
 390 601 390 601 369.5 609 c 128,-1,44
 349 617 349 617 323.5 622.5 c 128,-1,45
 298 628 298 628 264 628 c 0,46,47
 200 628 200 628 159.5 601 c 128,-1,48
 119 574 119 574 119 526 c 0,49,50
 119 490 119 490 140 463.5 c 128,-1,51
 161 437 161 437 201.5 415 c 128,-1,52
 242 393 242 393 301 364 c 0,53,54
 345 345 345 345 378 325 c 128,-1,55
 411 305 411 305 434 282 c 128,-1,56
 457 259 457 259 469 230.5 c 128,-1,57
 481 202 481 202 481 165 c 0,58,59
 481 109 481 109 447.5 66.5 c 128,-1,60
 414 24 414 24 352 4 c 1,61,-1
 352 -115 l 1,62,-1
 294 -115 l 1,63,-1
 294 -9 l 1,64,65
 281 -11 281 -11 267.5 -12 c 128,-1,66
 254 -13 254 -13 240 -13 c 2,67,-1
 229 -13 l 1,68,-1
 229 -115 l 1,69,-1
 173 -115 l 1,0,-1
EndSplineSet
EndChar

StartChar: comma
Encoding: 44 44 253
Width: 172
Flags: W
LayerCount: 2
Fore
SplineSet
88 107 m 0,0,1
 74 107 74 107 61 99.5 c 128,-1,2
 48 92 48 92 41 80.5 c 128,-1,3
 34 69 34 69 34 54 c 0,4,5
 34 41 34 41 40.5 29 c 128,-1,6
 47 17 47 17 57.5 9.5 c 128,-1,7
 68 2 68 2 80 1 c 1,8,9
 77 -27 77 -27 60.5 -46 c 128,-1,10
 44 -65 44 -65 20 -83 c 1,11,-1
 41 -120 l 1,12,13
 70 -104 70 -104 93 -78 c 128,-1,14
 116 -52 116 -52 129 -19.5 c 128,-1,15
 142 13 142 13 142 44 c 0,16,17
 142 73 142 73 126 90 c 128,-1,18
 110 107 110 107 88 107 c 0,0,1
EndSplineSet
EndChar

StartChar: period
Encoding: 46 46 254
Width: 167
Flags: W
LayerCount: 2
Fore
SplineSet
85 0 m 0,0,1
 107 0 107 0 122 15.5 c 128,-1,2
 137 31 137 31 137 54 c 0,3,4
 137 76 137 76 122 91.5 c 128,-1,5
 107 107 107 107 85 107 c 0,6,7
 61 107 61 107 45.5 91.5 c 128,-1,8
 30 76 30 76 30 54 c 0,9,10
 30 31 30 31 45.5 15.5 c 128,-1,11
 61 0 61 0 85 0 c 0,0,1
EndSplineSet
EndChar

StartChar: exclam
Encoding: 33 33 255
Width: 168
Flags: W
LayerCount: 2
Fore
SplineSet
56 223 m 1,0,-1
 114 196 l 1,1,-1
 129 702 l 1,2,-1
 40 702 l 1,3,-1
 56 223 l 1,0,-1
85 107 m 0,4,5
 63 107 63 107 46.5 91.5 c 128,-1,6
 30 76 30 76 30 54 c 0,7,8
 30 31 30 31 46.5 15.5 c 128,-1,9
 63 0 63 0 85 0 c 256,10,11
 107 0 107 0 122.5 16 c 128,-1,12
 138 32 138 32 138 54 c 256,13,14
 138 76 138 76 123 91.5 c 128,-1,15
 108 107 108 107 85 107 c 0,4,5
EndSplineSet
EndChar

StartChar: exclamdown
Encoding: 161 161 256
Width: 168
Flags: W
LayerCount: 2
Fore
SplineSet
85 592 m 256,0,1
 107 592 107 592 122.5 608.5 c 128,-1,2
 138 625 138 625 138 648 c 0,3,4
 138 669 138 669 122.5 685.5 c 128,-1,5
 107 702 107 702 85 702 c 256,6,7
 63 702 63 702 46.5 686 c 128,-1,8
 30 670 30 670 30 648 c 0,9,10
 30 625 30 625 46.5 608.5 c 128,-1,11
 63 592 63 592 85 592 c 256,0,1
114 478 m 1,12,-1
 56 505 l 1,13,-1
 40 0 l 1,14,-1
 129 0 l 1,15,-1
 114 478 l 1,12,-1
EndSplineSet
EndChar

StartChar: colon
Encoding: 58 58 257
Width: 167
Flags: W
LayerCount: 2
Fore
SplineSet
84 348 m 0,0,1
 106 348 106 348 121.5 364 c 128,-1,2
 137 380 137 380 137 402 c 256,3,4
 137 424 137 424 121.5 440.5 c 128,-1,5
 106 457 106 457 83 457 c 0,6,7
 62 457 62 457 46 440 c 128,-1,8
 30 423 30 423 30 402 c 0,9,10
 30 380 30 380 45.5 364 c 128,-1,11
 61 348 61 348 84 348 c 0,0,1
84 27 m 0,12,13
 106 27 106 27 121.5 42.5 c 128,-1,14
 137 58 137 58 137 81 c 256,15,16
 137 104 137 104 121.5 120 c 128,-1,17
 106 136 106 136 83 136 c 0,18,19
 62 136 62 136 46 120 c 128,-1,20
 30 104 30 104 30 81 c 0,21,22
 30 59 30 59 45.5 43 c 128,-1,23
 61 27 61 27 84 27 c 0,12,13
EndSplineSet
EndChar

StartChar: semicolon
Encoding: 59 59 258
Width: 174
Flags: W
LayerCount: 2
Fore
SplineSet
90 348 m 0,0,1
 112 348 112 348 128 364 c 128,-1,2
 144 380 144 380 144 402 c 256,3,4
 144 424 144 424 128 440.5 c 128,-1,5
 112 457 112 457 90 457 c 0,6,7
 66 457 66 457 50 440.5 c 128,-1,8
 34 424 34 424 34 402 c 256,9,10
 34 380 34 380 50 364 c 128,-1,11
 66 348 66 348 90 348 c 0,0,1
88 136 m 0,12,13
 74 136 74 136 61 128 c 128,-1,14
 48 120 48 120 41 108 c 128,-1,15
 34 96 34 96 34 81 c 0,16,17
 34 68 34 68 40.5 56 c 128,-1,18
 47 44 47 44 57.5 36.5 c 128,-1,19
 68 29 68 29 80 28 c 1,20,21
 77 0 77 0 60.5 -19 c 128,-1,22
 44 -38 44 -38 20 -56 c 1,23,-1
 41 -93 l 1,24,25
 70 -78 70 -78 93 -52 c 128,-1,26
 116 -26 116 -26 129 7 c 128,-1,27
 142 40 142 40 142 71 c 0,28,29
 142 100 142 100 126 118 c 128,-1,30
 110 136 110 136 88 136 c 0,12,13
EndSplineSet
EndChar

StartChar: question
Encoding: 63 63 259
Width: 411
Flags: W
LayerCount: 2
Fore
SplineSet
191 701 m 0,0,1
 133 701 133 701 92.5 684.5 c 128,-1,2
 52 668 52 668 10 642 c 1,3,-1
 20 572 l 1,4,5
 62 602 62 602 101 618 c 128,-1,6
 140 634 140 634 188 634 c 0,7,8
 244 634 244 634 273.5 610 c 128,-1,9
 303 586 303 586 303 532 c 0,10,11
 303 479 303 479 254 436 c 128,-1,12
 205 393 205 393 129 368 c 1,13,-1
 137 172 l 1,14,-1
 195 149 l 1,15,-1
 204 328 l 1,16,17
 258 353 258 353 297.5 386.5 c 128,-1,18
 337 420 337 420 359 458 c 128,-1,19
 381 496 381 496 381 534 c 0,20,21
 381 583 381 583 361 620.5 c 128,-1,22
 341 658 341 658 299 679.5 c 128,-1,23
 257 701 257 701 191 701 c 0,0,1
163 107 m 0,24,25
 140 107 140 107 124.5 91.5 c 128,-1,26
 109 76 109 76 109 54 c 256,27,28
 109 32 109 32 124.5 16 c 128,-1,29
 140 0 140 0 163 0 c 0,30,31
 185 0 185 0 201.5 16 c 128,-1,32
 218 32 218 32 218 54 c 256,33,34
 218 76 218 76 201.5 91.5 c 128,-1,35
 185 107 185 107 163 107 c 0,24,25
EndSplineSet
EndChar

StartChar: questiondown
Encoding: 191 191 260
Width: 411
Flags: W
LayerCount: 2
Fore
SplineSet
248 523 m 0,0,1
 271 523 271 523 287 539 c 128,-1,2
 303 555 303 555 303 578 c 0,3,4
 303 600 303 600 287 616.5 c 128,-1,5
 271 633 271 633 248 633 c 0,6,7
 227 633 227 633 210.5 616.5 c 128,-1,8
 194 600 194 600 194 578 c 0,9,10
 194 555 194 555 210.5 539 c 128,-1,11
 227 523 227 523 248 523 c 0,0,1
221 -69 m 0,12,13
 279 -69 279 -69 320.5 -53 c 128,-1,14
 362 -37 362 -37 401 -11 c 1,15,-1
 391 60 l 1,16,17
 349 31 349 31 310.5 14.5 c 128,-1,18
 272 -2 272 -2 223 -2 c 0,19,20
 168 -2 168 -2 138.5 22 c 128,-1,21
 109 46 109 46 109 99 c 256,22,23
 109 152 109 152 158 195.5 c 128,-1,24
 207 239 207 239 283 264 c 1,25,-1
 274 459 l 1,26,-1
 217 483 l 1,27,-1
 208 305 l 1,28,29
 154 281 154 281 114 246.5 c 128,-1,30
 74 212 74 212 52 173.5 c 128,-1,31
 30 135 30 135 30 97 c 0,32,33
 30 49 30 49 50 11 c 128,-1,34
 70 -27 70 -27 112.5 -48 c 128,-1,35
 155 -69 155 -69 221 -69 c 0,12,13
EndSplineSet
EndChar

StartChar: asterisk
Encoding: 42 42 261
Width: 351
Flags: W
LayerCount: 2
Fore
SplineSet
206 772 m 1,0,-1
 144 772 l 1,1,-1
 143 661 l 1,2,-1
 27 686 l 1,3,-1
 10 634 l 1,4,-1
 127 611 l 1,5,-1
 45 493 l 1,6,-1
 92 459 l 1,7,-1
 176 572 l 1,8,-1
 259 459 l 1,9,-1
 305 493 l 1,10,-1
 223 611 l 1,11,-1
 341 634 l 1,12,-1
 324 686 l 1,13,-1
 207 661 l 1,14,-1
 206 772 l 1,0,-1
EndSplineSet
EndChar

StartChar: quotedbl
Encoding: 34 34 262
Width: 328
Flags: W
LayerCount: 2
Fore
SplineSet
244 712 m 0,0,1
 229 712 229 712 217 704 c 128,-1,2
 205 696 205 696 197.5 683.5 c 128,-1,3
 190 671 190 671 190 657 c 0,4,5
 190 637 190 637 203.5 621 c 128,-1,6
 217 605 217 605 236 604 c 1,7,8
 232 576 232 576 216 557 c 128,-1,9
 200 538 200 538 176 521 c 1,10,-1
 197 484 l 1,11,12
 226 499 226 499 248.5 525 c 128,-1,13
 271 551 271 551 284.5 584 c 128,-1,14
 298 617 298 617 298 649 c 0,15,16
 298 677 298 677 282 694.5 c 128,-1,17
 266 712 266 712 244 712 c 0,0,1
88 712 m 0,18,19
 73 712 73 712 60.5 704 c 128,-1,20
 48 696 48 696 40.5 683.5 c 128,-1,21
 33 671 33 671 33 657 c 0,22,23
 33 645 33 645 39.5 632.5 c 128,-1,24
 46 620 46 620 56.5 612.5 c 128,-1,25
 67 605 67 605 79 604 c 1,26,27
 75 576 75 576 59 557 c 128,-1,28
 43 538 43 538 20 521 c 1,29,-1
 41 484 l 1,30,31
 69 499 69 499 92 525 c 128,-1,32
 115 551 115 551 128.5 584 c 128,-1,33
 142 617 142 617 142 649 c 0,34,35
 142 677 142 677 126 694.5 c 128,-1,36
 110 712 110 712 88 712 c 0,18,19
EndSplineSet
EndChar

StartChar: quotesingle
Encoding: 39 39 263
Width: 172
Flags: W
LayerCount: 2
Fore
SplineSet
88 712 m 0,0,1
 73 712 73 712 60.5 704 c 128,-1,2
 48 696 48 696 40.5 683.5 c 128,-1,3
 33 671 33 671 33 657 c 0,4,5
 33 645 33 645 39.5 632.5 c 128,-1,6
 46 620 46 620 56.5 612.5 c 128,-1,7
 67 605 67 605 79 604 c 1,8,9
 75 576 75 576 59 557 c 128,-1,10
 43 538 43 538 20 521 c 1,11,-1
 41 484 l 1,12,13
 69 499 69 499 92 525 c 128,-1,14
 115 551 115 551 128.5 584 c 128,-1,15
 142 617 142 617 142 649 c 0,16,17
 142 677 142 677 126 694.5 c 128,-1,18
 110 712 110 712 88 712 c 0,0,1
EndSplineSet
EndChar

StartChar: quoteleft
Encoding: 8216 8216 264
Width: 172
Flags: W
LayerCount: 2
Fore
SplineSet
84 484 m 0,0,1
 100 484 100 484 112 492 c 128,-1,2
 124 500 124 500 131 512 c 128,-1,3
 138 524 138 524 138 538 c 0,4,5
 138 558 138 558 125 574.5 c 128,-1,6
 112 591 112 591 92 592 c 1,7,8
 94 619 94 619 111 637.5 c 128,-1,9
 128 656 128 656 152 673 c 1,10,-1
 131 712 l 1,11,12
 104 698 104 698 80.5 671.5 c 128,-1,13
 57 645 57 645 43.5 612 c 128,-1,14
 30 579 30 579 30 547 c 0,15,16
 30 519 30 519 45 501.5 c 128,-1,17
 60 484 60 484 84 484 c 0,0,1
EndSplineSet
EndChar

StartChar: quoteright
Encoding: 8217 8217 265
Width: 172
Flags: W
LayerCount: 2
Fore
SplineSet
88 712 m 0,0,1
 73 712 73 712 60.5 704 c 128,-1,2
 48 696 48 696 40.5 683.5 c 128,-1,3
 33 671 33 671 33 657 c 0,4,5
 33 645 33 645 39.5 632.5 c 128,-1,6
 46 620 46 620 56.5 612.5 c 128,-1,7
 67 605 67 605 79 604 c 1,8,9
 75 576 75 576 59 557 c 128,-1,10
 43 538 43 538 20 521 c 1,11,-1
 41 484 l 1,12,13
 69 499 69 499 92 525 c 128,-1,14
 115 551 115 551 128.5 584 c 128,-1,15
 142 617 142 617 142 649 c 0,16,17
 142 677 142 677 126 694.5 c 128,-1,18
 110 712 110 712 88 712 c 0,0,1
EndSplineSet
EndChar

StartChar: quotesinglbase
Encoding: 8218 8218 266
Width: 172
Flags: W
LayerCount: 2
Fore
SplineSet
88 107 m 0,0,1
 73 107 73 107 60.5 99.5 c 128,-1,2
 48 92 48 92 40.5 80.5 c 128,-1,3
 33 69 33 69 33 54 c 0,4,5
 33 41 33 41 39.5 29 c 128,-1,6
 46 17 46 17 56.5 9.5 c 128,-1,7
 67 2 67 2 79 1 c 1,8,9
 75 -27 75 -27 59 -46 c 128,-1,10
 43 -65 43 -65 20 -83 c 1,11,-1
 41 -120 l 1,12,13
 69 -104 69 -104 92 -78 c 128,-1,14
 115 -52 115 -52 128.5 -19.5 c 128,-1,15
 142 13 142 13 142 44 c 0,16,17
 142 73 142 73 126 90 c 128,-1,18
 110 107 110 107 88 107 c 0,0,1
EndSplineSet
EndChar

StartChar: quotedblleft
Encoding: 8220 8220 267
Width: 329
Flags: W
LayerCount: 2
Fore
SplineSet
84 484 m 0,0,1
 100 484 100 484 112 492 c 128,-1,2
 124 500 124 500 131 512 c 128,-1,3
 138 524 138 524 138 538 c 0,4,5
 138 558 138 558 125 574.5 c 128,-1,6
 112 591 112 591 92 592 c 1,7,8
 94 619 94 619 111 637.5 c 128,-1,9
 128 656 128 656 152 673 c 1,10,-1
 131 712 l 1,11,12
 104 698 104 698 80.5 671.5 c 128,-1,13
 57 645 57 645 43.5 612 c 128,-1,14
 30 579 30 579 30 547 c 0,15,16
 30 519 30 519 45 501.5 c 128,-1,17
 60 484 60 484 84 484 c 0,0,1
240 484 m 0,18,19
 255 484 255 484 267.5 492 c 128,-1,20
 280 500 280 500 287.5 512 c 128,-1,21
 295 524 295 524 295 538 c 0,22,23
 295 551 295 551 288.5 563 c 128,-1,24
 282 575 282 575 272 583 c 128,-1,25
 262 591 262 591 249 592 c 1,26,27
 252 619 252 619 268 637.5 c 128,-1,28
 284 656 284 656 309 673 c 1,29,-1
 288 712 l 1,30,31
 260 698 260 698 236.5 671.5 c 128,-1,32
 213 645 213 645 200 612 c 128,-1,33
 187 579 187 579 187 547 c 0,34,35
 187 519 187 519 202.5 501.5 c 128,-1,36
 218 484 218 484 240 484 c 0,18,19
EndSplineSet
EndChar

StartChar: quotedblright
Encoding: 8221 8221 268
Width: 328
Flags: W
LayerCount: 2
Fore
SplineSet
244 712 m 0,0,1
 229 712 229 712 217 704 c 128,-1,2
 205 696 205 696 197.5 683.5 c 128,-1,3
 190 671 190 671 190 657 c 0,4,5
 190 637 190 637 203.5 621 c 128,-1,6
 217 605 217 605 236 604 c 1,7,8
 232 576 232 576 216 557 c 128,-1,9
 200 538 200 538 176 521 c 1,10,-1
 197 484 l 1,11,12
 226 499 226 499 248.5 525 c 128,-1,13
 271 551 271 551 284.5 584 c 128,-1,14
 298 617 298 617 298 649 c 0,15,16
 298 677 298 677 282 694.5 c 128,-1,17
 266 712 266 712 244 712 c 0,0,1
88 712 m 0,18,19
 73 712 73 712 60.5 704 c 128,-1,20
 48 696 48 696 40.5 683.5 c 128,-1,21
 33 671 33 671 33 657 c 0,22,23
 33 645 33 645 39.5 632.5 c 128,-1,24
 46 620 46 620 56.5 612.5 c 128,-1,25
 67 605 67 605 79 604 c 1,26,27
 75 576 75 576 59 557 c 128,-1,28
 43 538 43 538 20 521 c 1,29,-1
 41 484 l 1,30,31
 69 499 69 499 92 525 c 128,-1,32
 115 551 115 551 128.5 584 c 128,-1,33
 142 617 142 617 142 649 c 0,34,35
 142 677 142 677 126 694.5 c 128,-1,36
 110 712 110 712 88 712 c 0,18,19
EndSplineSet
EndChar

StartChar: quotedblbase
Encoding: 8222 8222 269
Width: 328
Flags: W
LayerCount: 2
Fore
SplineSet
88 107 m 0,0,1
 73 107 73 107 60.5 100 c 128,-1,2
 48 93 48 93 40.5 81 c 128,-1,3
 33 69 33 69 33 54 c 0,4,5
 33 41 33 41 39.5 29 c 128,-1,6
 46 17 46 17 56.5 9.5 c 128,-1,7
 67 2 67 2 79 1 c 1,8,9
 75 -27 75 -27 59 -45.5 c 128,-1,10
 43 -64 43 -64 20 -82 c 1,11,-1
 41 -120 l 1,12,13
 69 -104 69 -104 92 -78 c 128,-1,14
 115 -52 115 -52 128.5 -19.5 c 128,-1,15
 142 13 142 13 142 44 c 0,16,17
 142 73 142 73 126 90 c 128,-1,18
 110 107 110 107 88 107 c 0,0,1
244 107 m 0,19,20
 229 107 229 107 217 99.5 c 128,-1,21
 205 92 205 92 197.5 80.5 c 128,-1,22
 190 69 190 69 190 54 c 0,23,24
 190 34 190 34 203.5 18 c 128,-1,25
 217 2 217 2 236 1 c 1,26,27
 232 -27 232 -27 216 -46 c 128,-1,28
 200 -65 200 -65 176 -83 c 1,29,-1
 197 -120 l 1,30,31
 226 -104 226 -104 248.5 -78 c 128,-1,32
 271 -52 271 -52 284.5 -19.5 c 128,-1,33
 298 13 298 13 298 44 c 0,34,35
 298 73 298 73 282 90 c 128,-1,36
 266 107 266 107 244 107 c 0,19,20
EndSplineSet
EndChar

StartChar: periodcentered
Encoding: 183 183 270
Width: 167
Flags: W
LayerCount: 2
Fore
SplineSet
85 207 m 0,0,1
 107 207 107 207 122 223.5 c 128,-1,2
 137 240 137 240 137 262 c 256,3,4
 137 284 137 284 122 300 c 128,-1,5
 107 316 107 316 85 316 c 0,6,7
 61 316 61 316 45.5 300.5 c 128,-1,8
 30 285 30 285 30 262 c 0,9,10
 30 240 30 240 45.5 223.5 c 128,-1,11
 61 207 61 207 85 207 c 0,0,1
EndSplineSet
EndChar

StartChar: parenleft
Encoding: 40 40 271
Width: 265
Flags: W
LayerCount: 2
Fore
SplineSet
235 -14 m 1,0,1
 213 9 213 9 193.5 50 c 128,-1,2
 174 91 174 91 159 140 c 128,-1,3
 144 189 144 189 135.5 236.5 c 128,-1,4
 127 284 127 284 127 321 c 0,5,6
 127 357 127 357 135.5 403.5 c 128,-1,7
 144 450 144 450 159 498 c 128,-1,8
 174 546 174 546 193.5 587 c 128,-1,9
 213 628 213 628 235 654 c 1,10,-1
 171 677 l 1,11,12
 130 623 130 623 103 561 c 128,-1,13
 76 499 76 499 63 437.5 c 128,-1,14
 50 376 50 376 50 320 c 0,15,16
 50 263 50 263 63.5 200.5 c 128,-1,17
 77 138 77 138 103.5 77 c 128,-1,18
 130 16 130 16 171 -38 c 1,19,-1
 235 -14 l 1,0,1
EndSplineSet
EndChar

StartChar: parenright
Encoding: 41 41 272
Width: 265
Flags: W
LayerCount: 2
Fore
SplineSet
30 653 m 1,0,1
 51 629 51 629 70.5 588 c 128,-1,2
 90 547 90 547 105 498.5 c 128,-1,3
 120 450 120 450 128.5 403 c 128,-1,4
 137 356 137 356 137 320 c 256,5,6
 137 284 137 284 128.5 237 c 128,-1,7
 120 190 120 190 105 141.5 c 128,-1,8
 90 93 90 93 70.5 51.5 c 128,-1,9
 51 10 51 10 30 -15 c 1,10,-1
 94 -38 l 1,11,12
 134 18 134 18 161 79 c 128,-1,13
 188 140 188 140 201.5 202 c 128,-1,14
 215 264 215 264 215 320 c 0,15,16
 215 377 215 377 201.5 439 c 128,-1,17
 188 501 188 501 161 562.5 c 128,-1,18
 134 624 134 624 94 677 c 1,19,-1
 30 653 l 1,0,1
EndSplineSet
EndChar

StartChar: bracketleft
Encoding: 91 91 273
Width: 295
Flags: W
LayerCount: 2
Fore
SplineSet
100 -88 m 1,0,-1
 285 -88 l 1,1,-1
 274 -30 l 1,2,-1
 175 -30 l 1,3,-1
 175 636 l 1,4,-1
 274 636 l 1,5,-1
 285 696 l 1,6,-1
 100 696 l 1,7,-1
 100 -88 l 1,0,-1
EndSplineSet
EndChar

StartChar: bracketright
Encoding: 93 93 274
Width: 295
Flags: W
LayerCount: 2
Fore
SplineSet
195 696 m 1,0,-1
 10 696 l 1,1,-1
 20 636 l 1,2,-1
 119 636 l 1,3,-1
 119 -30 l 1,4,-1
 21 -30 l 1,5,-1
 10 -88 l 1,6,-1
 195 -88 l 1,7,-1
 195 696 l 1,0,-1
EndSplineSet
EndChar

StartChar: braceleft
Encoding: 123 123 275
Width: 272
Flags: W
LayerCount: 2
Fore
SplineSet
147 310 m 1,0,1
 178 323 178 323 191 348.5 c 128,-1,2
 204 374 204 374 204 416 c 0,3,4
 204 430 204 430 199.5 447.5 c 128,-1,5
 195 465 195 465 186 486 c 0,6,7
 176 507 176 507 171.5 524 c 128,-1,8
 167 541 167 541 167 553 c 0,9,10
 167 570 167 570 182 585 c 128,-1,11
 197 600 197 600 230 600 c 2,12,-1
 255 600 l 1,13,-1
 262 659 l 1,14,-1
 236 659 l 2,15,16
 169 659 169 659 134.5 631.5 c 128,-1,17
 100 604 100 604 100 553 c 0,18,19
 100 537 100 537 104 520 c 128,-1,20
 108 503 108 503 116 483 c 256,21,22
 124 463 124 463 128 444.5 c 128,-1,23
 132 426 132 426 132 409 c 0,24,25
 132 377 132 377 112.5 355.5 c 128,-1,26
 93 334 93 334 66 334 c 2,27,-1
 30 334 l 1,28,-1
 30 282 l 1,29,-1
 66 282 l 2,30,31
 91 282 91 282 113 262 c 128,-1,32
 135 242 135 242 135 211 c 0,33,34
 135 196 135 196 130.5 178.5 c 128,-1,35
 126 161 126 161 117 140 c 0,36,37
 108 120 108 120 103.5 102 c 128,-1,38
 99 84 99 84 99 69 c 0,39,40
 99 16 99 16 132 -13 c 128,-1,41
 165 -42 165 -42 236 -42 c 2,42,-1
 262 -42 l 1,43,-1
 255 17 l 1,44,-1
 230 17 l 2,45,46
 198 17 198 17 182.5 31.5 c 128,-1,47
 167 46 167 46 167 64 c 0,48,49
 167 76 167 76 171.5 93 c 128,-1,50
 176 110 176 110 186 132 c 0,51,52
 195 153 195 153 199.5 170.5 c 128,-1,53
 204 188 204 188 204 201 c 0,54,55
 204 240 204 240 189.5 268 c 128,-1,56
 175 296 175 296 147 310 c 1,0,1
EndSplineSet
EndChar

StartChar: braceright
Encoding: 125 125 276
Width: 271
Flags: W
LayerCount: 2
Fore
SplineSet
124 306 m 1,0,1
 95 293 95 293 81 267.5 c 128,-1,2
 67 242 67 242 67 201 c 0,3,4
 67 186 67 186 71.5 168.5 c 128,-1,5
 76 151 76 151 85 130 c 0,6,7
 95 109 95 109 99.5 92.5 c 128,-1,8
 104 76 104 76 104 63 c 0,9,10
 104 46 104 46 89.5 31.5 c 128,-1,11
 75 17 75 17 41 17 c 2,12,-1
 17 17 l 1,13,-1
 9 -42 l 1,14,-1
 36 -42 l 2,15,16
 102 -42 102 -42 136.5 -14.5 c 128,-1,17
 171 13 171 13 171 63 c 0,18,19
 171 79 171 79 167 97 c 128,-1,20
 163 115 163 115 155 134 c 0,21,22
 147 154 147 154 143 172.5 c 128,-1,23
 139 191 139 191 139 207 c 0,24,25
 139 240 139 240 158.5 262 c 128,-1,26
 178 284 178 284 205 284 c 2,27,-1
 241 284 l 1,28,-1
 241 335 l 1,29,-1
 205 335 l 2,30,31
 180 335 180 335 158 355 c 128,-1,32
 136 375 136 375 136 406 c 0,33,34
 136 421 136 421 140.5 438.5 c 128,-1,35
 145 456 145 456 154 476 c 0,36,37
 163 497 163 497 167.5 515 c 128,-1,38
 172 533 172 533 172 548 c 0,39,40
 172 601 172 601 139 629.5 c 128,-1,41
 106 658 106 658 36 658 c 2,42,-1
 9 658 l 1,43,-1
 17 600 l 1,44,-1
 41 600 l 2,45,46
 74 600 74 600 89 585 c 128,-1,47
 104 570 104 570 104 553 c 0,48,49
 104 541 104 541 99.5 523.5 c 128,-1,50
 95 506 95 506 85 485 c 0,51,52
 76 464 76 464 71.5 446.5 c 128,-1,53
 67 429 67 429 67 415 c 0,54,55
 67 377 67 377 81.5 349 c 128,-1,56
 96 321 96 321 124 306 c 1,0,1
EndSplineSet
EndChar

StartChar: slash
Encoding: 47 47 277
Width: 402
Flags: W
LayerCount: 2
Fore
SplineSet
315 710 m 1,0,-1
 10 0 l 1,1,-1
 86 -4 l 1,2,-1
 392 706 l 1,3,-1
 315 710 l 1,0,-1
EndSplineSet
EndChar

StartChar: backslash
Encoding: 92 92 278
Width: 402
Flags: W
LayerCount: 2
Fore
SplineSet
392 0 m 1,0,-1
 87 710 l 1,1,-1
 10 706 l 1,2,-1
 315 -4 l 1,3,-1
 392 0 l 1,0,-1
EndSplineSet
EndChar

StartChar: bar
Encoding: 124 124 279
Width: 264
Flags: W
LayerCount: 2
Fore
SplineSet
93 711 m 1,0,-1
 93 0 l 1,1,-1
 171 -6 l 1,2,-1
 171 705 l 1,3,-1
 93 711 l 1,0,-1
EndSplineSet
EndChar

StartChar: brokenbar
Encoding: 166 166 280
Width: 264
Flags: W
LayerCount: 2
Fore
SplineSet
93 711 m 1,0,-1
 93 412 l 1,1,-1
 171 406 l 1,2,-1
 171 705 l 1,3,-1
 93 711 l 1,0,-1
93 293 m 1,4,-1
 93 0 l 1,5,-1
 171 -6 l 1,6,-1
 171 288 l 1,7,-1
 93 293 l 1,4,-1
EndSplineSet
EndChar

StartChar: guillemotleft
Encoding: 171 171 281
Width: 373
Flags: W
LayerCount: 2
Fore
SplineSet
186 222 m 1,0,-1
 332 83 l 1,1,-1
 353 136 l 1,2,-1
 247 245 l 1,3,-1
 353 354 l 1,4,-1
 332 407 l 1,5,-1
 186 268 l 1,6,-1
 186 222 l 1,0,-1
30 222 m 1,7,-1
 175 83 l 1,8,-1
 197 136 l 1,9,-1
 91 245 l 1,10,-1
 197 354 l 1,11,-1
 175 407 l 1,12,-1
 30 268 l 1,13,-1
 30 222 l 1,7,-1
EndSplineSet
EndChar

StartChar: guillemotright
Encoding: 187 187 282
Width: 373
Flags: W
LayerCount: 2
Fore
SplineSet
188 268 m 1,0,-1
 43 407 l 1,1,-1
 20 354 l 1,2,-1
 126 245 l 1,3,-1
 20 136 l 1,4,-1
 43 83 l 1,5,-1
 188 222 l 1,6,-1
 188 268 l 1,0,-1
343 268 m 1,7,-1
 199 407 l 1,8,-1
 177 354 l 1,9,-1
 283 245 l 1,10,-1
 177 136 l 1,11,-1
 199 83 l 1,12,-1
 343 222 l 1,13,-1
 343 268 l 1,7,-1
EndSplineSet
EndChar

StartChar: pi
Encoding: 960 960 283
Width: 594
Flags: W
LayerCount: 2
Fore
SplineSet
188 0 m 1,0,-1
 188 422 l 1,1,-1
 406 422 l 1,2,-1
 406 0 l 1,3,-1
 485 0 l 1,4,-1
 485 422 l 1,5,-1
 584 422 l 1,6,-1
 584 485 l 1,7,-1
 10 485 l 1,8,-1
 10 422 l 1,9,-1
 108 422 l 1,10,-1
 108 0 l 1,11,-1
 188 0 l 1,0,-1
EndSplineSet
EndChar

StartChar: dagger
Encoding: 8224 8224 284
Width: 392
Flags: W
LayerCount: 2
Fore
SplineSet
155 783 m 1,0,-1
 155 625 l 1,1,-1
 30 625 l 1,2,-1
 49 559 l 1,3,-1
 155 559 l 1,4,-1
 165 0 l 1,5,-1
 229 -4 l 1,6,-1
 239 559 l 1,7,-1
 362 559 l 1,8,-1
 343 625 l 1,9,-1
 239 625 l 1,10,-1
 239 780 l 1,11,-1
 155 783 l 1,0,-1
EndSplineSet
EndChar

StartChar: daggerdbl
Encoding: 8225 8225 285
Width: 397
Flags: W
LayerCount: 2
Fore
SplineSet
242 1 m 1,0,-1
 238 178 l 1,1,-1
 367 178 l 1,2,-1
 348 245 l 1,3,-1
 239 245 l 1,4,-1
 242 526 l 1,5,-1
 367 526 l 1,6,-1
 348 594 l 1,7,-1
 239 594 l 1,8,-1
 244 780 l 1,9,-1
 155 783 l 1,10,-1
 160 594 l 1,11,-1
 30 594 l 1,12,-1
 49 526 l 1,13,-1
 158 526 l 1,14,-1
 155 245 l 1,15,-1
 30 245 l 1,16,-1
 49 178 l 1,17,-1
 158 178 l 1,18,-1
 153 -6 l 1,19,-1
 242 1 l 1,0,-1
EndSplineSet
EndChar

StartChar: bullet
Encoding: 8226 8226 286
Width: 237
Flags: W
LayerCount: 2
Fore
SplineSet
119 239 m 0,0,1
 144 239 144 239 163.5 251 c 128,-1,2
 183 263 183 263 195 283 c 128,-1,3
 207 303 207 303 207 327 c 0,4,5
 207 352 207 352 195 372 c 128,-1,6
 183 392 183 392 163.5 404 c 128,-1,7
 144 416 144 416 118 416 c 0,8,9
 94 416 94 416 73.5 403.5 c 128,-1,10
 53 391 53 391 41.5 371.5 c 128,-1,11
 30 352 30 352 30 327 c 0,12,13
 30 303 30 303 42 283 c 128,-1,14
 54 263 54 263 74.5 251 c 128,-1,15
 95 239 95 239 119 239 c 0,0,1
EndSplineSet
EndChar

StartChar: ellipsis
Encoding: 8230 8230 287
Width: 464
Flags: W
LayerCount: 2
Fore
SplineSet
81 0 m 0,0,1
 102 0 102 0 116.5 14.5 c 128,-1,2
 131 29 131 29 131 50 c 256,3,4
 131 71 131 71 116.5 86 c 128,-1,5
 102 101 102 101 81 101 c 0,6,7
 59 101 59 101 44.5 86 c 128,-1,8
 30 71 30 71 30 50 c 256,9,10
 30 29 30 29 44.5 14.5 c 128,-1,11
 59 0 59 0 81 0 c 0,0,1
235 0 m 0,12,13
 255 0 255 0 270 14.5 c 128,-1,14
 285 29 285 29 285 50 c 256,15,16
 285 71 285 71 270 86 c 128,-1,17
 255 101 255 101 235 101 c 0,18,19
 213 101 213 101 198 86 c 128,-1,20
 183 71 183 71 183 50 c 256,21,22
 183 29 183 29 198 14.5 c 128,-1,23
 213 0 213 0 235 0 c 0,12,13
384 0 m 0,24,25
 405 0 405 0 419.5 14.5 c 128,-1,26
 434 29 434 29 434 50 c 256,27,28
 434 71 434 71 419.5 86 c 128,-1,29
 405 101 405 101 384 101 c 0,30,31
 362 101 362 101 347 86 c 128,-1,32
 332 71 332 71 332 50 c 256,33,34
 332 29 332 29 347 14.5 c 128,-1,35
 362 0 362 0 384 0 c 0,24,25
EndSplineSet
EndChar

StartChar: guilsinglleft
Encoding: 8249 8249 288
Width: 217
Flags: W
LayerCount: 2
Fore
SplineSet
30 221 m 1,0,-1
 175 83 l 1,1,-1
 197 139 l 1,2,-1
 95 245 l 1,3,-1
 197 351 l 1,4,-1
 175 408 l 1,5,-1
 30 269 l 1,6,-1
 30 221 l 1,0,-1
EndSplineSet
EndChar

StartChar: guilsinglright
Encoding: 8250 8250 289
Width: 218
Flags: W
LayerCount: 2
Fore
SplineSet
188 269 m 1,0,-1
 43 408 l 1,1,-1
 20 351 l 1,2,-1
 123 245 l 1,3,-1
 20 139 l 1,4,-1
 43 83 l 1,5,-1
 188 221 l 1,6,-1
 188 269 l 1,0,-1
EndSplineSet
EndChar

StartChar: hyphen
Encoding: 45 45 290
Width: 320
Flags: W
LayerCount: 2
Fore
SplineSet
281 305 m 1,0,-1
 30 305 l 1,1,-1
 39 242 l 1,2,-1
 290 242 l 1,3,-1
 281 305 l 1,0,-1
EndSplineSet
EndChar

StartChar: underscore
Encoding: 95 95 291
Width: 440
Flags: W
LayerCount: 2
Fore
SplineSet
401 62 m 1,0,-1
 30 62 l 1,1,-1
 39 0 l 1,2,-1
 410 0 l 1,3,-1
 401 62 l 1,0,-1
EndSplineSet
EndChar

StartChar: endash
Encoding: 8211 8211 292
Width: 440
Flags: W
LayerCount: 2
Fore
SplineSet
401 304 m 1,0,-1
 30 304 l 1,1,-1
 39 241 l 1,2,-1
 410 241 l 1,3,-1
 401 304 l 1,0,-1
EndSplineSet
EndChar

StartChar: emdash
Encoding: 8212 8212 293
Width: 538
Flags: W
LayerCount: 2
Fore
SplineSet
499 304 m 1,0,-1
 30 304 l 1,1,-1
 39 241 l 1,2,-1
 508 241 l 1,3,-1
 499 304 l 1,0,-1
EndSplineSet
EndChar

StartChar: numbersign
Encoding: 35 35 294
Width: 519
Flags: W
LayerCount: 2
Fore
SplineSet
384 507 m 1,0,-1
 354 380 l 1,1,-1
 222 380 l 1,2,-1
 252 506 l 1,3,-1
 186 507 l 1,4,-1
 157 380 l 1,5,-1
 30 380 l 1,6,-1
 39 319 l 1,7,-1
 141 319 l 1,8,-1
 112 192 l 1,9,-1
 30 192 l 1,10,-1
 39 130 l 1,11,-1
 97 130 l 1,12,-1
 67 2 l 1,13,-1
 132 -3 l 1,14,-1
 163 130 l 1,15,-1
 296 130 l 1,16,-1
 266 2 l 1,17,-1
 330 -3 l 1,18,-1
 362 130 l 1,19,-1
 489 130 l 1,20,-1
 481 192 l 1,21,-1
 376 192 l 1,22,-1
 406 319 l 1,23,-1
 489 319 l 1,24,-1
 481 380 l 1,25,-1
 421 380 l 1,26,-1
 451 506 l 1,27,-1
 384 507 l 1,0,-1
340 319 m 1,28,-1
 309 192 l 1,29,-1
 178 192 l 1,30,-1
 208 319 l 1,31,-1
 340 319 l 1,28,-1
EndSplineSet
EndChar

StartChar: percent
Encoding: 37 37 295
Width: 862
Flags: W
LayerCount: 2
Fore
SplineSet
544 710 m 1,0,-1
 239 0 l 1,1,-1
 316 -4 l 1,2,-1
 622 706 l 1,3,-1
 544 710 l 1,0,-1
191 702 m 0,4,5
 148 702 148 702 112 681 c 128,-1,6
 76 660 76 660 54.5 622 c 128,-1,7
 33 584 33 584 33 532 c 0,8,9
 33 479 33 479 53.5 441 c 128,-1,10
 74 403 74 403 110 383 c 128,-1,11
 146 363 146 363 192 363 c 0,12,13
 235 363 235 363 270.5 383.5 c 128,-1,14
 306 404 306 404 328 442 c 128,-1,15
 350 480 350 480 350 532 c 0,16,17
 350 586 350 586 329.5 624 c 128,-1,18
 309 662 309 662 273 682 c 128,-1,19
 237 702 237 702 191 702 c 0,4,5
191 640 m 0,20,21
 224 640 224 640 249.5 614 c 128,-1,22
 275 588 275 588 275 532 c 0,23,24
 275 494 275 494 262.5 470 c 128,-1,25
 250 446 250 446 231 435.5 c 128,-1,26
 212 425 212 425 192 425 c 0,27,28
 157 425 157 425 132 450.5 c 128,-1,29
 107 476 107 476 107 533 c 0,30,31
 107 571 107 571 119.5 594.5 c 128,-1,32
 132 618 132 618 151.5 629 c 128,-1,33
 171 640 171 640 191 640 c 0,20,21
672 338 m 0,34,35
 629 338 629 338 593 317.5 c 128,-1,36
 557 297 557 297 535.5 259 c 128,-1,37
 514 221 514 221 514 169 c 0,38,39
 514 115 514 115 534.5 77 c 128,-1,40
 555 39 555 39 591 19.5 c 128,-1,41
 627 0 627 0 673 0 c 0,42,43
 716 0 716 0 751.5 20.5 c 128,-1,44
 787 41 787 41 808.5 79 c 128,-1,45
 830 117 830 117 830 169 c 0,46,47
 830 223 830 223 809.5 261 c 128,-1,48
 789 299 789 299 753 318.5 c 128,-1,49
 717 338 717 338 672 338 c 0,34,35
672 277 m 0,50,51
 705 277 705 277 730 251 c 128,-1,52
 755 225 755 225 755 169 c 0,53,54
 755 130 755 130 743 107 c 128,-1,55
 731 84 731 84 712 72.5 c 128,-1,56
 693 61 693 61 673 61 c 0,57,58
 638 61 638 61 613 87 c 128,-1,59
 588 113 588 113 588 169 c 0,60,61
 588 208 588 208 601 232 c 128,-1,62
 614 256 614 256 633 266.5 c 128,-1,63
 652 277 652 277 672 277 c 0,50,51
EndSplineSet
EndChar

StartChar: plus
Encoding: 43 43 296
Width: 536
Flags: W
LayerCount: 2
Fore
SplineSet
496 305 m 1,0,-1
 305 305 l 1,1,-1
 305 531 l 1,2,-1
 232 534 l 1,3,-1
 232 305 l 1,4,-1
 30 305 l 1,5,-1
 38 242 l 1,6,-1
 232 242 l 1,7,-1
 232 8 l 1,8,-1
 305 4 l 1,9,-1
 305 242 l 1,10,-1
 506 242 l 1,11,-1
 496 305 l 1,0,-1
EndSplineSet
EndChar

StartChar: divide
Encoding: 247 247 297
Width: 500
Flags: W
LayerCount: 2
Fore
SplineSet
250 360 m 0,0,1
 275 360 275 360 292.5 378.5 c 128,-1,2
 310 397 310 397 310 421 c 0,3,4
 310 447 310 447 292.5 464.5 c 128,-1,5
 275 482 275 482 250 482 c 0,6,7
 223 482 223 482 205.5 464.5 c 128,-1,8
 188 447 188 447 188 421 c 0,9,10
 188 397 188 397 205.5 378.5 c 128,-1,11
 223 360 223 360 250 360 c 0,0,1
462 305 m 1,12,-1
 30 305 l 1,13,-1
 39 241 l 1,14,-1
 470 241 l 1,15,-1
 462 305 l 1,12,-1
251 48 m 256,16,17
 277 48 277 48 295 66.5 c 128,-1,18
 313 85 313 85 313 111 c 0,19,20
 313 136 313 136 295 154 c 128,-1,21
 277 172 277 172 251 172 c 256,22,23
 225 172 225 172 207.5 154 c 128,-1,24
 190 136 190 136 190 111 c 0,25,26
 190 85 190 85 207.5 66.5 c 128,-1,27
 225 48 225 48 251 48 c 256,16,17
EndSplineSet
EndChar

StartChar: multiply
Encoding: 215 215 298
Width: 508
Flags: W
LayerCount: 2
Fore
SplineSet
292 248 m 1,0,-1
 462 30 l 1,1,-1
 381 30 l 1,2,-1
 254 194 l 1,3,-1
 110 30 l 1,4,-1
 30 30 l 1,5,-1
 216 251 l 1,6,-1
 46 469 l 1,7,-1
 127 469 l 1,8,-1
 254 305 l 1,9,-1
 398 469 l 1,10,-1
 478 469 l 1,11,-1
 292 248 l 1,0,-1
EndSplineSet
EndChar

StartChar: plusminus
Encoding: 177 177 299
Width: 486
Flags: W
LayerCount: 2
Fore
SplineSet
448 359 m 1,0,-1
 278 359 l 1,1,-1
 278 531 l 1,2,-1
 208 534 l 1,3,-1
 208 359 l 1,4,-1
 30 359 l 1,5,-1
 39 301 l 1,6,-1
 208 301 l 1,7,-1
 208 121 l 1,8,-1
 278 116 l 1,9,-1
 278 301 l 1,10,-1
 456 301 l 1,11,-1
 448 359 l 1,0,-1
449 58 m 1,12,-1
 31 58 l 1,13,-1
 39 0 l 1,14,-1
 456 0 l 1,15,-1
 449 58 l 1,12,-1
EndSplineSet
EndChar

StartChar: less
Encoding: 60 60 300
Width: 329
Flags: W
LayerCount: 2
Fore
SplineSet
309 80 m 1,0,-1
 105 245 l 1,1,-1
 309 410 l 1,2,-1
 286 470 l 1,3,-1
 30 270 l 1,4,-1
 30 219 l 1,5,-1
 286 19 l 1,6,-1
 309 80 l 1,0,-1
EndSplineSet
EndChar

StartChar: equal
Encoding: 61 61 301
Width: 502
Flags: W
LayerCount: 2
Fore
SplineSet
464 380 m 1,0,-1
 30 380 l 1,1,-1
 39 319 l 1,2,-1
 472 319 l 1,3,-1
 464 380 l 1,0,-1
464 192 m 1,4,-1
 30 192 l 1,5,-1
 39 130 l 1,6,-1
 472 130 l 1,7,-1
 464 192 l 1,4,-1
EndSplineSet
EndChar

StartChar: greater
Encoding: 62 62 302
Width: 329
Flags: W
LayerCount: 2
Fore
SplineSet
299 270 m 1,0,-1
 43 470 l 1,1,-1
 20 410 l 1,2,-1
 224 245 l 1,3,-1
 20 79 l 1,4,-1
 43 19 l 1,5,-1
 299 219 l 1,6,-1
 299 270 l 1,0,-1
EndSplineSet
EndChar

StartChar: degree
Encoding: 176 176 303
Width: 239
Flags: W
LayerCount: 2
Fore
SplineSet
119 708 m 0,0,1
 91 708 91 708 65.5 693.5 c 128,-1,2
 40 679 40 679 25 655 c 128,-1,3
 10 631 10 631 10 602 c 0,4,5
 10 572 10 572 25 548.5 c 128,-1,6
 40 525 40 525 65.5 511 c 128,-1,7
 91 497 91 497 119 497 c 0,8,9
 150 497 150 497 175 511 c 128,-1,10
 200 525 200 525 215 548.5 c 128,-1,11
 230 572 230 572 230 602 c 0,12,13
 230 631 230 631 215 655 c 128,-1,14
 200 679 200 679 175 693.5 c 128,-1,15
 150 708 150 708 119 708 c 0,0,1
120 546 m 0,16,17
 96 546 96 546 80.5 562.5 c 128,-1,18
 65 579 65 579 65 602 c 0,19,20
 65 624 65 624 80.5 640 c 128,-1,21
 96 656 96 656 119 656 c 256,22,23
 142 656 142 656 158.5 640 c 128,-1,24
 175 624 175 624 175 601 c 0,25,26
 175 579 175 579 158.5 562.5 c 128,-1,27
 142 546 142 546 120 546 c 0,16,17
EndSplineSet
EndChar

StartChar: onesuperior
Encoding: 185 185 304
Width: 263
Flags: W
LayerCount: 2
Fore
SplineSet
190 336 m 1,0,-1
 190 764 l 1,1,-1
 144 764 l 1,2,-1
 10 698 l 1,3,-1
 39 650 l 1,4,-1
 119 691 l 1,5,-1
 119 336 l 1,6,-1
 190 336 l 1,0,-1
EndSplineSet
EndChar

StartChar: twosuperior
Encoding: 178 178 305
Width: 357
Flags: W
LayerCount: 2
Fore
SplineSet
173 771 m 0,0,1
 140 771 140 771 111.5 764 c 128,-1,2
 83 757 83 757 60 747.5 c 128,-1,3
 37 738 37 738 22 729 c 1,4,-1
 50 675 l 1,5,6
 63 684 63 684 82 692.5 c 128,-1,7
 101 701 101 701 124 707 c 128,-1,8
 147 713 147 713 169 713 c 0,9,10
 199 713 199 713 217 703 c 128,-1,11
 235 693 235 693 243.5 677 c 128,-1,12
 252 661 252 661 252 644 c 0,13,14
 252 618 252 618 236 588 c 128,-1,15
 220 558 220 558 176 519 c 2,16,-1
 25 389 l 1,17,-1
 25 336 l 1,18,-1
 337 336 l 1,19,-1
 329 391 l 1,20,-1
 113 391 l 1,21,-1
 215 478 l 2,22,23
 270 526 270 526 297 563.5 c 128,-1,24
 324 601 324 601 324 644 c 0,25,26
 324 673 324 673 309 702 c 128,-1,27
 294 731 294 731 261 751 c 128,-1,28
 228 771 228 771 173 771 c 0,0,1
EndSplineSet
EndChar

StartChar: threesuperior
Encoding: 179 179 306
Width: 358
Flags: W
LayerCount: 2
Fore
SplineSet
160 771 m 0,0,1
 114 771 114 771 78 757.5 c 128,-1,2
 42 744 42 744 11 724 c 1,3,-1
 39 676 l 1,4,5
 58 688 58 688 86.5 701 c 128,-1,6
 115 714 115 714 155 714 c 0,7,8
 197 714 197 714 219 694.5 c 128,-1,9
 241 675 241 675 241 647 c 0,10,11
 241 623 241 623 228.5 604.5 c 128,-1,12
 216 586 216 586 191 575.5 c 128,-1,13
 166 565 166 565 127 565 c 2,14,-1
 95 565 l 1,15,-1
 104 510 l 1,16,-1
 122 510 l 2,17,18
 191 510 191 510 220.5 486 c 128,-1,19
 250 462 250 462 250 418 c 0,20,21
 250 392 250 392 236 373.5 c 128,-1,22
 222 355 222 355 198.5 345.5 c 128,-1,23
 175 336 175 336 148 336 c 0,24,25
 109 336 109 336 83.5 344.5 c 128,-1,26
 58 353 58 353 31 369 c 1,27,-1
 0 320 l 1,28,29
 28 305 28 305 67 291.5 c 128,-1,30
 106 278 106 278 148 278 c 0,31,32
 202 278 202 278 240.5 297 c 128,-1,33
 279 316 279 316 299.5 348 c 128,-1,34
 320 380 320 380 320 419 c 0,35,36
 320 451 320 451 309 476 c 128,-1,37
 298 501 298 501 278 517.5 c 128,-1,38
 258 534 258 534 233 539 c 1,39,40
 254 546 254 546 271.5 561.5 c 128,-1,41
 289 577 289 577 300.5 599.5 c 128,-1,42
 312 622 312 622 312 648 c 0,43,44
 312 698 312 698 274 734.5 c 128,-1,45
 236 771 236 771 160 771 c 0,0,1
EndSplineSet
EndChar

StartChar: estimated
Encoding: 8494 8494 310
Width: 499
Flags: W
LayerCount: 2
Fore
SplineSet
466 230 m 1,0,-1
 466 237 l 2,1,2
 466 309 466 309 445 368.5 c 128,-1,3
 424 428 424 428 378 463 c 128,-1,4
 332 498 332 498 259 498 c 0,5,6
 187 498 187 498 136.5 465.5 c 128,-1,7
 86 433 86 433 59.5 376 c 128,-1,8
 33 319 33 319 33 244 c 0,9,10
 33 168 33 168 61 110 c 128,-1,11
 89 52 89 52 145.5 20 c 128,-1,12
 202 -12 202 -12 287 -12 c 0,13,14
 323 -12 323 -12 353.5 -5.5 c 128,-1,15
 384 1 384 1 410.5 12.5 c 128,-1,16
 437 24 437 24 460 37 c 1,17,-1
 434 95 l 1,18,19
 396 76 396 76 362 64.5 c 128,-1,20
 328 53 328 53 286 53 c 0,21,22
 226 53 226 53 189 76 c 128,-1,23
 152 99 152 99 134.5 139 c 128,-1,24
 117 179 117 179 114 230 c 1,25,-1
 466 230 l 1,0,-1
116 284 m 1,26,27
 121 328 121 328 137.5 361 c 128,-1,28
 154 394 154 394 183.5 412.5 c 128,-1,29
 213 431 213 431 256 431 c 0,30,31
 298 431 298 431 325.5 412.5 c 128,-1,32
 353 394 353 394 368 361 c 128,-1,33
 383 328 383 328 388 284 c 1,34,-1
 116 284 l 1,26,27
EndSplineSet
EndChar

StartChar: partialdiff
Encoding: 8706 8706 311
Width: 536
Flags: W
LayerCount: 2
Fore
SplineSet
504 246 m 0,0,1
 504 330 504 330 481 406 c 128,-1,2
 458 482 458 482 410.5 546.5 c 128,-1,3
 363 611 363 611 289.5 662.5 c 128,-1,4
 216 714 216 714 115 750 c 1,5,-1
 91 694 l 1,6,7
 193 654 193 654 257.5 604 c 128,-1,8
 322 554 322 554 358 496 c 128,-1,9
 394 438 394 438 408.5 373.5 c 128,-1,10
 423 309 423 309 423 240 c 0,11,12
 423 188 423 188 404.5 146 c 128,-1,13
 386 104 386 104 351 79 c 128,-1,14
 316 54 316 54 266 54 c 256,15,16
 216 54 216 54 181.5 79 c 128,-1,17
 147 104 147 104 130 147.5 c 128,-1,18
 113 191 113 191 113 245 c 0,19,20
 114 297 114 297 132.5 339 c 128,-1,21
 151 381 151 381 186 406 c 128,-1,22
 221 431 221 431 270 431 c 0,23,24
 305 431 305 431 334 421.5 c 128,-1,25
 363 412 363 412 385 395 c 128,-1,26
 407 378 407 378 425 355 c 1,27,-1
 464 386 l 1,28,29
 443 419 443 419 413 444 c 128,-1,30
 383 469 383 469 346.5 483.5 c 128,-1,31
 310 498 310 498 271 498 c 0,32,33
 198 498 198 498 144.5 465 c 128,-1,34
 91 432 91 432 62.5 375 c 128,-1,35
 34 318 34 318 33 244 c 0,36,37
 33 168 33 168 60.5 110.5 c 128,-1,38
 88 53 88 53 140 19.5 c 128,-1,39
 192 -14 192 -14 264 -13 c 0,40,41
 341 -13 341 -13 394 21 c 128,-1,42
 447 55 447 55 475.5 113.5 c 128,-1,43
 504 172 504 172 504 246 c 0,0,1
EndSplineSet
EndChar

StartChar: product
Encoding: 8719 8719 312
Width: 621
Flags: W
LayerCount: 2
Fore
SplineSet
93 0 m 1,0,-1
 168 0 l 1,1,-1
 168 622 l 1,2,-1
 453 622 l 1,3,-1
 453 0 l 1,4,-1
 528 0 l 1,5,-1
 528 680 l 1,6,-1
 93 680 l 1,7,-1
 93 0 l 1,0,-1
EndSplineSet
EndChar

StartChar: summation
Encoding: 8721 8721 313
Width: 452
Flags: W
LayerCount: 2
Fore
SplineSet
395 680 m 1,0,-1
 31 680 l 1,1,-1
 31 620 l 1,2,-1
 226 344 l 1,3,-1
 30 63 l 1,4,-1
 30 0 l 1,5,-1
 432 0 l 1,6,-1
 423 63 l 1,7,-1
 113 63 l 1,8,-1
 294 328 l 1,9,-1
 294 362 l 1,10,-1
 114 620 l 1,11,-1
 404 620 l 1,12,-1
 395 680 l 1,0,-1
EndSplineSet
EndChar

StartChar: minus
Encoding: 8722 8722 314
Width: 477
Flags: W
LayerCount: 2
Fore
SplineSet
437 304 m 1,0,-1
 30 304 l 1,1,-1
 38 241 l 1,2,-1
 447 241 l 1,3,-1
 437 304 l 1,0,-1
EndSplineSet
EndChar

StartChar: radical
Encoding: 8730 8730 315
Width: 558
Flags: W
LayerCount: 2
Fore
SplineSet
474 710 m 1,0,-1
 217 79 l 1,1,-1
 88 321 l 1,2,-1
 10 317 l 1,3,-1
 176 0 l 1,4,-1
 257 -4 l 1,5,-1
 548 706 l 1,6,-1
 474 710 l 1,0,-1
EndSplineSet
EndChar

StartChar: infinity
Encoding: 8734 8734 316
Width: 817
Flags: W
LayerCount: 2
Fore
SplineSet
235 461 m 0,0,1
 175 461 175 461 129.5 432 c 128,-1,2
 84 403 84 403 58.5 354.5 c 128,-1,3
 33 306 33 306 33 246 c 0,4,5
 33 187 33 187 58 141.5 c 128,-1,6
 83 96 83 96 129.5 70.5 c 128,-1,7
 176 45 176 45 237 45 c 0,8,9
 275 45 275 45 305 59 c 128,-1,10
 335 73 335 73 358 97.5 c 128,-1,11
 381 122 381 122 399 150 c 1,12,13
 423 118 423 118 451.5 94 c 128,-1,14
 480 70 480 70 512.5 57.5 c 128,-1,15
 545 45 545 45 582 45 c 0,16,17
 644 45 644 45 689 73.5 c 128,-1,18
 734 102 734 102 759 150.5 c 128,-1,19
 784 199 784 199 784 258 c 0,20,21
 784 319 784 319 758.5 364.5 c 128,-1,22
 733 410 733 410 687.5 435.5 c 128,-1,23
 642 461 642 461 581 461 c 0,24,25
 542 461 542 461 512 446.5 c 128,-1,26
 482 432 482 432 458.5 409 c 128,-1,27
 435 386 435 386 416 356 c 1,28,29
 395 387 395 387 366.5 410.5 c 128,-1,30
 338 434 338 434 305 447.5 c 128,-1,31
 272 461 272 461 235 461 c 0,0,1
432 211 m 1,32,-1
 442 245 l 2,33,34
 450 270 450 270 462 296 c 128,-1,35
 474 322 474 322 491 344 c 128,-1,36
 508 366 508 366 530.5 380 c 128,-1,37
 553 394 553 394 581 394 c 0,38,39
 622 394 622 394 651 376 c 128,-1,40
 680 358 680 358 695.5 327.5 c 128,-1,41
 711 297 711 297 711 260 c 0,42,43
 711 220 711 220 695.5 186 c 128,-1,44
 680 152 680 152 650.5 131.5 c 128,-1,45
 621 111 621 111 579 111 c 0,46,47
 546 113 546 113 518.5 126 c 128,-1,48
 491 139 491 139 469.5 161 c 128,-1,49
 448 183 448 183 432 211 c 1,32,-1
386 293 m 1,50,-1
 375 260 l 2,51,52
 367 235 367 235 355.5 208.5 c 128,-1,53
 344 182 344 182 327.5 159.5 c 128,-1,54
 311 137 311 137 288.5 123.5 c 128,-1,55
 266 110 266 110 237 110 c 0,56,57
 196 110 196 110 167 129 c 128,-1,58
 138 148 138 148 122 178.5 c 128,-1,59
 106 209 106 209 106 244 c 0,60,61
 106 286 106 286 122 319.5 c 128,-1,62
 138 353 138 353 167 373 c 128,-1,63
 196 393 196 393 237 393 c 0,64,65
 270 393 270 393 298 380 c 128,-1,66
 326 367 326 367 348.5 344.5 c 128,-1,67
 371 322 371 322 386 293 c 1,50,-1
EndSplineSet
EndChar

StartChar: integral
Encoding: 8747 8747 317
Width: 335
Flags: W
LayerCount: 2
Fore
SplineSet
207 631 m 2,0,1
 207 667 207 667 222 690.5 c 128,-1,2
 237 714 237 714 272 714 c 0,3,4
 281 714 281 714 290.5 711.5 c 128,-1,5
 300 709 300 709 316 704 c 1,6,-1
 335 766 l 1,7,8
 328 771 328 771 315.5 774.5 c 128,-1,9
 303 778 303 778 289.5 780.5 c 128,-1,10
 276 783 276 783 261 783 c 0,11,12
 220 783 220 783 190 765 c 128,-1,13
 160 747 160 747 144 714 c 128,-1,14
 128 681 128 681 128 634 c 2,15,-1
 128 -26 l 2,16,17
 128 -62 128 -62 113.5 -85 c 128,-1,18
 99 -108 99 -108 61 -108 c 0,19,20
 51 -108 51 -108 38.5 -105.5 c 128,-1,21
 26 -103 26 -103 18 -100 c 1,22,-1
 0 -162 l 1,23,24
 8 -166 8 -166 19.5 -170 c 128,-1,25
 31 -174 31 -174 45 -176.5 c 128,-1,26
 59 -179 59 -179 73 -179 c 0,27,28
 115 -179 115 -179 145 -160.5 c 128,-1,29
 175 -142 175 -142 191 -108.5 c 128,-1,30
 207 -75 207 -75 207 -29 c 2,31,-1
 207 631 l 2,0,1
EndSplineSet
EndChar

StartChar: approxequal
Encoding: 8776 8776 318
Width: 506
Flags: W
LayerCount: 2
Fore
SplineSet
415 398 m 1,0,1
 415 383 415 383 405 373.5 c 128,-1,2
 395 364 395 364 383 360.5 c 128,-1,3
 371 357 371 357 363 357 c 0,4,5
 342 357 342 357 317 362 c 128,-1,6
 292 367 292 367 260 378 c 0,7,8
 199 400 199 400 157 400 c 0,9,10
 139 400 139 400 117 397 c 128,-1,11
 95 394 95 394 75 384 c 128,-1,12
 55 374 55 374 42.5 356 c 128,-1,13
 30 338 30 338 30 308 c 1,14,-1
 89 295 l 1,15,16
 90 311 90 311 100.5 319.5 c 128,-1,17
 111 328 111 328 124.5 331.5 c 128,-1,18
 138 335 138 335 147 335 c 0,19,20
 193 335 193 335 254 314 c 0,21,22
 284 303 284 303 308 297 c 128,-1,23
 332 291 332 291 350 291 c 0,24,25
 370 291 370 291 391 294.5 c 128,-1,26
 412 298 412 298 431.5 307 c 128,-1,27
 451 316 451 316 463 334.5 c 128,-1,28
 475 353 475 353 476 384 c 1,29,-1
 415 398 l 1,0,1
415 218 m 1,30,31
 415 202 415 202 405 193 c 128,-1,32
 395 184 395 184 383 180.5 c 128,-1,33
 371 177 371 177 363 176 c 0,34,35
 342 176 342 176 317 182 c 128,-1,36
 292 188 292 188 260 199 c 0,37,38
 199 221 199 221 157 221 c 0,39,40
 139 221 139 221 117 217.5 c 128,-1,41
 95 214 95 214 75 204.5 c 128,-1,42
 55 195 55 195 42.5 177 c 128,-1,43
 30 159 30 159 30 128 c 1,44,-1
 89 116 l 1,45,46
 90 131 90 131 100.5 139.5 c 128,-1,47
 111 148 111 148 124.5 152 c 128,-1,48
 138 156 138 156 147 156 c 0,49,50
 193 156 193 156 254 134 c 0,51,52
 284 123 284 123 308 117.5 c 128,-1,53
 332 112 332 112 350 112 c 0,54,55
 370 112 370 112 391 115 c 128,-1,56
 412 118 412 118 431.5 127.5 c 128,-1,57
 451 137 451 137 463 155.5 c 128,-1,58
 475 174 475 174 476 204 c 1,59,-1
 415 218 l 1,30,31
EndSplineSet
EndChar

StartChar: notequal
Encoding: 8800 8800 319
Width: 502
Flags: W
LayerCount: 2
Fore
SplineSet
329 520 m 1,0,-1
 267 380 l 1,1,-1
 30 380 l 1,2,-1
 39 319 l 1,3,-1
 240 319 l 1,4,-1
 183 192 l 1,5,-1
 30 192 l 1,6,-1
 39 130 l 1,7,-1
 157 130 l 1,8,-1
 94 -10 l 1,9,-1
 162 -15 l 1,10,-1
 229 130 l 1,11,-1
 472 130 l 1,12,-1
 464 192 l 1,13,-1
 255 192 l 1,14,-1
 312 319 l 1,15,-1
 472 319 l 1,16,-1
 464 380 l 1,17,-1
 339 380 l 1,18,-1
 399 517 l 1,19,-1
 329 520 l 1,0,-1
EndSplineSet
EndChar

StartChar: lessequal
Encoding: 8804 8804 320
Width: 334
Flags: W
LayerCount: 2
Fore
SplineSet
314 166 m 1,0,-1
 109 294 l 1,1,-1
 314 421 l 1,2,-1
 291 481 l 1,3,-1
 30 320 l 1,4,-1
 30 265 l 1,5,-1
 291 105 l 1,6,-1
 314 166 l 1,0,-1
305 60 m 1,7,-1
 31 60 l 1,8,-1
 38 0 l 1,9,-1
 311 0 l 1,10,-1
 305 60 l 1,7,-1
EndSplineSet
EndChar

StartChar: greaterequal
Encoding: 8805 8805 321
Width: 334
Flags: W
LayerCount: 2
Fore
SplineSet
304 320 m 1,0,-1
 43 481 l 1,1,-1
 20 420 l 1,2,-1
 225 294 l 1,3,-1
 20 167 l 1,4,-1
 43 105 l 1,5,-1
 304 264 l 1,6,-1
 304 320 l 1,0,-1
294 60 m 1,7,-1
 21 60 l 1,8,-1
 28 0 l 1,9,-1
 301 0 l 1,10,-1
 294 60 l 1,7,-1
EndSplineSet
EndChar

StartChar: perthousand
Encoding: 8240 8240 322
Width: 1233
Flags: W
LayerCount: 2
Fore
SplineSet
545 710 m 1,0,-1
 239 0 l 1,1,-1
 316 -4 l 1,2,-1
 622 706 l 1,3,-1
 545 710 l 1,0,-1
191 702 m 0,4,5
 148 702 148 702 112 681 c 128,-1,6
 76 660 76 660 54.5 622 c 128,-1,7
 33 584 33 584 33 532 c 0,8,9
 33 479 33 479 53.5 441 c 128,-1,10
 74 403 74 403 110 383 c 128,-1,11
 146 363 146 363 192 363 c 0,12,13
 235 363 235 363 270.5 383.5 c 128,-1,14
 306 404 306 404 328 442 c 128,-1,15
 350 480 350 480 350 532 c 0,16,17
 350 586 350 586 329.5 624 c 128,-1,18
 309 662 309 662 273 682 c 128,-1,19
 237 702 237 702 191 702 c 0,4,5
191 640 m 0,20,21
 224 640 224 640 249.5 614 c 128,-1,22
 275 588 275 588 275 532 c 0,23,24
 275 494 275 494 262.5 470 c 128,-1,25
 250 446 250 446 231 435.5 c 128,-1,26
 212 425 212 425 192 425 c 0,27,28
 157 425 157 425 132 450.5 c 128,-1,29
 107 476 107 476 107 533 c 0,30,31
 107 571 107 571 119.5 594.5 c 128,-1,32
 132 618 132 618 151.5 629 c 128,-1,33
 171 640 171 640 191 640 c 0,20,21
1042 338 m 0,34,35
 999 338 999 338 962.5 317.5 c 128,-1,36
 926 297 926 297 905 259 c 128,-1,37
 884 221 884 221 884 169 c 0,38,39
 884 115 884 115 904.5 77 c 128,-1,40
 925 39 925 39 961 19.5 c 128,-1,41
 997 0 997 0 1043 0 c 0,42,43
 1086 0 1086 0 1122 20.5 c 128,-1,44
 1158 41 1158 41 1179 79 c 128,-1,45
 1200 117 1200 117 1200 169 c 0,46,47
 1200 223 1200 223 1179.5 261 c 128,-1,48
 1159 299 1159 299 1123.5 318.5 c 128,-1,49
 1088 338 1088 338 1042 338 c 0,34,35
672 338 m 0,50,51
 629 338 629 338 593 317.5 c 128,-1,52
 557 297 557 297 535.5 259 c 128,-1,53
 514 221 514 221 514 169 c 0,54,55
 514 115 514 115 534.5 77 c 128,-1,56
 555 39 555 39 591 19.5 c 128,-1,57
 627 0 627 0 673 0 c 0,58,59
 716 0 716 0 751.5 20.5 c 128,-1,60
 787 41 787 41 808.5 79 c 128,-1,61
 830 117 830 117 830 169 c 0,62,63
 830 223 830 223 809.5 261 c 128,-1,64
 789 299 789 299 753 318.5 c 128,-1,65
 717 338 717 338 672 338 c 0,50,51
1042 277 m 0,66,67
 1076 277 1076 277 1101 251 c 128,-1,68
 1126 225 1126 225 1126 169 c 0,69,70
 1126 130 1126 130 1114 107 c 128,-1,71
 1102 84 1102 84 1083 72.5 c 128,-1,72
 1064 61 1064 61 1043 61 c 0,73,74
 1009 61 1009 61 983.5 87 c 128,-1,75
 958 113 958 113 958 169 c 0,76,77
 958 208 958 208 970.5 232 c 128,-1,78
 983 256 983 256 1003 266.5 c 128,-1,79
 1023 277 1023 277 1042 277 c 0,66,67
672 277 m 0,80,81
 705 277 705 277 730 251 c 128,-1,82
 755 225 755 225 755 169 c 0,83,84
 755 130 755 130 743 107 c 128,-1,85
 731 84 731 84 712 72.5 c 128,-1,86
 693 61 693 61 673 61 c 0,87,88
 638 61 638 61 613 87 c 128,-1,89
 588 113 588 113 588 169 c 0,90,91
 588 208 588 208 601 232 c 128,-1,92
 614 256 614 256 633 266.5 c 128,-1,93
 652 277 652 277 672 277 c 0,80,81
EndSplineSet
EndChar

StartChar: fraction
Encoding: 8260 8260 323
Width: 402
Flags: W
LayerCount: 2
Fore
SplineSet
415 700 m 1,0,-1
 -91 -134 l 1,1,-1
 -11 -134 l 1,2,-1
 493 700 l 1,3,-1
 415 700 l 1,0,-1
EndSplineSet
EndChar

StartChar: lozenge
Encoding: 9674 9674 324
Width: 535
Flags: W
LayerCount: 2
Fore
SplineSet
283 0 m 1,0,-1
 505 288 l 1,1,-1
 505 311 l 1,2,-1
 283 599 l 1,3,-1
 252 599 l 1,4,-1
 30 311 l 1,5,-1
 30 288 l 1,6,-1
 252 0 l 1,7,-1
 283 0 l 1,0,-1
267 512 m 1,8,-1
 429 299 l 1,9,-1
 267 88 l 1,10,-1
 106 299 l 1,11,-1
 267 512 l 1,8,-1
EndSplineSet
EndChar

StartChar: copyright
Encoding: 169 169 325
Width: 799
Flags: W
LayerCount: 2
Fore
SplineSet
767 336 m 256,0,1
 767 412 767 412 741.5 478 c 128,-1,2
 716 544 716 544 668 594 c 128,-1,3
 620 644 620 644 552 672 c 128,-1,4
 484 700 484 700 399 700 c 0,5,6
 315 700 315 700 247 672 c 128,-1,7
 179 644 179 644 131.5 594 c 128,-1,8
 84 544 84 544 58.5 478 c 128,-1,9
 33 412 33 412 33 336 c 256,10,11
 33 260 33 260 58 194.5 c 128,-1,12
 83 129 83 129 131.5 79 c 128,-1,13
 180 29 180 29 247.5 1.5 c 128,-1,14
 315 -26 315 -26 400 -26 c 0,15,16
 484 -26 484 -26 551.5 2 c 128,-1,17
 619 30 619 30 667.5 79.5 c 128,-1,18
 716 129 716 129 741.5 194.5 c 128,-1,19
 767 260 767 260 767 336 c 256,0,1
98 337 m 0,20,21
 98 425 98 425 134.5 494.5 c 128,-1,22
 171 564 171 564 239 604.5 c 128,-1,23
 307 645 307 645 400 645 c 0,24,25
 494 645 494 645 561.5 604.5 c 128,-1,26
 629 564 629 564 666 494.5 c 128,-1,27
 703 425 703 425 703 337 c 0,28,29
 703 250 703 250 666 180 c 128,-1,30
 629 110 629 110 561.5 69.5 c 128,-1,31
 494 29 494 29 400 29 c 0,32,33
 307 29 307 29 239 69.5 c 128,-1,34
 171 110 171 110 134.5 180 c 128,-1,35
 98 250 98 250 98 337 c 0,20,21
414 105 m 0,36,37
 434 105 434 105 460.5 110 c 128,-1,38
 487 115 487 115 514.5 125 c 128,-1,39
 542 135 542 135 561 148 c 1,40,-1
 537 204 l 1,41,42
 511 191 511 191 485.5 181 c 128,-1,43
 460 171 460 171 414 171 c 0,44,45
 340 171 340 171 308.5 216 c 128,-1,46
 277 261 277 261 277 342 c 0,47,48
 277 389 277 389 291.5 426.5 c 128,-1,49
 306 464 306 464 337.5 485 c 128,-1,50
 369 506 369 506 417 506 c 0,51,52
 449 506 449 506 469.5 501.5 c 128,-1,53
 490 497 490 497 507 490 c 128,-1,54
 524 483 524 483 541 473 c 1,55,-1
 565 531 l 1,56,57
 546 546 546 546 519 555 c 128,-1,58
 492 564 492 564 465.5 568.5 c 128,-1,59
 439 573 439 573 418 573 c 0,60,61
 349 573 349 573 299 543 c 128,-1,62
 249 513 249 513 223 460.5 c 128,-1,63
 197 408 197 408 197 341 c 0,64,65
 197 273 197 273 221 219.5 c 128,-1,66
 245 166 245 166 293.5 135.5 c 128,-1,67
 342 105 342 105 414 105 c 0,36,37
EndSplineSet
EndChar

StartChar: registered
Encoding: 174 174 326
Width: 712
Flags: W
LayerCount: 2
Fore
SplineSet
680 487 m 0,0,1
 680 577 680 577 640.5 650 c 128,-1,2
 601 723 601 723 529 765.5 c 128,-1,3
 457 808 457 808 357 808 c 256,4,5
 257 808 257 808 184 765.5 c 128,-1,6
 111 723 111 723 72 650 c 128,-1,7
 33 577 33 577 33 487 c 0,8,9
 33 398 33 398 72 325.5 c 128,-1,10
 111 253 111 253 184 210.5 c 128,-1,11
 257 168 257 168 357 168 c 256,12,13
 457 168 457 168 529 210.5 c 128,-1,14
 601 253 601 253 640.5 325.5 c 128,-1,15
 680 398 680 398 680 487 c 0,0,1
92 488 m 0,16,17
 92 566 92 566 124 626 c 128,-1,18
 156 686 156 686 215.5 720.5 c 128,-1,19
 275 755 275 755 357 755 c 0,20,21
 438 755 438 755 497 720.5 c 128,-1,22
 556 686 556 686 587.5 626 c 128,-1,23
 619 566 619 566 619 488 c 0,24,25
 619 412 619 412 587 352 c 128,-1,26
 555 292 555 292 496.5 257 c 128,-1,27
 438 222 438 222 357 221 c 0,28,29
 275 222 275 222 215 257 c 128,-1,30
 155 292 155 292 123.5 352 c 128,-1,31
 92 412 92 412 92 488 c 0,16,17
333 631 m 2,32,33
 360 631 360 631 381 628 c 128,-1,34
 402 625 402 625 414 611.5 c 128,-1,35
 426 598 426 598 426 568 c 0,36,37
 426 542 426 542 412.5 528.5 c 128,-1,38
 399 515 399 515 377.5 510.5 c 128,-1,39
 356 506 356 506 329 506 c 2,40,-1
 299 506 l 1,41,-1
 299 631 l 1,42,-1
 333 631 l 2,32,33
518 304 m 1,43,-1
 423 473 l 1,44,45
 450 485 450 485 469 508.5 c 128,-1,46
 488 532 488 532 488 570 c 0,47,48
 488 610 488 610 470 634 c 128,-1,49
 452 658 452 658 420.5 669 c 128,-1,50
 389 680 389 680 349 680 c 2,51,-1
 239 680 l 1,52,-1
 239 304 l 1,53,-1
 299 304 l 1,54,-1
 299 458 l 1,55,-1
 338 458 l 2,56,57
 346 458 346 458 352.5 458 c 128,-1,58
 359 458 359 458 366 459 c 1,59,-1
 449 304 l 1,60,-1
 518 304 l 1,43,-1
EndSplineSet
EndChar

StartChar: trademark
Encoding: 8482 8482 327
Width: 730
Flags: W
LayerCount: 2
Fore
SplineSet
300 680 m 1,0,-1
 10 680 l 1,1,-1
 10 629 l 1,2,-1
 125 629 l 1,3,-1
 125 305 l 1,4,-1
 188 305 l 1,5,-1
 188 629 l 1,6,-1
 306 629 l 1,7,-1
 300 680 l 1,0,-1
534 408 m 1,8,-1
 627 540 l 1,9,-1
 627 305 l 1,10,-1
 687 305 l 1,11,-1
 687 680 l 1,12,-1
 660 680 l 1,13,-1
 526 492 l 1,14,-1
 384 680 l 1,15,-1
 358 680 l 1,16,-1
 358 305 l 1,17,-1
 420 305 l 1,18,-1
 420 542 l 1,19,-1
 518 405 l 1,20,-1
 534 408 l 1,8,-1
EndSplineSet
EndChar

StartChar: ampersand
Encoding: 38 38 328
Width: 668
Flags: W
LayerCount: 2
Fore
SplineSet
458 121 m 1,0,1
 430 90 430 90 390 72.5 c 128,-1,2
 350 55 350 55 300 55 c 0,3,4
 256 55 256 55 215.5 71.5 c 128,-1,5
 175 88 175 88 149 123 c 128,-1,6
 123 158 123 158 123 212 c 0,7,8
 124 261 124 261 143 301 c 128,-1,9
 162 341 162 341 196 362 c 1,10,11
 205 354 205 354 214.5 344.5 c 128,-1,12
 224 335 224 335 234 326 c 2,13,-1
 458 121 l 1,0,1
594 -4 m 1,14,-1
 636 51 l 1,15,-1
 554 126 l 1,16,17
 575 167 575 167 587 217 c 128,-1,18
 599 267 599 267 602 325 c 1,19,-1
 538 351 l 1,20,21
 535 300 535 300 524.5 256.5 c 128,-1,22
 514 213 514 213 496 177 c 1,23,-1
 298 362 l 2,24,25
 266 393 266 393 243.5 417 c 128,-1,26
 221 441 221 441 209.5 465.5 c 128,-1,27
 198 490 198 490 198 522 c 0,28,29
 198 550 198 550 211.5 574 c 128,-1,30
 225 598 225 598 250 613.5 c 128,-1,31
 275 629 275 629 309 629 c 0,32,33
 359 629 359 629 386.5 617 c 128,-1,34
 414 605 414 605 441 593 c 1,35,-1
 469 654 l 1,36,37
 436 670 436 670 397.5 683 c 128,-1,38
 359 696 359 696 309 696 c 0,39,40
 249 696 249 696 207 671.5 c 128,-1,41
 165 647 165 647 142.5 606 c 128,-1,42
 120 565 120 565 120 516 c 0,43,44
 120 485 120 485 128 460.5 c 128,-1,45
 136 436 136 436 151 414 c 1,46,47
 103 383 103 383 73.5 329 c 128,-1,48
 44 275 44 275 43 210 c 0,49,50
 43 137 43 137 77 87.5 c 128,-1,51
 111 38 111 38 169.5 13 c 128,-1,52
 228 -12 228 -12 300 -12 c 0,53,54
 371 -12 371 -12 424 9.5 c 128,-1,55
 477 31 477 31 513 70 c 1,56,-1
 594 -4 l 1,14,-1
EndSplineSet
EndChar

StartChar: at
Encoding: 64 64 329
Width: 764
Flags: W
LayerCount: 2
Fore
SplineSet
542 385 m 1,0,-1
 518 415 l 1,1,-1
 445 415 l 2,2,3
 401 415 401 415 360.5 401 c 128,-1,4
 320 387 320 387 288.5 360.5 c 128,-1,5
 257 334 257 334 238.5 297 c 128,-1,6
 220 260 220 260 220 214 c 0,7,8
 220 148 220 148 260.5 106 c 128,-1,9
 301 64 301 64 386 64 c 0,10,11
 412 64 412 64 437 74 c 128,-1,12
 462 84 462 84 480 96 c 1,13,14
 495 79 495 79 516 71 c 128,-1,15
 537 63 537 63 561 63 c 0,16,17
 599 63 599 63 630.5 78.5 c 128,-1,18
 662 94 662 94 684.5 124 c 128,-1,19
 707 154 707 154 719.5 199.5 c 128,-1,20
 732 245 732 245 732 305 c 0,21,22
 732 368 732 368 709 421 c 128,-1,23
 686 474 686 474 645 513.5 c 128,-1,24
 604 553 604 553 547.5 574.5 c 128,-1,25
 491 596 491 596 422 596 c 0,26,27
 332 596 332 596 259.5 566 c 128,-1,28
 187 536 187 536 136.5 483.5 c 128,-1,29
 86 431 86 431 59.5 362.5 c 128,-1,30
 33 294 33 294 33 216 c 0,31,32
 33 144 33 144 60 85 c 128,-1,33
 87 26 87 26 132.5 -16.5 c 128,-1,34
 178 -59 178 -59 236 -81.5 c 128,-1,35
 294 -104 294 -104 355 -104 c 0,36,37
 404 -104 404 -104 454.5 -95 c 128,-1,38
 505 -86 505 -86 550 -63 c 1,39,-1
 530 -4 l 1,40,41
 507 -15 507 -15 479.5 -23 c 128,-1,42
 452 -31 452 -31 422.5 -35 c 128,-1,43
 393 -39 393 -39 366 -39 c 0,44,45
 295 -39 295 -39 236.5 -8 c 128,-1,46
 178 23 178 23 143 80.5 c 128,-1,47
 108 138 108 138 108 217 c 0,48,49
 108 290 108 290 133 348.5 c 128,-1,50
 158 407 158 407 202.5 448.5 c 128,-1,51
 247 490 247 490 302.5 512 c 128,-1,52
 358 534 358 534 420 534 c 0,53,54
 494 534 494 534 549 503.5 c 128,-1,55
 604 473 604 473 634 420 c 128,-1,56
 664 367 664 367 664 298 c 0,57,58
 664 245 664 245 651.5 205.5 c 128,-1,59
 639 166 639 166 617.5 145.5 c 128,-1,60
 596 125 596 125 568 125 c 0,61,62
 551 125 551 125 533 137 c 128,-1,63
 515 149 515 149 519 182 c 2,64,-1
 542 385 l 1,0,-1
385 125 m 0,65,66
 352 125 352 125 332 138.5 c 128,-1,67
 312 152 312 152 303 172.5 c 128,-1,68
 294 193 294 193 294 214 c 0,69,70
 294 261 294 261 315 293 c 128,-1,71
 336 325 336 325 370.5 342 c 128,-1,72
 405 359 405 359 445 359 c 2,73,-1
 476 359 l 1,74,-1
 454 188 l 2,75,76
 452 180 452 180 452.5 171.5 c 128,-1,77
 453 163 453 163 455 157 c 1,78,79
 445 142 445 142 426.5 133.5 c 128,-1,80
 408 125 408 125 385 125 c 0,65,66
EndSplineSet
EndChar

StartChar: asciicircum
Encoding: 94 94 330
Width: 421
Flags: W
LayerCount: 2
Fore
SplineSet
211 323 m 1,0,-1
 333 143 l 1,1,-1
 411 143 l 1,2,-1
 243 390 l 1,3,-1
 179 390 l 1,4,-1
 10 143 l 1,5,-1
 88 143 l 1,6,-1
 211 323 l 1,0,-1
EndSplineSet
EndChar

StartChar: asciitilde
Encoding: 126 126 331
Width: 406
Flags: W
LayerCount: 2
Fore
SplineSet
30 196 m 1,0,-1
 93 196 l 1,1,2
 95 219 95 219 107.5 228 c 128,-1,3
 120 237 120 237 136 237 c 0,4,5
 149 237 149 237 164.5 231.5 c 128,-1,6
 180 226 180 226 199 215 c 0,7,8
 217 204 217 204 236 198.5 c 128,-1,9
 255 193 255 193 275 193 c 0,10,11
 303 193 303 193 326 203.5 c 128,-1,12
 349 214 349 214 362.5 238.5 c 128,-1,13
 376 263 376 263 376 304 c 1,14,-1
 312 304 l 1,15,16
 311 280 311 280 297.5 271 c 128,-1,17
 284 262 284 262 270 262 c 256,18,19
 256 262 256 262 241.5 267.5 c 128,-1,20
 227 273 227 273 210 284 c 0,21,22
 195 295 195 295 175 300.5 c 128,-1,23
 155 306 155 306 132 306 c 0,24,25
 104 306 104 306 80.5 295.5 c 128,-1,26
 57 285 57 285 43.5 261 c 128,-1,27
 30 237 30 237 30 196 c 1,0,-1
EndSplineSet
EndChar

StartChar: section
Encoding: 167 167 332
Width: 573
Flags: W
LayerCount: 2
Fore
SplineSet
438 99 m 1,0,1
 471 114 471 114 494 136.5 c 128,-1,2
 517 159 517 159 528.5 188 c 128,-1,3
 540 217 540 217 540 249 c 0,4,5
 540 287 540 287 528 315.5 c 128,-1,6
 516 344 516 344 493.5 366.5 c 128,-1,7
 471 389 471 389 437.5 409 c 128,-1,8
 404 429 404 429 361 449 c 0,9,10
 301 477 301 477 260.5 499.5 c 128,-1,11
 220 522 220 522 199.5 548 c 128,-1,12
 179 574 179 574 179 610 c 0,13,14
 179 659 179 659 219.5 685.5 c 128,-1,15
 260 712 260 712 324 712 c 0,16,17
 358 712 358 712 383.5 706.5 c 128,-1,18
 409 701 409 701 429.5 693 c 128,-1,19
 450 685 450 685 467 677 c 1,20,-1
 494 738 l 1,21,22
 462 754 462 754 416 767 c 128,-1,23
 370 780 370 780 320 780 c 0,24,25
 253 780 253 780 204 757.5 c 128,-1,26
 155 735 155 735 128.5 696.5 c 128,-1,27
 102 658 102 658 102 610 c 0,28,29
 102 574 102 574 113.5 545.5 c 128,-1,30
 125 517 125 517 147.5 492.5 c 128,-1,31
 170 468 170 468 203.5 447.5 c 128,-1,32
 237 427 237 427 282 407 c 0,33,34
 340 382 340 382 380 359.5 c 128,-1,35
 420 337 420 337 441 311 c 128,-1,36
 462 285 462 285 462 248 c 0,37,38
 462 222 462 222 449 200 c 128,-1,39
 436 178 436 178 409 162 c 1,40,-1
 438 99 l 1,0,1
54 -73 m 1,41,42
 68 -81 68 -81 90 -89.5 c 128,-1,43
 112 -98 112 -98 139 -104.5 c 128,-1,44
 166 -111 166 -111 192.5 -115 c 128,-1,45
 219 -119 219 -119 240 -119 c 0,46,47
 317 -119 317 -119 370.5 -95.5 c 128,-1,48
 424 -72 424 -72 452.5 -32.5 c 128,-1,49
 481 7 481 7 481 59 c 0,50,51
 481 97 481 97 469 125.5 c 128,-1,52
 457 154 457 154 434 176.5 c 128,-1,53
 411 199 411 199 378 219 c 128,-1,54
 345 239 345 239 301 259 c 0,55,56
 242 287 242 287 201.5 309.5 c 128,-1,57
 161 332 161 332 140 358 c 128,-1,58
 119 384 119 384 119 420 c 0,59,60
 119 451 119 451 135.5 472.5 c 128,-1,61
 152 494 152 494 180 507 c 1,62,-1
 139 565 l 1,63,64
 109 550 109 550 87 527.5 c 128,-1,65
 65 505 65 505 54 478 c 128,-1,66
 43 451 43 451 43 420 c 0,67,68
 43 384 43 384 54.5 355.5 c 128,-1,69
 66 327 66 327 88.5 302.5 c 128,-1,70
 111 278 111 278 144.5 257.5 c 128,-1,71
 178 237 178 237 222 217 c 0,72,73
 281 192 281 192 321 169.5 c 128,-1,74
 361 147 361 147 381.5 121 c 128,-1,75
 402 95 402 95 402 58 c 0,76,77
 402 27 402 27 383.5 1.5 c 128,-1,78
 365 -24 365 -24 329 -37.5 c 128,-1,79
 293 -51 293 -51 239 -51 c 0,80,81
 208 -51 208 -51 176 -44.5 c 128,-1,82
 144 -38 144 -38 117.5 -28.5 c 128,-1,83
 91 -19 91 -19 72 -10 c 1,84,-1
 54 -73 l 1,41,42
EndSplineSet
EndChar

StartChar: ordfeminine
Encoding: 170 170 333
Width: 331
Flags: W
LayerCount: 2
Fore
SplineSet
98 466 m 0,0,1
 98 489 98 489 117.5 501 c 128,-1,2
 137 513 137 513 164 513 c 2,3,-1
 233 513 l 1,4,-1
 233 467 l 1,5,6
 217 448 217 448 195.5 434.5 c 128,-1,7
 174 421 174 421 149 421 c 0,8,9
 125 421 125 421 111.5 435 c 128,-1,10
 98 449 98 449 98 466 c 0,0,1
68 621 m 1,11,12
 86 628 86 628 108 635 c 128,-1,13
 130 642 130 642 161 642 c 0,14,15
 197 642 197 642 214.5 622.5 c 128,-1,16
 232 603 232 603 232 574 c 2,17,-1
 232 563 l 1,18,-1
 154 563 l 2,19,20
 102 563 102 563 67.5 537 c 128,-1,21
 33 511 33 511 33 464 c 0,22,23
 33 420 33 420 64.5 391.5 c 128,-1,24
 96 363 96 363 148 363 c 0,25,26
 176 363 176 363 200.5 376.5 c 128,-1,27
 225 390 225 390 241 405 c 1,28,-1
 255 371 l 1,29,-1
 298 371 l 1,30,-1
 298 581 l 2,31,32
 298 613 298 613 280.5 640.5 c 128,-1,33
 263 668 263 668 232.5 685 c 128,-1,34
 202 702 202 702 160 702 c 0,35,36
 146 702 146 702 126 698.5 c 128,-1,37
 106 695 106 695 86 688.5 c 128,-1,38
 66 682 66 682 54 673 c 1,39,-1
 68 621 l 1,11,12
EndSplineSet
EndChar

StartChar: logicalnot
Encoding: 172 172 334
Width: 514
Flags: W
LayerCount: 2
Fore
SplineSet
476 406 m 1,0,-1
 10 406 l 1,1,-1
 18 343 l 1,2,-1
 413 343 l 1,3,-1
 413 117 l 1,4,-1
 484 112 l 1,5,-1
 484 356 l 1,6,-1
 476 406 l 1,0,-1
EndSplineSet
EndChar

StartChar: paragraph
Encoding: 182 182 335
Width: 837
Flags: W
LayerCount: 2
Fore
SplineSet
407 0 m 1,0,-1
 407 617 l 1,1,-1
 628 617 l 1,2,-1
 628 0 l 1,3,-1
 707 0 l 1,4,-1
 707 617 l 1,5,-1
 805 617 l 1,6,-1
 805 680 l 1,7,-1
 283 680 l 2,8,9
 212 680 212 680 155 659 c 128,-1,10
 98 638 98 638 65.5 592 c 128,-1,11
 33 546 33 546 33 471 c 0,12,13
 33 415 33 415 53.5 375 c 128,-1,14
 74 335 74 335 110.5 309 c 128,-1,15
 147 283 147 283 194 270 c 128,-1,16
 241 257 241 257 294 257 c 2,17,-1
 329 257 l 1,18,-1
 329 0 l 1,19,-1
 407 0 l 1,0,-1
EndSplineSet
EndChar

StartChar: ordmasculine
Encoding: 186 186 336
Width: 383
Flags: W
LayerCount: 2
Fore
SplineSet
190 702 m 0,0,1
 145 702 145 702 109.5 681 c 128,-1,2
 74 660 74 660 53 622 c 128,-1,3
 32 584 32 584 32 532 c 0,4,5
 32 479 32 479 51.5 441.5 c 128,-1,6
 71 404 71 404 106.5 383.5 c 128,-1,7
 142 363 142 363 189 363 c 256,8,9
 236 363 236 363 272.5 383.5 c 128,-1,10
 309 404 309 404 330 442 c 128,-1,11
 351 480 351 480 351 531 c 0,12,13
 351 585 351 585 330.5 623 c 128,-1,14
 310 661 310 661 274.5 681.5 c 128,-1,15
 239 702 239 702 190 702 c 0,0,1
191 642 m 0,16,17
 227 642 227 642 252 615 c 128,-1,18
 277 588 277 588 277 531 c 0,19,20
 277 493 277 493 264 469 c 128,-1,21
 251 445 251 445 231.5 433.5 c 128,-1,22
 212 422 212 422 190 422 c 0,23,24
 156 422 156 422 130.5 449 c 128,-1,25
 105 476 105 476 105 532 c 0,26,27
 105 572 105 572 118 596 c 128,-1,28
 131 620 131 620 151 631 c 128,-1,29
 171 642 171 642 191 642 c 0,16,17
EndSplineSet
EndChar

StartChar: tm_LllUu
Encoding: 65548 -1 337
Width: 1265
Flags: W
LayerCount: 2
Fore
SplineSet
599 518 m 1,0,-1
 528 513 l 1,1,-1
 528 0 l 1,2,-1
 1000 0 l 2,3,4
 1072 0 1072 0 1119 30 c 128,-1,5
 1166 60 1166 60 1189.5 112 c 128,-1,6
 1213 164 1213 164 1213 231 c 0,7,8
 1213 318 1213 318 1186.5 386 c 128,-1,9
 1160 454 1160 454 1110.5 492.5 c 128,-1,10
 1061 531 1061 531 988 531 c 0,11,12
 936 531 936 531 896.5 509 c 128,-1,13
 857 487 857 487 834.5 443.5 c 128,-1,14
 812 400 812 400 812 334 c 2,15,-1
 812 -11 l 2,16,17
 812 -51 812 -51 825.5 -81.5 c 128,-1,18
 839 -112 839 -112 873 -127 c 1,19,20
 845 -149 845 -149 803 -164 c 128,-1,21
 761 -179 761 -179 708.5 -186.5 c 128,-1,22
 656 -194 656 -194 595 -194 c 0,23,24
 494 -194 494 -194 411.5 -166 c 128,-1,25
 329 -138 329 -138 270 -87.5 c 128,-1,26
 211 -37 211 -37 179.5 32 c 128,-1,27
 148 101 148 101 148 184 c 0,28,29
 148 242 148 242 162 294.5 c 128,-1,30
 176 347 176 347 202.5 387.5 c 128,-1,31
 229 428 229 428 265.5 451 c 128,-1,32
 302 474 302 474 346 474 c 0,33,34
 370 474 370 474 386.5 457 c 128,-1,35
 403 440 403 440 403 414 c 0,36,37
 403 390 403 390 386.5 373 c 128,-1,38
 370 356 370 356 346 356 c 0,39,40
 319 356 319 356 302 373 c 128,-1,41
 285 390 285 390 285 414 c 0,42,43
 285 440 285 440 302 457 c 128,-1,44
 319 474 319 474 346 474 c 1,45,-1
 346 521 l 1,46,47
 295 521 295 521 262.5 490.5 c 128,-1,48
 230 460 230 460 230 413 c 0,49,50
 230 365 230 365 262.5 333.5 c 128,-1,51
 295 302 295 302 346 302 c 0,52,53
 380 302 380 302 406.5 316.5 c 128,-1,54
 433 331 433 331 448 356.5 c 128,-1,55
 463 382 463 382 463 414 c 0,56,57
 463 465 463 465 429 498 c 128,-1,58
 395 531 395 531 341 531 c 0,59,60
 284 531 284 531 235.5 503.5 c 128,-1,61
 187 476 187 476 150.5 427.5 c 128,-1,62
 114 379 114 379 93.5 316.5 c 128,-1,63
 73 254 73 254 73 184 c 0,64,65
 73 88 73 88 110 7.5 c 128,-1,66
 147 -73 147 -73 216.5 -132 c 128,-1,67
 286 -191 286 -191 382 -223.5 c 128,-1,68
 478 -256 478 -256 595 -256 c 0,69,70
 677 -256 677 -256 747 -241.5 c 128,-1,71
 817 -227 817 -227 869.5 -200.5 c 128,-1,72
 922 -174 922 -174 952 -141 c 1,73,-1
 1117 -141 l 1,74,-1
 1109 -85 l 1,75,-1
 945 -85 l 2,76,77
 914 -85 914 -85 898.5 -67 c 128,-1,78
 883 -49 883 -49 883 -8 c 2,79,-1
 883 336 l 2,80,81
 883 406 883 406 912.5 437.5 c 128,-1,82
 942 469 942 469 990 469 c 0,83,84
 1039 469 1039 469 1071.5 438 c 128,-1,85
 1104 407 1104 407 1120.5 353.5 c 128,-1,86
 1137 300 1137 300 1137 231 c 0,87,88
 1137 181 1137 181 1123.5 141.5 c 128,-1,89
 1110 102 1110 102 1080 79.5 c 128,-1,90
 1050 57 1050 57 1000 57 c 2,91,-1
 599 57 l 1,92,-1
 599 518 l 1,0,-1
EndSplineSet
Ligature2: "'psts' Post Base Substitutions lookup 3 subtable" tm_Llla tm_VowelUu
EndChar

StartChar: tm_Llla
Encoding: 2996 2996 338
Width: 829
GlyphClass: 2
Flags: W
AnchorPoint: "Anchor-1" 506 0 basechar 0
AnchorPoint: "Anchor-0" 829 0 basechar 0
LayerCount: 2
Fore
SplineSet
447 31 m 1,0,-1
 376 10 l 1,1,-1
 376 -41 l 2,2,3
 376 -81 376 -81 389.5 -111.5 c 128,-1,4
 403 -142 403 -142 438 -157 c 1,5,6
 420 -198 420 -198 385 -219 c 128,-1,7
 350 -240 350 -240 304 -240 c 0,8,9
 252 -240 252 -240 220.5 -210.5 c 128,-1,10
 189 -181 189 -181 189 -136 c 1,11,-1
 117 -136 l 1,12,13
 117 -184 117 -184 140.5 -222 c 128,-1,14
 164 -260 164 -260 206.5 -281 c 128,-1,15
 249 -302 249 -302 305 -302 c 0,16,17
 350 -302 350 -302 391 -285.5 c 128,-1,18
 432 -269 432 -269 462.5 -239.5 c 128,-1,19
 493 -210 493 -210 507 -171 c 1,20,-1
 681 -171 l 1,21,-1
 674 -115 l 1,22,-1
 511 -115 l 2,23,24
 480 -115 480 -115 463.5 -97 c 128,-1,25
 447 -79 447 -79 447 -38 c 2,26,-1
 447 31 l 1,0,-1
163 57 m 1,27,-1
 163 518 l 1,28,-1
 93 513 l 1,29,-1
 93 0 l 1,30,-1
 565 0 l 2,31,32
 638 0 638 0 684 30 c 128,-1,33
 730 60 730 60 753.5 112 c 128,-1,34
 777 164 777 164 777 231 c 0,35,36
 777 318 777 318 751 386 c 128,-1,37
 725 454 725 454 675.5 492.5 c 128,-1,38
 626 531 626 531 553 531 c 0,39,40
 501 531 501 531 461 509 c 128,-1,41
 421 487 421 487 398.5 443.5 c 128,-1,42
 376 400 376 400 376 334 c 2,43,-1
 376 10 l 1,44,-1
 447 19 l 1,45,-1
 447 336 l 2,46,47
 447 406 447 406 477 437.5 c 128,-1,48
 507 469 507 469 556 469 c 0,49,50
 604 469 604 469 636.5 438 c 128,-1,51
 669 407 669 407 685.5 353.5 c 128,-1,52
 702 300 702 300 702 231 c 0,53,54
 702 181 702 181 688.5 141.5 c 128,-1,55
 675 102 675 102 644.5 79.5 c 128,-1,56
 614 57 614 57 565 57 c 2,57,-1
 163 57 l 1,27,-1
EndSplineSet
EndChar

StartChar: tm_Ya
Encoding: 2991 2991 339
Width: 925
GlyphClass: 2
Flags: W
AnchorPoint: "Anchor-1" 438 0 basechar 0
AnchorPoint: "Anchor-0" 970 0 basechar 0
LayerCount: 2
Fore
SplineSet
832 513 m 1,0,-1
 832 0 l 1,1,-1
 394 0 l 1,2,-1
 394 513 l 1,3,-1
 465 513 l 1,4,-1
 465 57 l 1,5,-1
 761 57 l 1,6,-1
 761 513 l 1,7,-1
 832 513 l 1,0,-1
83 513 m 1,8,-1
 153 518 l 1,9,-1
 153 189 l 2,10,11
 153 110 153 110 183.5 77 c 128,-1,12
 214 44 214 44 266 44 c 0,13,14
 331 44 331 44 362.5 89 c 128,-1,15
 394 134 394 134 394 203 c 1,16,-1
 445 203 l 1,17,18
 445 140 445 140 423 90 c 128,-1,19
 401 40 401 40 361 11 c 128,-1,20
 321 -18 321 -18 266 -18 c 256,21,22
 211 -18 211 -18 169.5 4.5 c 128,-1,23
 128 27 128 27 105.5 73 c 128,-1,24
 83 119 83 119 83 189 c 2,25,-1
 83 513 l 1,8,-1
EndSplineSet
EndChar

StartChar: tm_Seven
Encoding: 3053 3053 340
Width: 758
Flags: W
LayerCount: 2
Fore
SplineSet
668 513 m 1,0,-1
 668 0 l 1,1,-1
 596 0 l 1,2,-1
 596 457 l 1,3,-1
 438 457 l 1,4,-1
 450 513 l 1,5,-1
 668 513 l 1,0,-1
128 237 m 0,6,7
 128 179 128 179 150.5 134.5 c 128,-1,8
 173 90 173 90 219 64.5 c 128,-1,9
 265 39 265 39 332 39 c 0,10,11
 378 39 378 39 407.5 68 c 128,-1,12
 437 97 437 97 437 141 c 0,13,14
 437 186 437 186 407.5 215.5 c 128,-1,15
 378 245 378 245 332 245 c 0,16,17
 288 245 288 245 259 216 c 128,-1,18
 230 187 230 187 230 141 c 0,19,20
 230 97 230 97 259 68 c 128,-1,21
 288 39 288 39 332 39 c 1,22,-1
 332 0 l 1,23,24
 286 0 286 0 248.5 18.5 c 128,-1,25
 211 37 211 37 190.5 69 c 128,-1,26
 170 101 170 101 170 142 c 0,27,28
 170 189 170 189 191 224.5 c 128,-1,29
 212 260 212 260 249 280.5 c 128,-1,30
 286 301 286 301 332 301 c 0,31,32
 383 301 383 301 421.5 280.5 c 128,-1,33
 460 260 460 260 482.5 224.5 c 128,-1,34
 505 189 505 189 505 141 c 0,35,36
 505 95 505 95 482 59 c 128,-1,37
 459 23 459 23 420 2.5 c 128,-1,38
 381 -18 381 -18 329 -18 c 0,39,40
 243 -18 243 -18 180.5 16 c 128,-1,41
 118 50 118 50 85.5 107.5 c 128,-1,42
 53 165 53 165 53 237 c 0,43,44
 53 317 53 317 89 379.5 c 128,-1,45
 125 442 125 442 197.5 477.5 c 128,-1,46
 270 513 270 513 380 513 c 2,47,-1
 560 513 l 1,48,-1
 560 457 l 1,49,-1
 389 457 l 2,50,51
 298 457 298 457 240 429 c 128,-1,52
 182 401 182 401 155 351.5 c 128,-1,53
 128 302 128 302 128 237 c 0,6,7
EndSplineSet
EndChar

StartChar: tm_Merpadi
Encoding: 3064 3064 341
Width: 1863
Flags: W
LayerCount: 2
Fore
SplineSet
1398 531 m 256,0,1
 1450 531 1450 531 1487 510.5 c 128,-1,2
 1524 490 1524 490 1544 454 c 128,-1,3
 1564 418 1564 418 1564 369 c 2,4,-1
 1564 -243 l 1,5,-1
 1494 -243 l 1,6,-1
 1494 364 l 2,7,8
 1494 412 1494 412 1469 440.5 c 128,-1,9
 1444 469 1444 469 1398 469 c 0,10,11
 1353 469 1353 469 1328 440.5 c 128,-1,12
 1303 412 1303 412 1303 369 c 0,13,14
 1303 323 1303 323 1338 292 c 128,-1,15
 1373 261 1373 261 1430 261 c 0,16,17
 1492 261 1492 261 1543 288.5 c 128,-1,18
 1594 316 1594 316 1633 361 c 128,-1,19
 1672 406 1672 406 1700 457 c 1,20,-1
 1761 444 l 1,21,22
 1733 375 1733 375 1686.5 319.5 c 128,-1,23
 1640 264 1640 264 1576.5 231.5 c 128,-1,24
 1513 199 1513 199 1430 199 c 0,25,26
 1371 199 1371 199 1325.5 221.5 c 128,-1,27
 1280 244 1280 244 1254.5 282 c 128,-1,28
 1229 320 1229 320 1228 369 c 0,29,30
 1228 416 1228 416 1249 452.5 c 128,-1,31
 1270 489 1270 489 1308 510 c 128,-1,32
 1346 531 1346 531 1398 531 c 256,0,1
1093 271 m 0,33,34
 1093 328 1093 328 1072.5 372.5 c 128,-1,35
 1052 417 1052 417 1009.5 443 c 128,-1,36
 967 469 967 469 904 469 c 0,37,38
 846 469 846 469 797.5 447 c 128,-1,39
 749 425 749 425 713.5 385.5 c 128,-1,40
 678 346 678 346 658.5 292 c 128,-1,41
 639 238 639 238 639 174 c 0,42,43
 639 117 639 117 662 80.5 c 128,-1,44
 685 44 685 44 727 44 c 0,45,46
 772 44 772 44 794.5 80.5 c 128,-1,47
 817 117 817 117 817 174 c 0,48,49
 817 238 817 238 790.5 292 c 128,-1,50
 764 346 764 346 716 385.5 c 128,-1,51
 668 425 668 425 602 447 c 128,-1,52
 536 469 536 469 455 469 c 0,53,54
 356 469 356 469 282.5 437.5 c 128,-1,55
 209 406 209 406 168.5 352 c 128,-1,56
 128 298 128 298 128 228 c 0,57,58
 128 173 128 173 150.5 130 c 128,-1,59
 173 87 173 87 218.5 63 c 128,-1,60
 264 39 264 39 332 39 c 0,61,62
 378 39 378 39 407.5 68 c 128,-1,63
 437 97 437 97 437 141 c 0,64,65
 437 186 437 186 407.5 215.5 c 128,-1,66
 378 245 378 245 332 245 c 0,67,68
 288 245 288 245 259 215.5 c 128,-1,69
 230 186 230 186 230 142 c 0,70,71
 230 97 230 97 259 68 c 128,-1,72
 288 39 288 39 332 39 c 1,73,-1
 332 0 l 1,74,75
 286 0 286 0 249 18.5 c 128,-1,76
 212 37 212 37 191 69 c 128,-1,77
 170 101 170 101 170 142 c 0,78,79
 170 189 170 189 191 224.5 c 128,-1,80
 212 260 212 260 249 280.5 c 128,-1,81
 286 301 286 301 332 301 c 0,82,83
 382 301 382 301 421 280.5 c 128,-1,84
 460 260 460 260 482.5 224 c 128,-1,85
 505 188 505 188 505 141 c 0,86,87
 505 96 505 96 482 59.5 c 128,-1,88
 459 23 459 23 419.5 2.5 c 128,-1,89
 380 -18 380 -18 329 -18 c 0,90,91
 243 -18 243 -18 180.5 14 c 128,-1,92
 118 46 118 46 85.5 102.5 c 128,-1,93
 53 159 53 159 53 228 c 0,94,95
 53 316 53 316 102.5 384 c 128,-1,96
 152 452 152 452 243 491.5 c 128,-1,97
 334 531 334 531 455 531 c 0,98,99
 550 531 550 531 630 503.5 c 128,-1,100
 710 476 710 476 768.5 427.5 c 128,-1,101
 827 379 827 379 859.5 314 c 128,-1,102
 892 249 892 249 892 174 c 0,103,104
 892 118 892 118 872.5 74.5 c 128,-1,105
 853 31 853 31 816 6.5 c 128,-1,106
 779 -18 779 -18 727 -18 c 0,107,108
 677 -18 677 -18 640 6.5 c 128,-1,109
 603 31 603 31 583.5 74.5 c 128,-1,110
 564 118 564 118 564 174 c 0,111,112
 564 250 564 250 591.5 315 c 128,-1,113
 619 380 619 380 666 428.5 c 128,-1,114
 713 477 713 477 774.5 504 c 128,-1,115
 836 531 836 531 904 531 c 0,116,117
 990 531 990 531 1048.5 497.5 c 128,-1,118
 1107 464 1107 464 1137.5 405 c 128,-1,119
 1168 346 1168 346 1168 270 c 0,120,121
 1168 224 1168 224 1157 169.5 c 128,-1,122
 1146 115 1146 115 1120 57 c 1,123,-1
 1700 57 l 1,124,-1
 1700 457 l 1,125,-1
 1770 457 l 1,126,-1
 1770 0 l 1,127,-1
 1044 0 l 1,128,-1
 1044 57 l 1,129,130
 1070 110 1070 110 1081.5 168.5 c 128,-1,131
 1093 227 1093 227 1093 271 c 0,33,34
EndSplineSet
EndChar

StartChar: tm_O
Encoding: 2962 2962 342
Width: 819
Flags: W
LayerCount: 2
Fore
SplineSet
406 534 m 256,0,1
 484 534 484 534 549 515 c 128,-1,2
 614 496 614 496 662 462 c 128,-1,3
 710 428 710 428 736.5 381 c 128,-1,4
 763 334 763 334 763 279 c 0,5,6
 763 231 763 231 745 194.5 c 128,-1,7
 727 158 727 158 694.5 138 c 128,-1,8
 662 118 662 118 617 118 c 0,9,10
 576 118 576 118 545 137.5 c 128,-1,11
 514 157 514 157 496.5 191 c 128,-1,12
 479 225 479 225 479 269 c 1,13,-1
 537 269 l 1,14,15
 538 230 538 230 559.5 205 c 128,-1,16
 581 180 581 180 617 180 c 0,17,18
 652 180 652 180 670 207.5 c 128,-1,19
 688 235 688 235 688 279 c 0,20,21
 688 335 688 335 651.5 378.5 c 128,-1,22
 615 422 615 422 551.5 447 c 128,-1,23
 488 472 488 472 406 472 c 0,24,25
 322 472 322 472 256 446 c 128,-1,26
 190 420 190 420 153 374 c 128,-1,27
 116 328 116 328 116 269 c 0,28,29
 116 238 116 238 128.5 213 c 128,-1,30
 141 188 141 188 162 174.5 c 128,-1,31
 183 161 183 161 207 161 c 0,32,33
 234 161 234 161 251 178 c 128,-1,34
 268 195 268 195 269 222 c 0,35,36
 269 248 269 248 252 265 c 128,-1,37
 235 282 235 282 209 282 c 0,38,39
 181 282 181 282 163 265.5 c 128,-1,40
 145 249 145 249 145 222 c 256,41,42
 145 195 145 195 162.5 178 c 128,-1,43
 180 161 180 161 207 161 c 1,44,-1
 207 106 l 1,45,46
 158 106 158 106 126.5 139 c 128,-1,47
 95 172 95 172 95 222 c 0,48,49
 95 274 95 274 127.5 307 c 128,-1,50
 160 340 160 340 212 340 c 0,51,52
 266 340 266 340 301.5 307 c 128,-1,53
 337 274 337 274 337 222 c 256,54,55
 337 170 337 170 300.5 136 c 128,-1,56
 264 102 264 102 207 102 c 0,57,58
 162 102 162 102 126.5 123.5 c 128,-1,59
 91 145 91 145 70.5 183 c 128,-1,60
 50 221 50 221 50 269 c 0,61,62
 50 327 50 327 76 375.5 c 128,-1,63
 102 424 102 424 150 459.5 c 128,-1,64
 198 495 198 495 263 514.5 c 128,-1,65
 328 534 328 534 406 534 c 256,0,1
727 -35 m 1,66,-1
 659 -35 l 2,67,68
 570 -35 570 -35 521 11 c 128,-1,69
 472 57 472 57 472 133 c 2,70,-1
 472 269 l 1,71,-1
 537 269 l 1,72,-1
 537 133 l 2,73,74
 537 78 537 78 568.5 49.5 c 128,-1,75
 600 21 600 21 659 21 c 2,76,-1
 727 21 l 1,77,-1
 727 -35 l 1,66,-1
412 -157 m 256,78,79
 468 -157 468 -157 502.5 -126.5 c 128,-1,80
 537 -96 537 -96 537 -50 c 2,81,-1
 537 19 l 1,82,-1
 604 0 l 1,83,-1
 604 -50 l 2,84,85
 604 -99 604 -99 580 -137 c 128,-1,86
 556 -175 556 -175 512.5 -197 c 128,-1,87
 469 -219 469 -219 413 -219 c 0,88,89
 354 -219 354 -219 310 -197 c 128,-1,90
 266 -175 266 -175 241.5 -137 c 128,-1,91
 217 -99 217 -99 217 -50 c 2,92,-1
 217 0 l 1,93,-1
 288 0 l 1,94,-1
 288 -50 l 2,95,96
 288 -97 288 -97 322 -127 c 128,-1,97
 356 -157 356 -157 412 -157 c 256,78,79
EndSplineSet
EndChar

StartChar: tm_VowelU.alt2
Encoding: 65549 -1 343
Width: 471
Flags: W
LayerCount: 2
Fore
SplineSet
265 457 m 2,0,-1
 -270 457 l 1,1,-1
 -270 513 l 1,2,-1
 262 513 l 2,3,4
 314 513 314 513 353.5 492.5 c 128,-1,5
 393 472 393 472 416 436 c 128,-1,6
 439 400 439 400 439 354 c 0,7,8
 439 307 439 307 416 271 c 128,-1,9
 393 235 393 235 354.5 214.5 c 128,-1,10
 316 194 316 194 265 194 c 0,11,12
 216 194 216 194 177 214.5 c 128,-1,13
 138 235 138 235 116 271 c 128,-1,14
 94 307 94 307 94 353 c 0,15,16
 94 398 94 398 115.5 433 c 128,-1,17
 137 468 137 468 176 488.5 c 128,-1,18
 215 509 215 509 265 509 c 1,19,-1
 265 457 l 1,20,21
 220 457 220 457 191 428 c 128,-1,22
 162 399 162 399 162 354 c 256,23,24
 162 309 162 309 191 279.5 c 128,-1,25
 220 250 220 250 265 250 c 256,26,27
 310 250 310 250 338.5 279.5 c 128,-1,28
 367 309 367 309 367 354 c 256,29,30
 367 399 367 399 338.5 428 c 128,-1,31
 310 457 310 457 265 457 c 2,0,-1
EndSplineSet
EndChar

StartChar: tm_Nya
Encoding: 2974 2974 344
Width: 1233
GlyphClass: 2
Flags: W
AnchorPoint: "Anchor-1" 675 0 basechar 0
AnchorPoint: "Anchor-0" 1109 0 basechar 0
LayerCount: 2
Fore
SplineSet
370 237 m 0,0,1
 370 180 370 180 393 135 c 128,-1,2
 416 90 416 90 461.5 64.5 c 128,-1,3
 507 39 507 39 576 39 c 0,4,5
 621 39 621 39 650 68 c 128,-1,6
 679 97 679 97 679 141 c 0,7,8
 679 186 679 186 650 215.5 c 128,-1,9
 621 245 621 245 576 245 c 256,10,11
 531 245 531 245 501.5 215.5 c 128,-1,12
 472 186 472 186 472 142 c 0,13,14
 472 97 472 97 501.5 68 c 128,-1,15
 531 39 531 39 576 39 c 1,16,-1
 576 0 l 1,17,18
 528 0 528 0 491 18.5 c 128,-1,19
 454 37 454 37 433 69 c 128,-1,20
 412 101 412 101 412 142 c 0,21,22
 412 189 412 189 433 224.5 c 128,-1,23
 454 260 454 260 491 280.5 c 128,-1,24
 528 301 528 301 576 301 c 0,25,26
 626 301 626 301 664.5 280.5 c 128,-1,27
 703 260 703 260 725 224 c 128,-1,28
 747 188 747 188 747 141 c 0,29,30
 747 96 747 96 724.5 59.5 c 128,-1,31
 702 23 702 23 663 2.5 c 128,-1,32
 624 -18 624 -18 573 -18 c 0,33,34
 485 -18 485 -18 423 16 c 128,-1,35
 361 50 361 50 328 107.5 c 128,-1,36
 295 165 295 165 295 237 c 0,37,38
 295 317 295 317 331 379.5 c 128,-1,39
 367 442 367 442 440 477.5 c 128,-1,40
 513 513 513 513 622 513 c 2,41,-1
 739 513 l 1,42,-1
 739 457 l 1,43,-1
 631 457 l 2,44,45
 541 457 541 457 483 429 c 128,-1,46
 425 401 425 401 397.5 351.5 c 128,-1,47
 370 302 370 302 370 237 c 0,0,1
999 354 m 0,48,49
 1059 354 1059 354 1099.5 324.5 c 128,-1,50
 1140 295 1140 295 1160.5 245 c 128,-1,51
 1181 195 1181 195 1181 132 c 0,52,53
 1181 41 1181 41 1143.5 -31 c 128,-1,54
 1106 -103 1106 -103 1035.5 -153 c 128,-1,55
 965 -203 965 -203 867 -229.5 c 128,-1,56
 769 -256 769 -256 649 -256 c 0,57,58
 519 -256 519 -256 412.5 -226.5 c 128,-1,59
 306 -197 306 -197 229.5 -140 c 128,-1,60
 153 -83 153 -83 113 -2 c 128,-1,61
 73 79 73 79 73 180 c 0,62,63
 73 244 73 244 91.5 308 c 128,-1,64
 110 372 110 372 143 428 c 128,-1,65
 176 484 176 484 218 523 c 1,66,-1
 290 513 l 1,67,68
 250 479 250 479 217.5 425.5 c 128,-1,69
 185 372 185 372 166.5 308.5 c 128,-1,70
 148 245 148 245 148 178 c 0,71,72
 148 90 148 90 183 21.5 c 128,-1,73
 218 -47 218 -47 284 -95 c 128,-1,74
 350 -143 350 -143 442 -168.5 c 128,-1,75
 534 -194 534 -194 649 -194 c 0,76,77
 787 -194 787 -194 889.5 -156 c 128,-1,78
 992 -118 992 -118 1049 -45 c 128,-1,79
 1106 28 1106 28 1106 132 c 0,80,81
 1106 177 1106 177 1095.5 213 c 128,-1,82
 1085 249 1085 249 1061 271 c 128,-1,83
 1037 293 1037 293 997 293 c 0,84,85
 948 293 948 293 915.5 255.5 c 128,-1,86
 883 218 883 218 883 162 c 2,87,-1
 883 0 l 1,88,-1
 813 0 l 1,89,-1
 813 457 l 1,90,-1
 708 457 l 1,91,-1
 707 513 l 1,92,-1
 1064 513 l 1,93,-1
 1072 457 l 1,94,-1
 883 457 l 1,95,-1
 883 304 l 1,96,97
 905 327 905 327 934.5 340.5 c 128,-1,98
 964 354 964 354 999 354 c 0,48,49
EndSplineSet
Substitution2: "Single Substitution lookup 5 subtable" tm_NyU
EndChar

StartChar: tm_VowelE
Encoding: 3014 3014 346
Width: 786
Flags: W
LayerCount: 2
Fore
SplineSet
694 345 m 2,0,-1
 694 0 l 1,1,-1
 623 0 l 1,2,-1
 623 345 l 2,3,4
 623 429 623 429 594.5 489 c 128,-1,5
 566 549 566 549 513 581 c 128,-1,6
 460 613 460 613 384 613 c 0,7,8
 304 613 304 613 246.5 574.5 c 128,-1,9
 189 536 189 536 158.5 469.5 c 128,-1,10
 128 403 128 403 128 318 c 0,11,12
 128 235 128 235 152.5 172 c 128,-1,13
 177 109 177 109 223 74 c 128,-1,14
 269 39 269 39 332 39 c 0,15,16
 378 39 378 39 407.5 68 c 128,-1,17
 437 97 437 97 437 141 c 0,18,19
 437 186 437 186 407.5 215.5 c 128,-1,20
 378 245 378 245 332 245 c 0,21,22
 288 245 288 245 259 216 c 128,-1,23
 230 187 230 187 230 141 c 0,24,25
 230 97 230 97 259 68 c 128,-1,26
 288 39 288 39 332 39 c 1,27,-1
 332 0 l 1,28,29
 286 0 286 0 248.5 18.5 c 128,-1,30
 211 37 211 37 190.5 69 c 128,-1,31
 170 101 170 101 170 142 c 0,32,33
 170 189 170 189 191 224.5 c 128,-1,34
 212 260 212 260 249 280.5 c 128,-1,35
 286 301 286 301 332 301 c 0,36,37
 383 301 383 301 421.5 280.5 c 128,-1,38
 460 260 460 260 482.5 224.5 c 128,-1,39
 505 189 505 189 505 141 c 0,40,41
 505 95 505 95 482 59 c 128,-1,42
 459 23 459 23 420 2.5 c 128,-1,43
 381 -18 381 -18 329 -18 c 0,44,45
 250 -18 250 -18 187 25 c 128,-1,46
 124 68 124 68 88.5 143.5 c 128,-1,47
 53 219 53 219 53 318 c 0,48,49
 53 422 53 422 93 502.5 c 128,-1,50
 133 583 133 583 207.5 629 c 128,-1,51
 282 675 282 675 383 675 c 0,52,53
 480 675 480 675 550 635 c 128,-1,54
 620 595 620 595 657 521 c 128,-1,55
 694 447 694 447 694 345 c 2,0,-1
EndSplineSet
EndChar

StartChar: tm_Nna
Encoding: 2979 2979 347
Width: 1697
GlyphClass: 2
Flags: W
AnchorPoint: "Anchor-1" 909 0 basechar 0
AnchorPoint: "Anchor-0" 1713 0 basechar 0
LayerCount: 2
Fore
SplineSet
1428 0 m 1,0,-1
 1428 457 l 1,1,-1
 1330 457 l 2,2,3
 1264 457 1264 457 1208.5 436 c 128,-1,4
 1153 415 1153 415 1113.5 376.5 c 128,-1,5
 1074 338 1074 338 1053 286.5 c 128,-1,6
 1032 235 1032 235 1032 174 c 0,7,8
 1032 117 1032 117 1054.5 80.5 c 128,-1,9
 1077 44 1077 44 1120 44 c 0,10,11
 1164 44 1164 44 1186.5 80.5 c 128,-1,12
 1209 117 1209 117 1209 174 c 0,13,14
 1209 238 1209 238 1187.5 292 c 128,-1,15
 1166 346 1166 346 1127.5 385.5 c 128,-1,16
 1089 425 1089 425 1037 447 c 128,-1,17
 985 469 985 469 924 469 c 0,18,19
 837 469 837 469 772.5 430 c 128,-1,20
 708 391 708 391 673.5 324 c 128,-1,21
 639 257 639 257 639 174 c 0,22,23
 639 117 639 117 662 80.5 c 128,-1,24
 685 44 685 44 727 44 c 0,25,26
 772 44 772 44 794.5 80.5 c 128,-1,27
 817 117 817 117 817 174 c 0,28,29
 817 238 817 238 790.5 292 c 128,-1,30
 764 346 764 346 716 385.5 c 128,-1,31
 668 425 668 425 602 447 c 128,-1,32
 536 469 536 469 455 469 c 0,33,34
 356 469 356 469 282.5 437.5 c 128,-1,35
 209 406 209 406 168.5 352 c 128,-1,36
 128 298 128 298 128 228 c 0,37,38
 128 173 128 173 150.5 130 c 128,-1,39
 173 87 173 87 218.5 63 c 128,-1,40
 264 39 264 39 332 39 c 0,41,42
 378 39 378 39 407.5 68 c 128,-1,43
 437 97 437 97 437 141 c 0,44,45
 437 186 437 186 407.5 215.5 c 128,-1,46
 378 245 378 245 332 245 c 0,47,48
 288 245 288 245 259 215.5 c 128,-1,49
 230 186 230 186 230 142 c 0,50,51
 230 97 230 97 259 68 c 128,-1,52
 288 39 288 39 332 39 c 1,53,-1
 332 0 l 1,54,55
 286 0 286 0 249 18.5 c 128,-1,56
 212 37 212 37 191 69 c 128,-1,57
 170 101 170 101 170 142 c 0,58,59
 170 189 170 189 191 224.5 c 128,-1,60
 212 260 212 260 249 280.5 c 128,-1,61
 286 301 286 301 332 301 c 0,62,63
 382 301 382 301 421 280.5 c 128,-1,64
 460 260 460 260 482.5 224 c 128,-1,65
 505 188 505 188 505 141 c 0,66,67
 505 96 505 96 482 59.5 c 128,-1,68
 459 23 459 23 419.5 2.5 c 128,-1,69
 380 -18 380 -18 329 -18 c 0,70,71
 243 -18 243 -18 180.5 14 c 128,-1,72
 118 46 118 46 85.5 102.5 c 128,-1,73
 53 159 53 159 53 228 c 0,74,75
 53 316 53 316 102.5 384 c 128,-1,76
 152 452 152 452 243 491.5 c 128,-1,77
 334 531 334 531 455 531 c 0,78,79
 550 531 550 531 630 503.5 c 128,-1,80
 710 476 710 476 768.5 427.5 c 128,-1,81
 827 379 827 379 859.5 314 c 128,-1,82
 892 249 892 249 892 174 c 0,83,84
 892 118 892 118 872.5 74.5 c 128,-1,85
 853 31 853 31 816 6.5 c 128,-1,86
 779 -18 779 -18 727 -18 c 0,87,88
 677 -18 677 -18 640 6.5 c 128,-1,89
 603 31 603 31 583.5 74.5 c 128,-1,90
 564 118 564 118 564 174 c 0,91,92
 564 249 564 249 589.5 314 c 128,-1,93
 615 379 615 379 663.5 427.5 c 128,-1,94
 712 476 712 476 778 503.5 c 128,-1,95
 844 531 844 531 924 531 c 0,96,97
 1001 531 1001 531 1067 504.5 c 128,-1,98
 1133 478 1133 478 1181.5 430 c 128,-1,99
 1230 382 1230 382 1257 316.5 c 128,-1,100
 1284 251 1284 251 1284 174 c 0,101,102
 1284 118 1284 118 1264 74.5 c 128,-1,103
 1244 31 1244 31 1208 6.5 c 128,-1,104
 1172 -18 1172 -18 1120 -18 c 0,105,106
 1070 -18 1070 -18 1033 6.5 c 128,-1,107
 996 31 996 31 976.5 74.5 c 128,-1,108
 957 118 957 118 957 174 c 0,109,110
 957 245 957 245 984.5 306.5 c 128,-1,111
 1012 368 1012 368 1062 414.5 c 128,-1,112
 1112 461 1112 461 1180.5 487 c 128,-1,113
 1249 513 1249 513 1330 513 c 2,114,-1
 1679 513 l 1,115,-1
 1687 457 l 1,116,-1
 1498 457 l 1,117,-1
 1498 0 l 1,118,-1
 1428 0 l 1,0,-1
EndSplineSet
Substitution2: "Single Substitution lookup 5 subtable" tm_NnU
EndChar

StartChar: tm_VowelUu.alt1
Encoding: 65550 -1 348
Width: 427
Flags: W
LayerCount: 2
Fore
SplineSet
228 457 m 1,0,-1
 228 -146 l 1,1,-1
 156 -146 l 1,2,-1
 156 457 l 1,3,-1
 -164 457 l 1,4,-1
 -164 513 l 1,5,-1
 408 513 l 1,6,-1
 417 457 l 1,7,-1
 228 457 l 1,0,-1
EndSplineSet
EndChar

StartChar: tm_Oo
Encoding: 2963 2963 349
Width: 819
Flags: W
LayerCount: 2
Fore
SplineSet
727 21 m 1,0,-1
 727 -35 l 1,1,-1
 659 -35 l 2,2,3
 645 -35 645 -35 628 -33.5 c 128,-1,4
 611 -32 611 -32 601 -29 c 1,5,-1
 601 -50 l 2,6,7
 601 -99 601 -99 575 -137 c 128,-1,8
 549 -175 549 -175 503.5 -197 c 128,-1,9
 458 -219 458 -219 399 -219 c 0,10,11
 343 -219 343 -219 298.5 -201 c 128,-1,12
 254 -183 254 -183 228.5 -152 c 128,-1,13
 203 -121 203 -121 203 -82 c 0,14,15
 203 -30 203 -30 240.5 4 c 128,-1,16
 278 38 278 38 336 38 c 2,17,-1
 356 38 l 1,18,-1
 356 -19 l 1,19,-1
 336 -19 l 2,20,21
 309 -19 309 -19 292.5 -36.5 c 128,-1,22
 276 -54 276 -54 276 -82 c 0,23,24
 276 -115 276 -115 311 -136 c 128,-1,25
 346 -157 346 -157 399 -157 c 0,26,27
 439 -157 439 -157 469 -143 c 128,-1,28
 499 -129 499 -129 516.5 -105 c 128,-1,29
 534 -81 534 -81 534 -50 c 2,30,-1
 534 0 l 1,31,32
 504 22 504 22 488 56 c 128,-1,33
 472 90 472 90 472 133 c 2,34,-1
 472 269 l 1,35,-1
 537 269 l 1,36,37
 538 230 538 230 559.5 205 c 128,-1,38
 581 180 581 180 617 180 c 0,39,40
 652 180 652 180 670 207.5 c 128,-1,41
 688 235 688 235 688 279 c 0,42,43
 688 335 688 335 651.5 379 c 128,-1,44
 615 423 615 423 551.5 447.5 c 128,-1,45
 488 472 488 472 406 472 c 0,46,47
 326 472 326 472 263 448.5 c 128,-1,48
 200 425 200 425 162.5 384.5 c 128,-1,49
 125 344 125 344 119 293 c 1,50,51
 132 310 132 310 154 325 c 128,-1,52
 176 340 176 340 211 340 c 0,53,54
 266 340 266 340 301.5 307 c 128,-1,55
 337 274 337 274 337 222 c 256,56,57
 337 170 337 170 300.5 136 c 128,-1,58
 264 102 264 102 207 102 c 0,59,60
 162 102 162 102 126.5 123.5 c 128,-1,61
 91 145 91 145 70.5 183 c 128,-1,62
 50 221 50 221 50 269 c 0,63,64
 50 327 50 327 76 375.5 c 128,-1,65
 102 424 102 424 150 459.5 c 128,-1,66
 198 495 198 495 263 514.5 c 128,-1,67
 328 534 328 534 406 534 c 256,68,69
 484 534 484 534 549 515 c 128,-1,70
 614 496 614 496 662 462 c 128,-1,71
 710 428 710 428 736.5 381 c 128,-1,72
 763 334 763 334 763 279 c 0,73,74
 763 231 763 231 745 194.5 c 128,-1,75
 727 158 727 158 694.5 138 c 128,-1,76
 662 118 662 118 617 118 c 0,77,78
 593 118 593 118 573.5 125 c 128,-1,79
 554 132 554 132 537 144 c 1,80,-1
 538 124 l 2,81,82
 539 73 539 73 570.5 47 c 128,-1,83
 602 21 602 21 659 21 c 2,84,-1
 727 21 l 1,0,-1
145 222 m 0,85,86
 145 196 145 196 162 178.5 c 128,-1,87
 179 161 179 161 207 161 c 0,88,89
 234 161 234 161 251 178 c 128,-1,90
 268 195 268 195 269 222 c 0,91,92
 269 249 269 249 252 265.5 c 128,-1,93
 235 282 235 282 208 282 c 256,94,95
 181 282 181 282 163 265.5 c 128,-1,96
 145 249 145 249 145 222 c 0,85,86
EndSplineSet
EndChar

StartChar: tm_Aa
Encoding: 2950 2950 350
Width: 1273
Flags: W
LayerCount: 2
Fore
SplineSet
938 69 m 1,0,-1
 154 69 l 2,1,2
 129 69 129 69 118.5 57 c 128,-1,3
 108 45 108 45 108 26 c 0,4,5
 108 -2 108 -2 135.5 -26.5 c 128,-1,6
 163 -51 163 -51 213 -66.5 c 128,-1,7
 263 -82 263 -82 328 -82 c 0,8,9
 434 -82 434 -82 512 -41.5 c 128,-1,10
 590 -1 590 -1 633 69.5 c 128,-1,11
 676 140 676 140 676 230 c 0,12,13
 676 299 676 299 650.5 352.5 c 128,-1,14
 625 406 625 406 577.5 437.5 c 128,-1,15
 530 469 530 469 464 469 c 0,16,17
 413 469 413 469 372.5 451.5 c 128,-1,18
 332 434 332 434 309 403 c 128,-1,19
 286 372 286 372 286 329 c 0,20,21
 286 302 286 302 303.5 284.5 c 128,-1,22
 321 267 321 267 348 268 c 0,23,24
 376 267 376 267 393.5 284.5 c 128,-1,25
 411 302 411 302 411 329 c 0,26,27
 411 355 411 355 393.5 372.5 c 128,-1,28
 376 390 376 390 349 390 c 0,29,30
 321 390 321 390 303.5 372.5 c 128,-1,31
 286 355 286 355 286 329 c 1,32,-1
 236 329 l 1,33,34
 236 363 236 363 251 389.5 c 128,-1,35
 266 416 266 416 292.5 431.5 c 128,-1,36
 319 447 319 447 354 447 c 0,37,38
 409 447 409 447 444 413.5 c 128,-1,39
 479 380 479 380 478 329 c 0,40,41
 477 276 477 276 440.5 242 c 128,-1,42
 404 208 404 208 348 209 c 0,43,44
 293 210 293 210 255.5 243.5 c 128,-1,45
 218 277 218 277 218 329 c 0,46,47
 218 387 218 387 250.5 433 c 128,-1,48
 283 479 283 479 338.5 505 c 128,-1,49
 394 531 394 531 464 531 c 0,50,51
 552 531 552 531 616.5 492 c 128,-1,52
 681 453 681 453 716.5 385 c 128,-1,53
 752 317 752 317 752 230 c 0,54,55
 752 149 752 149 721.5 80.5 c 128,-1,56
 691 12 691 12 635 -38.5 c 128,-1,57
 579 -89 579 -89 501.5 -116.5 c 128,-1,58
 424 -144 424 -144 328 -144 c 0,59,60
 241 -144 241 -144 174.5 -121.5 c 128,-1,61
 108 -99 108 -99 70.5 -60.5 c 128,-1,62
 33 -22 33 -22 33 26 c 0,63,64
 33 70 33 70 63 97.5 c 128,-1,65
 93 125 93 125 152 125 c 2,66,-1
 938 125 l 1,67,-1
 938 69 l 1,0,-1
1091 98 m 0,68,69
 1143 98 1143 98 1182 75.5 c 128,-1,70
 1221 53 1221 53 1242 13 c 128,-1,71
 1263 -27 1263 -27 1263 -79 c 0,72,73
 1263 -144 1263 -144 1236 -198 c 128,-1,74
 1209 -252 1209 -252 1158.5 -292 c 128,-1,75
 1108 -332 1108 -332 1038.5 -354.5 c 128,-1,76
 969 -377 969 -377 886 -377 c 0,77,78
 819 -377 819 -377 767.5 -358 c 128,-1,79
 716 -339 716 -339 686.5 -306 c 128,-1,80
 657 -273 657 -273 657 -231 c 0,81,82
 657 -181 657 -181 694 -148.5 c 128,-1,83
 731 -116 731 -116 790 -116 c 2,84,-1
 811 -116 l 1,85,-1
 811 -173 l 1,86,-1
 790 -173 l 2,87,88
 763 -173 763 -173 747.5 -189 c 128,-1,89
 732 -205 732 -205 732 -231 c 0,90,91
 732 -268 732 -268 775 -291.5 c 128,-1,92
 818 -315 818 -315 886 -315 c 0,93,94
 975 -315 975 -315 1043.5 -284.5 c 128,-1,95
 1112 -254 1112 -254 1150 -200.5 c 128,-1,96
 1188 -147 1188 -147 1188 -78 c 0,97,98
 1188 -31 1188 -31 1161.5 2.5 c 128,-1,99
 1135 36 1135 36 1086 36 c 0,100,101
 1036 36 1036 36 1005.5 1.5 c 128,-1,102
 975 -33 975 -33 975 -86 c 2,103,-1
 975 -126 l 1,104,-1
 904 -126 l 1,105,-1
 904 513 l 1,106,-1
 975 513 l 1,107,-1
 975 50 l 1,108,109
 996 72 996 72 1026 85 c 128,-1,110
 1056 98 1056 98 1091 98 c 0,68,69
EndSplineSet
EndChar

StartChar: tm_A
Encoding: 2949 2949 351
Width: 1068
Flags: W
LayerCount: 2
Fore
SplineSet
975 -126 m 1,0,-1
 975 513 l 1,1,-1
 904 513 l 1,2,-1
 904 -126 l 1,3,-1
 975 -126 l 1,0,-1
464 531 m 0,4,5
 394 531 394 531 338.5 505 c 128,-1,6
 283 479 283 479 250.5 433 c 128,-1,7
 218 387 218 387 218 329 c 0,8,9
 218 277 218 277 255.5 243.5 c 128,-1,10
 293 210 293 210 348 209 c 0,11,12
 404 208 404 208 440.5 242 c 128,-1,13
 477 276 477 276 478 329 c 0,14,15
 479 380 479 380 444 413.5 c 128,-1,16
 409 447 409 447 354 447 c 0,17,18
 319 447 319 447 292.5 431.5 c 128,-1,19
 266 416 266 416 251 389.5 c 128,-1,20
 236 363 236 363 236 329 c 1,21,-1
 286 329 l 1,22,23
 286 355 286 355 303.5 372.5 c 128,-1,24
 321 390 321 390 349 390 c 0,25,26
 376 390 376 390 393.5 372.5 c 128,-1,27
 411 355 411 355 411 329 c 0,28,29
 411 302 411 302 393.5 284.5 c 128,-1,30
 376 267 376 267 348 268 c 0,31,32
 321 267 321 267 303.5 284.5 c 128,-1,33
 286 302 286 302 286 329 c 0,34,35
 286 372 286 372 309 403 c 128,-1,36
 332 434 332 434 372.5 451.5 c 128,-1,37
 413 469 413 469 464 469 c 0,38,39
 530 469 530 469 577.5 437.5 c 128,-1,40
 625 406 625 406 650.5 352.5 c 128,-1,41
 676 299 676 299 676 230 c 0,42,43
 676 140 676 140 633 69.5 c 128,-1,44
 590 -1 590 -1 512 -41.5 c 128,-1,45
 434 -82 434 -82 328 -82 c 0,46,47
 263 -82 263 -82 213 -66.5 c 128,-1,48
 163 -51 163 -51 135.5 -26.5 c 128,-1,49
 108 -2 108 -2 108 26 c 0,50,51
 108 45 108 45 118.5 57 c 128,-1,52
 129 69 129 69 154 69 c 2,53,-1
 904 69 l 1,54,-1
 904 125 l 1,55,-1
 152 125 l 2,56,57
 93 125 93 125 63 97.5 c 128,-1,58
 33 70 33 70 33 26 c 0,59,60
 33 -22 33 -22 70.5 -60.5 c 128,-1,61
 108 -99 108 -99 174.5 -121.5 c 128,-1,62
 241 -144 241 -144 328 -144 c 0,63,64
 424 -144 424 -144 501.5 -116.5 c 128,-1,65
 579 -89 579 -89 635 -38.5 c 128,-1,66
 691 12 691 12 721.5 80.5 c 128,-1,67
 752 149 752 149 752 230 c 0,68,69
 752 317 752 317 716.5 385 c 128,-1,70
 681 453 681 453 616.5 492 c 128,-1,71
 552 531 552 531 464 531 c 0,4,5
EndSplineSet
EndChar

StartChar: tm_Uu
Encoding: 2954 2954 352
Width: 1639
Flags: W
LayerCount: 2
Fore
SplineSet
78 57 m 1,0,-1
 306 57 l 2,1,2
 371 57 371 57 421.5 85 c 128,-1,3
 472 113 472 113 500.5 161.5 c 128,-1,4
 529 210 529 210 529 273 c 0,5,6
 529 330 529 330 502.5 374 c 128,-1,7
 476 418 476 418 429 443.5 c 128,-1,8
 382 469 382 469 320 469 c 0,9,10
 255 469 255 469 206 444 c 128,-1,11
 157 419 157 419 129.5 375 c 128,-1,12
 102 331 102 331 102 272 c 0,13,14
 102 234 102 234 127 208.5 c 128,-1,15
 152 183 152 183 192 183 c 0,16,17
 229 183 229 183 253.5 207.5 c 128,-1,18
 278 232 278 232 278 269 c 256,19,20
 278 306 278 306 253.5 330.5 c 128,-1,21
 229 355 229 355 192 355 c 0,22,23
 152 355 152 355 127 331 c 128,-1,24
 102 307 102 307 102 272 c 1,25,-1
 53 272 l 1,26,27
 53 312 53 312 71 343 c 128,-1,28
 89 374 89 374 121 391.5 c 128,-1,29
 153 409 153 409 193 409 c 0,30,31
 238 409 238 409 272.5 391.5 c 128,-1,32
 307 374 307 374 327 342 c 128,-1,33
 347 310 347 310 347 269 c 0,34,35
 347 227 347 227 327 195 c 128,-1,36
 307 163 307 163 272 144.5 c 128,-1,37
 237 126 237 126 193 126 c 0,38,39
 146 126 146 126 110 145 c 128,-1,40
 74 164 74 164 53.5 197.5 c 128,-1,41
 33 231 33 231 33 274 c 0,42,43
 33 348 33 348 69.5 406 c 128,-1,44
 106 464 106 464 171 497.5 c 128,-1,45
 236 531 236 531 320 531 c 256,46,47
 404 531 404 531 468.5 497.5 c 128,-1,48
 533 464 533 464 569 406 c 128,-1,49
 605 348 605 348 605 273 c 0,50,51
 605 204 605 204 576 148 c 128,-1,52
 547 92 547 92 491 57 c 1,53,-1
 1629 57 l 1,54,-1
 1629 0 l 1,55,-1
 78 0 l 1,56,-1
 78 57 l 1,0,-1
757 301 m 0,57,58
 757 258 757 258 775.5 224 c 128,-1,59
 794 190 794 190 829 171 c 128,-1,60
 864 152 864 152 915 152 c 0,61,62
 948 152 948 152 968.5 173 c 128,-1,63
 989 194 989 194 989 226 c 256,64,65
 989 258 989 258 968.5 278 c 128,-1,66
 948 298 948 298 915 298 c 0,67,68
 883 298 883 298 862 278.5 c 128,-1,69
 841 259 841 259 841 225 c 0,70,71
 841 194 841 194 862 173 c 128,-1,72
 883 152 883 152 915 152 c 1,73,-1
 915 115 l 1,74,75
 859 115 859 115 822 146.5 c 128,-1,76
 785 178 785 178 785 226 c 0,77,78
 785 283 785 283 821.5 318 c 128,-1,79
 858 353 858 353 915 353 c 0,80,81
 974 353 974 353 1013.5 317.5 c 128,-1,82
 1053 282 1053 282 1053 226 c 0,83,84
 1053 189 1053 189 1034.5 160 c 128,-1,85
 1016 131 1016 131 984 114.5 c 128,-1,86
 952 98 952 98 911 98 c 0,87,88
 845 98 845 98 794 124 c 128,-1,89
 743 150 743 150 713.5 196 c 128,-1,90
 684 242 684 242 684 301 c 0,91,92
 684 366 684 366 716.5 417.5 c 128,-1,93
 749 469 749 469 807 499 c 128,-1,94
 865 529 865 529 938 529 c 0,95,96
 999 529 999 529 1047.5 506 c 128,-1,97
 1096 483 1096 483 1129 443 c 1,98,-1
 1129 513 l 1,99,-1
 1575 513 l 1,100,-1
 1583 457 l 1,101,-1
 1454 457 l 1,102,-1
 1454 115 l 1,103,-1
 1383 115 l 1,104,-1
 1383 457 l 1,105,-1
 1199 457 l 1,106,-1
 1199 115 l 1,107,-1
 1129 115 l 1,108,-1
 1129 293 l 2,109,110
 1129 342 1129 342 1104.5 381.5 c 128,-1,111
 1080 421 1080 421 1037 444 c 128,-1,112
 994 467 994 467 938 467 c 0,113,114
 885 467 885 467 844.5 445 c 128,-1,115
 804 423 804 423 780.5 385.5 c 128,-1,116
 757 348 757 348 757 301 c 0,57,58
EndSplineSet
EndChar

StartChar: tm_Sha
Encoding: 2998 2998 353
Width: 1049
GlyphClass: 2
Flags: W
AnchorPoint: "Anchor-1" 535 0 basechar 0
AnchorPoint: "Anchor-0" 992 0 basechar 0
LayerCount: 2
Fore
SplineSet
785 513 m 2,0,1
 857 513 857 513 904 483 c 128,-1,2
 951 453 951 453 973.5 401 c 128,-1,3
 996 349 996 349 996 282 c 0,4,5
 996 195 996 195 970.5 127.5 c 128,-1,6
 945 60 945 60 895 21 c 128,-1,7
 845 -18 845 -18 773 -18 c 0,8,9
 721 -18 721 -18 681 4 c 128,-1,10
 641 26 641 26 618 70 c 128,-1,11
 595 114 595 114 595 179 c 2,12,-1
 595 457 l 1,13,-1
 450 457 l 1,14,-1
 450 189 l 2,15,16
 450 119 450 119 426 73 c 128,-1,17
 402 27 402 27 360.5 4.5 c 128,-1,18
 319 -18 319 -18 265 -18 c 0,19,20
 212 -18 212 -18 170.5 4.5 c 128,-1,21
 129 27 129 27 106 73 c 128,-1,22
 83 119 83 119 83 189 c 2,23,-1
 83 513 l 1,24,-1
 153 518 l 1,25,-1
 153 189 l 2,26,27
 153 110 153 110 184.5 77 c 128,-1,28
 216 44 216 44 265 44 c 0,29,30
 316 44 316 44 347.5 77 c 128,-1,31
 379 110 379 110 379 189 c 2,32,-1
 379 513 l 1,33,-1
 785 513 l 2,0,1
775 44 m 0,34,35
 824 44 824 44 856 75 c 128,-1,36
 888 106 888 106 904.5 159.5 c 128,-1,37
 921 213 921 213 921 282 c 0,38,39
 921 333 921 333 907.5 372.5 c 128,-1,40
 894 412 894 412 864 434.5 c 128,-1,41
 834 457 834 457 785 457 c 2,42,-1
 667 457 l 1,43,-1
 667 177 l 2,44,45
 667 107 667 107 697 75.5 c 128,-1,46
 727 44 727 44 775 44 c 0,34,35
EndSplineSet
EndChar

StartChar: tm_Ee
Encoding: 2959 2959 354
Width: 866
Flags: W
LayerCount: 2
Fore
SplineSet
128 237 m 0,0,1
 128 193 128 193 140.5 157.5 c 128,-1,2
 153 122 153 122 180 95 c 1,3,4
 175 105 175 105 172.5 117 c 128,-1,5
 170 129 170 129 170 142 c 0,6,7
 170 189 170 189 191 224.5 c 128,-1,8
 212 260 212 260 249 280.5 c 128,-1,9
 286 301 286 301 332 301 c 0,10,11
 383 301 383 301 421.5 280.5 c 128,-1,12
 460 260 460 260 482.5 224.5 c 128,-1,13
 505 189 505 189 505 141 c 0,14,15
 505 95 505 95 482 59 c 128,-1,16
 459 23 459 23 420 2.5 c 128,-1,17
 381 -18 381 -18 329 -18 c 0,18,19
 243 -18 243 -18 180.5 16 c 128,-1,20
 118 50 118 50 85.5 107.5 c 128,-1,21
 53 165 53 165 53 237 c 0,22,23
 53 317 53 317 89 379.5 c 128,-1,24
 125 442 125 442 197.5 477.5 c 128,-1,25
 270 513 270 513 380 513 c 2,26,-1
 848 513 l 1,27,-1
 856 457 l 1,28,-1
 668 457 l 1,29,-1
 668 17 l 2,30,31
 668 -20 668 -20 663.5 -47.5 c 128,-1,32
 659 -75 659 -75 644.5 -94 c 128,-1,33
 630 -113 630 -113 599 -124 c 2,34,-1
 255 -250 l 1,35,-1
 226 -198 l 1,36,-1
 545 -78 l 2,37,38
 568 -70 568 -70 578.5 -56 c 128,-1,39
 589 -42 589 -42 592.5 -20.5 c 128,-1,40
 596 1 596 1 596 33 c 2,41,-1
 596 457 l 1,42,-1
 389 457 l 2,43,44
 298 457 298 457 240 429 c 128,-1,45
 182 401 182 401 155 351.5 c 128,-1,46
 128 302 128 302 128 237 c 0,0,1
230 141 m 0,47,48
 230 97 230 97 259 68 c 128,-1,49
 288 39 288 39 332 39 c 0,50,51
 378 39 378 39 407.5 68 c 128,-1,52
 437 97 437 97 437 141 c 0,53,54
 437 186 437 186 407.5 215.5 c 128,-1,55
 378 245 378 245 332 245 c 0,56,57
 288 245 288 245 259 216 c 128,-1,58
 230 187 230 187 230 141 c 0,47,48
EndSplineSet
EndChar

